<?xml version="1.0" standalone="no"?>
<!DOCTYPE svg PUBLIC "-//W3C//DTD SVG 1.1//EN" "http://www.w3.org/Graphics/SVG/1.1/DTD/svg11.dtd" >
<svg>
<font id="SH-Blabeloo" horiz-adv-x="19.482422" >
<font-face units-per-em="100" ascent="80" descent="-20" />
<glyph unicode=" " horiz-adv-x="19.482422" d="" />
<glyph unicode="!" horiz-adv-x="23.974609000000001" d="M9.277343999999999 5.957031000000000 Q9.277343999999971 7.080078000000015 9.082031000000029 8.300781000000029 Q12.060547000000042 12.402343999999971 15.771484500000042 11.669921999999985 Q19.482422000000042 10.937500000000000 20.800781000000029 7.324219000000028 Q22.167968999999971 2.587891000000013 20.605468999999971 -2.099608999999987 Q15.087891000000013 -2.880858999999987 12.792968999999971 -1.220703000000015 Q10.449218999999971 0.439453000000015 9.863281000000029 2.636719000000028 Q9.277343999999971 4.833983999999987 9.277343999999971 5.957030999999972 zM8.691406000000001 54.785156000000001 Q11.572266000000013 54.785156000000029 17.187500000000000 52.294921999999985 Q14.892577999999958 52.148437999999999 15.820312500000000 46.875000000000000 Q16.748047000000042 41.601562000000001 17.822266000000013 37.304687999999999 Q18.896483999999987 33.007812000000001 19.091796499999987 27.441406000000029 Q19.287108999999987 21.875000000000000 15.771483999999987 19.384766000000013 Q13.574218999999971 18.164062000000001 10.205077999999958 18.505858999999987 Q12.744141000000013 19.433593999999971 7.373047000000042 33.691406000000029 Q3.955077999999958 42.773437999999999 3.466797000000042 48.095703000000015 Q2.978516000000013 54.785156000000029 8.691406000000029 54.785156000000029 z" />
<glyph unicode="&#x22;" horiz-adv-x="27.197265999999999" d="M13.720703000000000 46.386718999999999 Q16.503906000000029 50.585937999999999 19.677733999999987 49.316406000000029 Q20.898437999999942 48.925781000000029 21.972656499999971 47.558593500000029 Q23.046875000000000 46.191406000000029 23.486327999999958 44.580078000000015 Q25.097656000000029 39.697266000000013 23.291016000000013 35.009766000000013 Q22.509766000000013 33.007812000000001 21.240234500000042 32.226562000000001 Q19.970702999999958 31.445312000000001 18.701172000000042 32.421875000000000 Q18.847656000000029 36.230468999999971 17.382812000000058 36.914062000000001 Q15.673827999999958 37.402343999999971 14.794922000000042 40.283203000000015 Q13.916016000000013 43.164062000000001 13.720702999999958 46.386718999999971 zM2.978516000000000 46.386718999999999 Q5.566406000000029 50.488281000000029 8.984375000000000 49.316406000000029 Q11.572266000000013 48.437500000000000 12.695311999999944 44.580078000000015 Q14.404297000000042 39.892578000000015 12.500000000000000 35.009766000000013 Q11.718750000000000 33.007812000000001 10.498047000000042 32.226562000000001 Q9.277343999999971 31.445312000000001 8.007811999999944 32.421875000000000 Q8.007811999999944 35.986328000000015 6.689452999999958 36.914062000000001 Q4.785156000000029 37.402343999999971 3.906250000000000 41.015625000000000 Q2.978516000000013 43.994141000000013 2.978516000000013 46.386718999999971 z" />
<glyph unicode="#" horiz-adv-x="30.175781000000001" d="M16.406250000000000 20.703125000000000 C16.076660250000032 20.703125000000000 15.417480749999982 20.703125000000000 15.087891000000013 20.703125000000000 C15.197754250000003 18.957519499999989 15.417480749999982 15.466308500000025 15.527343999999971 13.720703000000015 C16.198730749999982 13.720703000000015 17.541504250000003 13.720703000000015 18.212891000000013 13.720703000000015 Q17.724608999999987 19.384766000000013 17.724608999999987 20.800781000000029 Q17.333983999999987 20.703125000000000 16.406250000000000 20.703125000000000 zM19.189453000000000 6.103516000000000 Q18.994141000000013 6.689453000000015 18.994141000000013 7.812500000000000 Q18.701172000000042 8.398437999999999 18.701172000000042 10.009766000000013 Q16.308593999999971 9.814453000000015 15.185547000000042 9.814453000000015 Q14.892577999999958 6.494141000000013 13.720702999999958 4.931641000000013 Q12.548827999999958 3.369141000000013 10.302733999999987 4.980469000000028 Q10.205077999999958 5.468750000000000 10.058593500000029 6.689453000000015 Q9.912108999999987 7.910155999999972 9.814452999999958 8.154296999999985 Q9.716797000000042 8.398437999999999 9.521483999999987 10.205078000000015 Q4.492187999999942 11.035156000000029 6.396483999999987 14.111328000000015 Q7.519531000000029 13.916016000000013 9.082031000000029 13.720703000000015 Q8.496093999999971 17.626953000000015 8.593750000000000 21.093750000000000 Q3.613281000000029 21.875000000000000 5.517577999999958 25.000000000000000 Q6.494141000000013 24.707030999999972 8.593750000000000 24.511718999999971 Q8.789061999999944 28.808593999999971 10.156250000000000 30.371093999999971 Q11.523438000000056 31.933593999999971 14.404297000000042 29.296875000000000 C14.599609333333319 27.701822999999990 14.843749750000029 25.708008000000007 14.990233999999987 24.511718999999971 C15.698242000000050 24.511718999999971 17.114257999999950 24.511718999999971 17.822266000000013 24.511718999999971 Q18.017577999999958 28.808593999999971 19.287108999999987 29.882812000000001 Q20.703125000000000 31.494141000000013 23.388672000000042 28.906250000000000 C23.600260666666713 27.311197999999990 23.864746500000024 25.317383000000007 24.023437999999942 24.121093999999971 Q26.318358999999987 23.730468999999971 27.392577999999958 22.851562500000000 Q28.466797000000042 21.972656000000029 28.222656000000029 20.605468999999971 Q28.222656000000029 20.898437999999999 27.001952999999958 21.093750000000000 C26.106770666666648 21.093750000000000 24.987792750000040 21.093750000000000 24.316406000000029 21.093750000000000 C24.340820000000008 20.117187500000000 24.389647999999966 18.164062500000000 24.414062000000058 17.187500000000000 Q24.609375000000000 15.869141000000013 24.609375000000000 13.281250000000000 Q27.099608999999987 12.890625000000000 28.222656000000029 12.109375000000000 Q29.345702999999958 11.328125000000000 29.101562000000058 9.814453000000015 Q28.808593999999971 10.449219000000028 24.414062000000058 10.205078000000015 Q24.121093999999971 6.298828000000015 22.998047000000042 4.785155999999972 Q21.875000000000000 2.978516000000013 19.384766000000013 4.492187999999999 Q19.189452999999958 5.468750000000000 19.189452999999958 6.103516000000013 z" />
<glyph unicode="%" horiz-adv-x="51.660156000000001" d="M41.357422000000000 17.382812000000001 Q40.576172000000042 17.382812000000001 39.648437999999942 16.406250000000000 Q38.037108999999987 14.208983999999987 36.523437500000000 8.105468500000029 Q35.009766000000013 2.001953000000015 36.132812000000058 0.292969000000028 Q36.816406000000029 -0.634766000000013 38.037108999999987 1.220703000000015 Q39.746093999999971 3.320312000000001 41.113281000000029 8.300781000000029 Q41.992187999999942 12.792968999999971 42.041016000000013 16.015625000000000 Q41.943358999999987 17.285156000000029 41.357422000000042 17.382812000000001 zM37.158203000000000 -1.708984000000000 Q31.152343999999971 -1.708983999999987 29.052733999999987 3.710937999999999 Q26.660156000000029 8.789062000000001 29.638672000000042 13.916016000000013 Q33.056641000000013 19.433593999999971 40.429687500000000 19.433593999999971 Q47.802733999999987 19.433593999999971 50.537108999999987 13.916016000000013 Q52.832031000000029 8.593750000000000 49.658202999999958 3.710937999999999 Q45.849608999999987 -1.708983999999987 37.158202999999958 -1.708983999999987 zM14.355468999999999 0.683594000000000 Q15.673827999999958 0.292969000000028 16.943358999999987 2.392578000000015 Q18.750000000000000 4.882812000000001 22.656250000000000 15.625000000000000 Q26.562500000000000 26.367187999999999 30.273437999999942 34.863281000000029 Q33.984375000000000 43.359375000000000 37.548827999999958 45.703125000000000 Q39.843750000000000 46.826171999999985 41.748047000000042 45.507812000000001 Q40.380858999999987 45.507812000000001 36.035156000000029 33.593750000000000 Q34.228516000000013 28.808593999999971 33.154297000000042 26.318358999999987 Q29.003906000000029 15.234375000000000 26.171875000000000 9.277343500000029 Q23.339843999999971 3.320312000000001 20.117187999999942 0.292969000000028 Q16.894531000000029 -2.636718999999971 14.355468999999971 0.683594000000028 zM15.234375000000000 30.908203000000000 Q15.527343999999971 29.492187999999999 16.064452999999958 29.394531499999971 Q16.601562000000058 29.296875000000000 17.724608999999987 30.419921999999985 Q19.433593999999971 32.714843999999971 20.410156000000029 37.695312000000001 Q21.630858999999987 41.992187999999999 21.484375000000000 44.238281499999971 Q21.337891000000013 46.484375000000000 20.654297000000042 46.582031000000029 Q19.970702999999958 46.679687999999999 19.140625000000000 45.507812000000001 Q17.626952999999958 43.750000000000000 16.308593500000029 38.769531000000029 Q14.990233999999987 33.789062000000001 15.234375000000000 30.908203000000015 zM20.019531000000001 48.388672000000000 Q25.927733999999987 48.388671999999985 28.320312000000058 43.017578000000015 Q30.517577999999958 37.695312000000001 27.734375000000000 32.812500000000000 Q24.414062000000058 27.392578000000015 17.041016000000013 27.392578000000015 Q9.667968999999971 27.343750000000057 6.933593999999971 32.617187500000000 Q4.199218999999971 37.890625000000000 7.714843999999971 43.164062000000001 Q11.328125000000000 48.437500000000284 20.019531000000029 48.388671999999985 z" />
<glyph unicode="&#x26;" horiz-adv-x="48.193359000000001" d="M45.898437999999999 22.119140999999999 Q46.679687999999942 14.013671999999985 42.187500000000000 11.914062000000001 Q39.453125000000000 10.644531000000029 32.910156499999971 11.523437500000000 Q26.367187999999942 12.402343999999971 24.804687999999942 11.181641000000013 Q23.486327999999958 16.064453000000015 28.564452999999958 18.310546999999985 Q31.738281000000029 19.531250000000000 38.574218500000029 20.068359499999985 Q45.410156000000029 20.605468999999971 45.898437999999942 22.119141000000013 zM22.265625000000000 45.507812000000001 Q18.359375000000000 45.507812000000001 17.578125000000000 39.111328000000015 Q16.796875000000000 32.714843999999971 19.580077999999958 27.099608999999987 Q22.460937999999942 20.800781000000029 27.490233999999987 21.484375000000000 Q29.101562000000058 21.582031000000029 29.345702999999958 20.800781000000029 Q29.589843999999971 20.019531000000029 28.173827999999958 19.384766000000013 Q22.949218999999971 17.285156000000029 21.972656499999971 11.816406000000029 Q20.996093999999971 6.347656000000029 23.388672000000042 1.611328000000015 Q25.781250000000000 -3.466796999999985 29.589843999999971 -3.515625000000000 Q31.689452999999958 -3.515625000000000 31.884765499999958 -0.292968499999972 Q32.080077999999958 2.929687999999999 30.566406000000029 6.689453000000015 Q28.662108999999987 10.302733999999987 26.904297000000042 10.888671999999985 Q35.888672000000042 11.279296999999985 40.869141000000013 6.884766000000013 Q45.458983999999987 2.587891000000013 42.871093999999971 -1.855469000000028 Q40.234375000000000 -6.298828000000015 30.664062500000000 -6.298828000000015 Q21.093750000000000 -6.298828000000015 14.697266000000013 -0.878905999999972 Q8.789061999999944 3.808593999999971 7.470702999999958 10.009766000000013 Q6.152343999999971 16.210937999999999 9.765625000000000 18.896483999999987 Q11.181641000000013 19.921875000000000 13.574218999999971 20.312500000000000 Q15.966797000000042 20.703125000000000 16.503906000000029 21.093750000000000 Q13.085938000000056 21.289062000000001 8.984375000000000 24.755858999999987 Q4.882812000000058 28.222656000000029 3.857422000000042 34.082031000000029 Q3.076172000000042 40.087891000000013 6.982422000000042 43.994141000000013 Q11.621093999999971 48.193358999999987 21.289062500000000 47.412108999999987 Q30.957031000000029 46.630858999999987 36.376952999999958 39.501953000000015 Q38.476562000000058 36.621093999999971 38.867187000000058 33.447266000000013 Q39.257812000000058 30.273437999999999 37.792968999999971 28.222656000000029 Q34.716797000000042 23.046875000000000 24.804687999999942 26.318358999999987 Q26.367187999999942 27.099608999999987 26.660156499999971 31.787108999999987 Q26.953125000000000 36.474608999999987 25.976562000000058 41.015625000000000 Q24.755858999999987 45.507812000000001 22.265625000000000 45.507812000000001 z" />
<glyph unicode="'" horiz-adv-x="16.455078" d="M2.978516000000000 46.386718999999999 Q5.761718999999971 50.488281000000029 9.082031000000029 49.316406000000029 Q11.669922000000042 48.339843999999971 12.792968999999971 44.580078000000015 Q14.501952999999958 39.892578000000015 12.597656000000029 35.009766000000013 Q11.816406000000029 33.007812000000001 10.595702999999958 32.226562000000001 Q9.375000000000000 31.445312000000001 8.007811999999944 32.421875000000000 Q8.105468999999971 34.521483999999987 7.617188000000056 35.986328000000015 Q7.128906000000029 36.669921999999985 6.689452999999958 36.914062000000001 Q4.980468999999971 37.402343999999971 4.101562500000000 40.283203000000015 Q3.222656000000029 43.164062000000001 2.978516000000013 46.386718999999971 z" />
<glyph unicode="(" horiz-adv-x="29.492187999999999" d="M25.244140999999999 47.509765999999999 Q19.628906000000029 47.509766000000013 17.480468500000029 38.916016000000013 Q15.332031000000029 30.322266000000013 16.162108999999987 18.798828000000015 Q16.748047000000042 7.714843999999971 20.166015499999958 -1.611328000000015 Q23.583983999999987 -10.937500000000000 27.978516000000013 -11.816406000000029 Q19.433593999999971 -11.035156000000029 12.792968999999971 -1.562500000000000 Q6.152343999999971 7.910156000000029 4.687500000000000 20.117187999999999 Q3.222656000000029 32.226562000000001 7.958983999999987 39.794921999999985 Q13.232422000000042 48.486328000000015 25.244141000000013 47.509766000000013 z" />
<glyph unicode=")" horiz-adv-x="29.589843999999999" d="M5.810547000000000 -9.277343999999999 Q11.328125000000000 -9.277343999999971 13.623047000000042 -0.292969000000028 Q15.722656000000029 7.519530999999972 14.941406000000029 19.042968500000029 Q14.160156000000029 30.566406000000029 10.888672000000042 39.794921999999985 Q7.373047000000042 49.072266000000013 2.978516000000013 50.097656000000029 Q11.669922000000042 49.218750000000000 18.505858999999987 39.404296999999985 Q24.707031000000029 30.126953000000015 26.318358999999987 18.505858999999987 Q27.734375000000000 5.908203000000015 22.998047000000042 -1.416016000000013 Q17.724608999999987 -10.156250000000000 5.810547000000042 -9.277343999999971 z" />
<glyph unicode="*" horiz-adv-x="43.164062000000001" d="M16.113281000000001 44.824218999999999 Q15.234375000000000 43.408203000000015 17.919922000000042 39.013671999999985 Q20.117187999999942 34.912108999999987 23.437500000000000 31.591796999999985 Q22.460937999999942 33.398437999999999 20.898437999999942 37.890625000000000 Q19.335937999999942 42.382812000000001 18.994141000000013 45.996093999999971 Q22.900391000000013 46.777343999999971 25.195312000000058 46.289062000000001 Q29.687500000000000 45.117187999999999 29.980468999999971 41.113281499999971 Q30.273437999999942 37.109375000000000 29.199218999999971 33.593750000000000 Q28.125000000000000 30.078125000000000 28.125000000000000 29.882812000000001 Q30.908202999999958 32.958983999999987 33.105468999999971 38.085937999999999 Q35.205077999999958 43.798828000000015 34.814452999999958 46.679687999999999 Q43.505858999999987 39.599608999999987 42.626952999999958 34.716796999999985 Q41.406250000000000 30.029296999999985 31.396483999999987 29.101562000000001 Q37.500000000000000 27.783203000000015 40.332031000000029 25.683593999999971 Q46.533202999999958 21.484375000000000 41.406250000000000 17.382812000000001 Q38.720702999999958 15.185546999999985 34.521483999999987 14.404296999999985 Q35.058593999999971 15.136718999999971 34.082031499999971 17.773437500000000 Q33.105468999999971 20.410156000000029 30.615233999999987 23.730468999999971 Q28.125000000000000 27.050781000000029 26.806641000000013 27.978516000000013 Q31.152343999999971 17.724608999999987 31.103516000000013 14.013671999999985 Q20.556641000000013 11.816406000000029 20.117187999999942 20.019531000000029 Q19.824218999999971 22.998046999999985 20.898437999999942 26.416016000000013 Q18.212891000000013 23.437500000000000 16.406250000000000 20.117187999999999 C16.080729333333352 19.140625333333332 15.673828500000013 17.919921999999985 15.429688000000056 17.187500000000000 Q15.234375000000000 15.966796999999985 16.015625000000000 15.185546999999985 Q10.205077999999958 19.482421999999985 8.105468999999971 22.216796999999985 Q3.710938000000056 27.294921999999985 10.839843999999971 28.808593999999971 Q15.136718999999971 29.687500000000000 20.019531000000029 29.980468999999971 Q13.867188000000056 31.201171999999985 10.644531499999971 33.251953000000015 Q7.421875000000000 35.302733999999987 7.128906000000029 37.548828000000015 Q6.835938000000056 39.794921999999985 8.984375000000000 41.650390500000015 Q11.132811999999944 43.505858999999987 16.113281000000029 44.824218999999971 z" />
<glyph unicode="+" horiz-adv-x="31.689453" d="M19.482422000000000 29.296875000000000 Q19.482422000000042 28.515625000000000 19.775390499999958 27.343750000000000 Q20.068358999999987 26.171875000000000 20.263672000000042 24.902343999999971 Q20.458983999999987 23.583983999999987 20.556641000000013 23.193358999999987 Q25.048827999999958 22.998046999999985 27.587891000000013 21.679687999999999 Q30.371093999999971 19.970703000000015 29.785156000000029 16.796875000000000 Q28.125000000000000 16.210937999999999 25.097656000000029 15.625000000000000 Q22.070312000000058 15.039062000000001 21.679687999999942 14.990233999999987 Q21.875000000000000 9.570312000000001 20.849608999999987 7.910155999999972 Q19.189452999999958 5.859375000000000 15.478516000000013 8.300781000000029 C15.283203333333290 8.902994666666643 15.039062500000000 9.655761750000011 14.892577999999958 10.107421999999985 C14.709472499999947 10.583496249999996 14.343261500000040 11.535644750000017 14.160156000000029 12.011718999999971 Q14.062500000000000 12.304687999999999 13.574218999999971 14.306641000000013 Q8.593750000000000 14.306641000000013 5.957031000000029 16.210937500000000 Q3.320312000000058 18.115233999999987 4.492188000000056 22.607421999999985 Q4.980468999999971 22.607421999999985 8.105468999999971 22.851562500000000 Q11.230468999999971 23.095703000000015 11.572266000000013 23.095703000000015 Q10.693358999999987 29.101562000000001 12.158202999999958 31.103516000000013 Q14.160156000000029 33.398437999999999 19.482422000000042 29.296875000000000 z" />
<glyph unicode="," horiz-adv-x="18.359375" d="M2.978516000000000 10.595703000000000 Q5.664061999999944 14.794921999999985 9.912108999999987 13.916016000000013 Q11.523438000000056 13.623046999999985 12.890625000000000 12.402343999999971 Q15.820311999999944 9.716796999999985 15.283202999999958 2.392578000000015 Q14.404297000000042 -1.806641000000013 12.695311999999944 -3.076171999999985 Q10.888672000000042 -5.273437999999999 8.007811999999944 -3.515625000000000 Q9.814452999999958 -2.636719000000028 9.814452999999958 0.097655999999972 Q5.615233999999987 0.878905999999972 4.003906000000029 4.785155999999972 Q3.271483999999987 6.689453000000015 2.978516000000013 10.595703000000015 z" />
<glyph unicode="-" horiz-adv-x="24.853515999999999" d="M4.736328000000000 25.000000000000000 Q7.031250000000000 25.000000000000000 10.156250000000000 25.341796999999985 Q13.281250000000000 25.683593999999971 16.796875000000000 25.097656000000029 Q21.289062000000058 24.511718999999971 22.705077999999958 20.996093999999971 Q23.486327999999958 19.091796999999985 22.998047000000042 16.015625000000000 Q17.919922000000042 14.794922000000042 12.500000000000000 14.990233999999987 Q8.105468999999971 15.478516000000013 6.103516000000013 17.480468999999971 Q3.417968999999971 20.019531000000029 4.736327999999958 25.000000000000000 z" />
<glyph unicode="." horiz-adv-x="18.261718999999999" d="M3.417969000000000 7.080078000000000 C3.308105749999982 7.958984250000015 3.088379250000003 9.716796750000015 2.978516000000013 10.595703000000015 Q5.761718999999971 14.794921999999985 9.912108999999987 13.916016000000013 Q13.330077999999958 13.330078000000015 14.697266000000013 9.619141000000013 Q15.478516000000013 6.835937999999999 15.283202999999958 3.076171999999985 C15.169270666666648 2.620442666666690 15.026855250000040 2.050780999999972 14.941406000000029 1.708983999999987 Q14.697266000000013 0.732421999999985 14.501952999999958 0.195312000000001 Q10.107422000000042 -0.585937999999999 7.812500000000000 0.488280999999972 Q3.613281000000029 2.392578000000015 3.417968999999971 7.080078000000015 z" />
<glyph unicode="/" horiz-adv-x="33.496093999999999" d="M2.978516000000000 0.683594000000000 Q4.296875000000000 0.390625000000000 5.908202999999958 2.636718499999972 Q7.519531000000029 4.882812000000001 11.718750000000000 16.455078000000015 Q15.917968999999971 28.027343999999971 18.603516000000013 34.082031000000029 Q22.509766000000013 43.261718999999971 26.318358999999987 45.703125000000000 Q28.613281000000029 46.826171999999985 30.517577999999958 45.507812000000001 Q29.150391000000013 45.507812000000001 24.707031000000029 33.593750000000000 Q23.437500000000000 29.687500000000000 20.019531000000029 21.191406000000029 Q16.601562000000058 12.695312000000001 15.820311999999944 11.083983999999987 Q12.207031000000029 3.320312000000001 8.886718500000029 0.292968499999972 Q5.566406000000029 -2.734375000000000 2.978516000000013 0.683594000000028 z" />
<glyph unicode="0" horiz-adv-x="42.773437999999999" d="M36.572265999999999 54.492187999999999 Q41.796875000000000 45.947266000000013 41.796875000000000 31.152343999999971 Q41.796875000000000 16.601562000000001 36.572266000000013 8.154296999999985 C36.572266000000013 8.170572999999990 36.572266000000013 8.190918000000011 36.572266000000013 8.203125000000000 Q31.201172000000042 -0.585937999999999 21.777343999999971 -0.585937999999999 Q11.718750000000000 -0.585937999999999 6.347656000000029 7.714844000000028 Q0.976561999999944 16.015625000000000 0.976561999999944 31.250000000000000 Q0.976561999999944 45.800781000000029 6.396483999999987 54.394531000000029 Q11.865233999999987 63.232421999999985 21.582031000000029 63.232421999999985 Q31.152343999999971 63.232421999999985 36.572266000000013 54.492187999999999 zM13.378906000000001 42.871093999999999 Q9.912108999999987 37.988281000000029 9.912108999999987 31.640625000000000 Q9.912108999999987 24.511718999999971 13.281250000000000 19.628906000000029 Q16.455077999999958 15.136718999999971 21.435547000000042 15.136718999999971 Q26.269531000000029 15.136718999999971 29.443358999999987 19.531250000000000 Q32.861327999999958 24.121093999999971 32.861327999999958 31.152343999999971 Q32.861327999999958 38.330078000000015 29.443358999999987 42.773437999999999 Q26.171875000000000 47.363281000000029 21.582031000000029 47.363281000000029 Q16.845702999999958 47.363281000000029 13.378906000000029 42.871093999999971 z" />
<glyph unicode="1" horiz-adv-x="30.957031000000001" d="M0.976562000000000 43.847656000000001 Q16.357422000000042 52.050781000000029 26.464843999999971 64.062500000000000 C27.636718999999971 63.606770666666648 29.101562749999971 63.037108999999987 29.980468999999971 62.695312000000001 Q29.150391000000013 55.957031000000029 28.710937500000000 49.829101499999979 Q28.271483999999987 43.701171999999985 28.271483999999987 38.085937999999999 C28.238931999999977 33.268229333333352 28.198242000000050 27.246093500000029 28.173827999999958 23.632812000000001 C28.186034999999947 21.838378499999976 28.210449000000040 18.249511499999983 28.222656000000029 16.455078000000015 Q28.222656000000029 12.304687999999999 28.369140499999958 8.300781499999971 Q28.515625000000000 4.296875000000000 28.759766000000013 0.341796999999985 Q26.757812000000058 0.000000000000000 26.123047000000042 0.000000000000000 C25.472005333333300 -0.048828000000015 24.658203250000042 -0.109863000000018 24.169922000000042 -0.146483999999987 Q22.900391000000013 -0.292969000000028 22.314452999999958 -0.292969000000028 C20.458984333333319 -0.553385666666657 18.139648500000021 -0.878906500000028 16.748047000000042 -1.074219000000028 C15.783691500000032 -1.171875250000028 13.854980500000011 -1.367187750000028 12.890625000000000 -1.464844000000028 Q13.378906000000029 2.343750000000000 13.598632500000008 5.468750000000000 Q13.818358999999987 8.593750000000000 13.818358999999987 11.132812000000001 C13.916015333333348 13.509114333333343 14.038085750000050 16.479492250000021 14.111327999999958 18.261718999999971 C14.135742000000050 20.043945500000007 14.184570000000008 23.608398500000021 14.208983999999987 25.390625000000000 Q14.208983999999987 27.929687999999999 14.038086000000021 31.494141000000013 Q13.867187999999942 35.058593999999971 13.525391000000013 39.746093999999971 C13.509114666666619 39.990234666666652 13.488769250000018 40.295410500000003 13.476561999999944 40.478516000000013 Q12.060547000000042 40.136718999999971 10.400390499999958 39.697265500000015 Q8.740233999999987 39.257812000000001 6.787108999999987 38.671875000000000 C5.794270666666648 38.395182333333310 4.553222750000032 38.049316500000032 3.808593999999971 37.841796999999985 C3.100586000000021 39.343261750000011 1.684570000000008 42.346191250000004 0.976561999999944 43.847656000000029 z" />
<glyph unicode="2" horiz-adv-x="45.263672" d="M27.246093999999999 16.894531000000001 C27.233886999999982 16.894531000000029 27.209473000000003 16.894531000000029 27.197266000000013 16.894531000000029 C29.125976749999950 16.870116999999993 32.983398250000050 16.821288999999979 34.912108999999987 16.796875000000000 Q36.718750000000000 16.796875000000000 39.038086000000021 16.601562500000000 Q41.357422000000042 16.406250000000000 44.287108999999987 16.015625000000000 Q43.750000000000000 12.304687999999999 42.553711000000021 8.325195500000007 Q41.357422000000042 4.345703000000015 39.550781000000029 0.048828000000015 C37.044270666666648 0.195312333333334 33.911132749999979 0.378417749999983 32.031250000000000 0.488280999999972 Q31.787108999999987 0.537108999999987 31.518554500000050 0.537108999999987 Q31.250000000000000 0.537108999999987 30.859375000000000 0.537108999999987 Q27.636718999999971 0.732421999999985 24.340820499999950 0.805663999999979 Q21.044922000000042 0.878905999999972 17.529297000000042 0.878905999999972 Q16.015625000000000 0.878905999999972 11.621093999999971 0.585937999999999 C9.700520999999981 0.455729333333352 7.299804750000021 0.292968499999972 5.859375000000000 0.195312000000001 C4.882812500000000 0.158690999999976 2.929687500000000 0.085448999999983 1.953125000000000 0.048828000000015 Q3.613281000000029 3.564453000000015 4.663086000000021 6.518554499999993 Q5.712891000000013 9.472656000000029 6.103516000000013 11.914062000000001 Q27.734375000000000 25.781250000000000 27.734375000000000 40.478516000000013 Q27.734375000000000 45.800781000000029 24.902343999999971 49.804687999999999 Q22.314452999999958 53.417968999999971 18.457031000000029 53.417968999999971 Q15.576172000000042 53.417968999999971 13.867188000000056 51.708983999999987 Q12.207031000000029 50.048828000000015 12.207031000000029 47.216796999999985 Q12.207031000000029 44.091796999999985 16.894531000000029 40.966796999999985 Q11.572266000000013 34.179687999999999 6.250000000000000 31.738281000000029 Q0.976561999999944 35.986328000000015 0.976561999999944 42.480468999999971 Q0.976561999999944 50.683593999999971 7.812500000000000 56.835937999999999 C7.779947999999990 56.835937999999999 7.739257999999950 56.835937999999999 7.714843999999971 56.835937999999999 Q14.501952999999958 63.037108999999987 23.437500000000000 63.037108999999987 Q31.152343999999971 63.037108999999987 36.816406000000029 57.519531000000029 Q42.236327999999958 52.001953000000015 42.236327999999958 44.238281000000029 Q42.236327999999958 33.056641000000013 29.541016000000013 21.679687999999999 Q27.832031000000029 20.117187999999999 26.318359500000042 18.872070500000007 Q24.804687999999942 17.626953000000015 23.535156000000029 16.748046999999985 C24.772135333333381 16.796875000000000 26.318359500000042 16.857910000000004 27.246093999999971 16.894531000000029 z" />
<glyph unicode="3" horiz-adv-x="38.378906000000001" d="M1.513672000000000 47.167968999999999 Q2.050781000000029 53.857421999999985 3.417968999999971 58.398437999999999 Q10.400391000000013 63.183593999999971 18.554687999999942 63.183593999999971 Q25.683593999999971 63.183593999999971 30.761718999999971 59.082031000000029 Q35.791016000000013 54.785156000000029 35.791016000000013 48.681641000000013 Q35.791016000000013 38.867187999999999 25.000000000000000 34.228516000000013 Q30.712891000000013 32.275391000000013 33.740233999999987 29.248046999999985 Q37.402343999999971 25.341796999999985 37.402343999999971 19.091796999999985 Q37.402343999999971 11.621093999999971 30.810547000000042 5.322266000000013 Q23.974608999999987 -0.781250000000000 16.113281000000029 -0.781250000000000 Q10.986327999999958 -0.781250000000000 3.222656000000029 1.513671999999985 Q1.513672000000042 6.933594000000028 0.976561999999944 17.041016000000013 Q8.642577999999958 9.716796999999985 14.746093999999971 9.716796999999985 Q18.652343999999971 9.716796999999985 21.044922000000042 11.816406000000029 Q23.437500000000000 13.916016000000013 23.437500000000000 17.236328000000015 Q23.437500000000000 21.044921999999985 20.117187999999942 23.632812000000001 Q16.845702999999958 26.318358999999987 11.474608999999987 26.318358999999987 C10.286458000000039 26.318358999999987 8.801269250000018 26.318358999999987 7.910156000000029 26.318358999999987 Q7.910156000000029 31.689453000000015 9.667968999999971 36.621093999999971 Q21.777343999999971 37.500000000000000 21.777343999999971 44.140625000000000 Q21.777343999999971 46.289062000000001 19.726562000000058 48.046875000000000 Q17.675781000000029 49.804687999999999 14.648438000000056 49.804687999999999 Q8.984375000000000 49.804687999999999 3.222656000000029 46.093750000000000 C2.652994666666700 46.451822999999990 1.940918000000011 46.899414250000007 1.513672000000042 47.167968999999971 z" />
<glyph unicode="4" horiz-adv-x="51.025390999999999" d="M42.089843999999999 59.179687999999999 Q41.503906000000029 54.394531000000029 41.503906000000029 53.515625000000000 C41.487629999999967 52.604166666666686 41.467284999999947 51.464843750000000 41.455077999999958 50.781250000000000 C41.455077999999958 45.581054750000021 41.455077999999958 35.180664250000007 41.455077999999958 29.980468999999971 C43.603515499999958 29.980468999999971 47.900390499999958 29.980468999999971 50.048827999999958 29.980468999999971 C49.780273250000050 29.235839999999996 49.243163750000008 27.746581999999989 48.974608999999987 27.001953000000015 Q48.046875000000000 25.097656000000029 47.900391000000013 24.267578000000015 C47.477213666666671 22.819010333333324 46.948242000000050 21.008300749999989 46.630858999999987 19.921875000000000 C46.496581750000018 19.531250000000000 46.228027249999968 18.750000000000000 46.093750000000000 18.359375000000000 C44.934081999999989 18.359375000000000 42.614745999999968 18.359375000000000 41.455077999999958 18.359375000000000 C41.467284999999947 13.928222749999975 41.491699000000040 5.065918249999982 41.503906000000029 0.634766000000013 C40.612792750000040 0.549316750000003 38.830566249999947 0.378418249999982 37.939452999999958 0.292969000000028 Q34.423827999999958 -0.097655999999972 30.517577999999958 -0.878905999999972 C29.248046666666710 -1.106770666666648 27.661132500000008 -1.391601499999979 26.708983999999987 -1.562500000000000 Q26.904297000000042 0.097655999999972 27.001952999999958 1.782226499999979 Q27.099608999999987 3.466796999999985 27.099608999999987 5.175780999999972 C27.115885333333381 9.570312333333334 27.136230749999982 15.063476499999979 27.148437999999942 18.359375000000000 C20.605468999999971 18.371582000000046 7.519531000000029 18.395995999999968 0.976561999999944 18.408203000000015 C1.220702749999987 20.117187500000000 1.708984249999958 23.535156499999971 1.953125000000000 25.244141000000013 Q6.689452999999958 36.425781000000029 11.816406000000029 43.652343999999971 C11.816406000000029 43.636068000000023 11.816406000000029 43.615723000000003 11.816406000000029 43.603516000000013 Q14.453125000000000 47.363281000000029 18.286132999999950 51.684570000000008 Q22.119141000000013 56.005858999999987 27.294922000000042 61.035156000000029 C28.271484333333319 61.214192666666690 29.492187250000029 61.437988500000017 30.224608999999987 61.572266000000013 Q31.542968999999971 61.816406000000029 33.691406499999971 62.133788999999979 Q35.839843999999971 62.451171999999985 38.867187999999942 62.792968999999971 C40.087891000000013 62.923177333333342 41.613769749999960 63.085937749999971 42.529297000000042 63.183593999999971 C42.419433750000053 62.182617499999992 42.199707249999960 60.180664499999978 42.089843999999971 59.179687999999999 zM27.148437999999999 48.730468999999999 Q18.408202999999958 38.916016000000013 13.671875000000000 29.980468999999971 C18.164062666666723 29.980468999999971 23.779297250000013 29.980468999999971 27.148437999999942 29.980468999999971 C27.148437999999942 34.667968999999971 27.148437999999942 44.042968999999971 27.148437999999942 48.730468999999971 z" />
<glyph unicode="5" horiz-adv-x="40.234375" d="M7.519531000000000 63.232422000000000 Q13.867187999999942 61.767578000000015 19.335937999999942 61.767578000000015 C21.370443000000023 61.751301999999953 23.913574250000011 61.730956999999989 25.439452999999958 61.718750000000000 Q31.640625000000000 61.718750000000000 37.304687999999942 63.476562000000001 Q37.304687999999942 58.007812000000001 36.572266000000013 53.710937999999999 Q35.693358999999987 49.072266000000013 34.863281000000029 48.046875000000000 Q33.007812000000058 45.751953000000015 23.583983999999987 45.751953000000015 Q22.998047000000042 45.751953000000015 22.607422000000042 45.751953000000015 Q22.216797000000042 45.751953000000015 21.972656000000029 45.800781000000029 C20.393879999999967 45.882161333333329 18.420409999999947 45.983886750000011 17.236327999999958 46.044921999999985 Q16.796875000000000 46.093750000000000 16.137695499999950 46.215820500000007 Q15.478516000000013 46.337891000000013 14.648438000000056 46.533203000000015 Q14.160156000000029 44.580078000000015 13.500976499999979 42.431640500000015 Q12.841797000000042 40.283203000000015 11.962891000000013 37.841796999999985 C13.118489999999952 37.988281333333362 14.562988750000045 38.171386750000011 15.429688000000056 38.281250000000000 C16.003418249999982 38.293456999999989 17.150878749999947 38.317870999999968 17.724608999999987 38.330078000000015 Q27.148437999999942 38.330078000000015 33.300781000000029 33.349608999999987 Q39.257812000000058 28.222656000000029 39.257812000000058 19.970703000000015 Q39.257812000000058 11.083983999999987 32.617187999999942 5.224608999999987 Q25.976561999999944 -0.683593999999971 16.259766000000013 -0.683594000000028 Q9.326172000000042 -0.683593999999971 2.929688000000056 1.855469000000028 Q0.976561999999944 6.347655999999972 0.976561999999944 15.820312000000001 Q10.693358999999987 8.740233999999987 15.771483999999987 8.740233999999987 Q19.775391000000013 8.740233999999987 23.242187999999942 11.230468999999971 C23.209635666666713 11.230468999999971 23.168945249999979 11.230468999999971 23.144531000000029 11.230468999999971 Q26.269531000000029 13.623046999999985 26.269531000000029 16.699218999999971 Q26.269531000000029 20.605468999999971 22.656250000000000 22.949218999999971 Q18.896483999999987 25.585937999999999 13.037108999999987 25.585937999999999 Q9.716797000000042 25.585937999999999 1.025391000000013 23.242187999999999 Q6.152343999999971 47.167968999999971 6.152343999999971 62.109375000000000 C6.608072999999990 62.483723999999995 7.177734249999958 62.951660250000032 7.519531000000029 63.232421999999985 z" />
<glyph unicode="6" horiz-adv-x="42.96875" d="M35.253906000000001 62.451172000000000 Q39.355468999999971 55.273437999999999 39.355468999999971 45.410156000000029 Q30.908202999999958 51.074218999999971 27.441406000000029 51.074218999999971 Q22.265625000000000 51.074218999999971 17.382812000000058 45.458983999999987 Q13.525391000000013 40.722656000000029 12.646483999999987 32.275391000000013 C12.874348666666720 32.438151333333337 13.159179500000050 32.641601750000007 13.330077999999958 32.763671999999985 Q20.410156000000029 37.158203000000015 26.367187999999942 37.158203000000015 Q33.300781000000029 37.158203000000015 37.646483999999987 32.617187999999999 Q41.992187999999942 28.125000000000000 41.992187999999942 20.849608999999987 Q41.992187999999942 11.914062000000001 36.328125000000000 5.517578000000015 Q30.517577999999958 -0.781250000000000 22.119141000000013 -0.781250000000000 Q12.744141000000013 -0.781250000000000 6.835938000000056 7.128905999999972 Q0.976561999999944 15.039062000000001 0.976561999999944 27.148437999999999 Q0.976561999999944 43.554687999999999 10.986327999999958 53.222656000000029 Q15.527343999999971 57.617187999999999 20.947266000000013 59.960937999999999 Q26.269531000000029 62.158203000000015 34.130858999999987 63.037108999999987 C34.505208000000039 62.841796666666653 34.973144250000018 62.597656250000000 35.253906000000029 62.451171999999985 zM16.650390999999999 25.097656000000001 Q15.087891000000013 23.242187999999999 15.087891000000013 20.458983999999987 Q15.087891000000013 15.966796999999985 17.919922000000042 12.402343999999971 C17.919922000000042 12.434895999999981 17.919922000000042 12.475586000000021 17.919922000000042 12.500000000000000 Q20.703125000000000 8.984375000000000 23.925781000000029 8.984375000000000 Q26.269531000000029 8.984375000000000 27.734375000000000 10.791016000000013 Q29.150391000000013 12.597656000000029 29.150391000000013 15.478516000000013 Q29.150391000000013 20.068358999999987 26.416016000000013 23.535156000000029 Q23.974608999999987 26.904296999999985 20.507812000000058 26.904296999999985 Q18.164062000000058 26.904296999999985 16.650391000000013 25.097656000000029 z" />
<glyph unicode="7" horiz-adv-x="43.554687999999999" d="M3.710938000000000 62.988281000000001 Q10.400391000000013 61.279296999999985 20.556641000000013 61.279296999999985 Q20.947266000000013 61.279296999999985 21.899413999999979 61.328125000000000 Q22.851562000000058 61.376953000000015 24.414062000000058 61.474608999999987 C26.546223666666720 61.588541333333353 29.211425749999989 61.730956750000018 30.810547000000042 61.816406000000029 Q34.814452999999958 61.962891000000013 42.578125000000000 63.574218999999971 Q24.511718999999971 26.806641000000013 24.511718999999971 6.250000000000000 Q24.511718999999971 5.322266000000013 24.511718999999971 4.589844000000028 Q24.511718999999971 3.857421999999985 24.560547000000042 3.222655999999972 C24.593099000000052 2.506510333333324 24.633788999999979 1.611328249999985 24.658202999999958 1.074219000000028 C23.681640499999958 0.964355749999982 21.728515499999958 0.744629250000003 20.751952999999958 0.634766000000013 C19.934081999999989 0.500488500000017 18.298340000000053 0.231933500000025 17.480468999999971 0.097655999999972 C16.223144749999960 -0.158691499999975 13.708496250000053 -0.671386499999983 12.451172000000042 -0.927733999999987 C11.560058750000053 -1.086425500000018 9.777832249999960 -1.403808500000025 8.886718999999971 -1.562500000000000 Q9.765625000000000 11.132812000000001 13.916016000000013 21.630858999999987 Q16.699218999999971 28.369141000000013 19.848632999999950 34.301758000000007 Q22.998047000000042 40.234375000000000 26.562500000000000 45.507812000000001 C24.951172000000042 45.345051666666677 22.937011999999982 45.141601250000008 21.728516000000013 45.019531000000029 Q20.019531000000029 44.824218999999971 18.188476499999979 44.726562500000000 Q16.357422000000042 44.628906000000029 14.306641000000013 44.628906000000029 Q5.566406000000029 44.628906000000029 3.417968999999971 45.751953000000015 Q0.976561999999944 47.070312000000001 0.976561999999944 52.441406000000029 Q0.976562000000058 56.933593999999971 2.392577999999958 62.207031000000029 C2.832031333333362 62.467447666666658 3.381348000000003 62.792968500000029 3.710938000000056 62.988281000000029 z" />
<glyph unicode="8" horiz-adv-x="42.041015999999999" d="M31.152343999999999 33.740234000000001 Q41.064452999999958 26.318358999999987 41.064452999999958 18.261718999999971 Q41.064452999999958 10.693358999999987 33.935547000000042 4.882812000000001 Q26.953125000000000 -0.781250000000000 17.822266000000013 -0.781250000000000 Q10.595702999999958 -0.781250000000000 5.712891000000013 3.222655999999972 Q0.976561999999944 7.177733999999987 0.976561999999944 13.574218999999971 Q0.976561999999944 18.017578000000015 4.296875000000000 22.949218999999971 Q7.177733999999987 27.001953000000015 11.035156000000029 29.589843999999971 Q1.806641000000013 35.058593999999971 1.806641000000013 44.531250000000000 Q1.806641000000013 52.441406000000029 7.958983999999987 57.812500000000000 Q14.062500000000000 63.183593999999971 23.095702999999958 63.183593999999971 Q30.224608999999987 63.183593999999971 35.205077999999958 58.935546999999985 Q40.185547000000042 54.589843999999971 40.185547000000042 48.388671999999985 Q40.185547000000042 43.457031000000029 37.841797000000042 39.892578000000015 Q35.742187999999942 36.865233999999987 31.152343999999971 33.740233999999987 zM24.658203000000000 37.451172000000000 C24.462890499999958 37.536621249999996 24.072265499999958 37.707519750000017 23.876952999999958 37.792968999999971 C23.754882749999979 37.646484499999985 23.510742250000021 37.353515500000015 23.388672000000042 37.207031000000029 C23.706054750000021 37.268066250000004 24.340820249999979 37.390136750000011 24.658202999999958 37.451171999999985 zM23.876953000000000 37.792968999999999 Q28.076172000000042 42.138671999999985 28.076172000000042 46.044921999999985 Q28.076172000000042 49.755858999999987 25.927733999999987 52.343750000000000 Q23.828125000000000 54.882812000000001 20.898437999999942 54.882812000000001 Q18.261718999999971 54.882812000000001 16.650391000000013 53.027343999999971 Q14.990233999999987 51.220703000000015 14.990233999999987 48.242187999999999 Q14.990233999999987 42.041016000000013 23.876952999999958 37.792968999999971 zM16.845703000000000 26.171875000000000 C17.016601499999979 26.098632749999979 17.358398500000021 25.952148249999993 17.529297000000042 25.878906000000029 C17.663574250000011 26.025390500000015 17.932128749999947 26.318359499999985 18.066406000000029 26.464843999999971 C17.761230250000040 26.391601750000007 17.150878749999947 26.245117250000021 16.845702999999958 26.171875000000000 zM17.529297000000000 25.878906000000001 Q14.013672000000042 21.484375000000000 14.013672000000042 16.748046999999985 Q14.013672000000042 12.890625000000000 16.308593999999971 10.009766000000013 Q18.652343999999971 7.275391000000013 21.630858999999987 7.275391000000013 Q24.169922000000042 7.275391000000013 26.171875000000000 9.277343999999971 Q28.027343999999971 11.279296999999985 28.027343999999971 14.111328000000015 Q28.027343999999971 21.826171999999985 17.529297000000042 25.878906000000029 z" />
<glyph unicode="9" horiz-adv-x="43.359375" d="M8.544922000000000 -0.292969000000000 Q4.687500000000000 5.517578000000015 3.759766000000013 17.871093999999971 Q10.546875000000000 11.425780999999972 15.820311999999944 11.425781000000029 Q22.167968999999971 11.425781000000029 26.416016000000013 16.992187999999999 Q30.078125000000000 22.167968999999971 31.054687999999942 29.931641000000013 Q23.974608999999987 25.146483999999987 16.406250000000000 25.146483999999987 Q9.716797000000042 25.146483999999987 5.322266000000013 29.833983999999987 Q0.976561999999944 34.472656000000029 0.976561999999944 41.552733999999987 Q0.976561999999944 50.732421999999985 6.738281000000029 56.787108999999987 Q12.548827999999958 63.037108999999987 20.898437999999942 63.037108999999987 Q30.468750000000000 63.037108999999987 36.425781000000029 55.126953000000015 Q42.382811999999944 47.558593999999971 42.382812000000058 35.351562000000001 Q42.382812000000058 27.685546999999985 39.746093999999971 20.605468999999971 Q36.718750000000000 13.183593999999971 32.519531000000029 8.886718999999971 Q24.951172000000042 1.318358999999987 9.667968999999971 -0.781250000000000 C9.293620000000033 -0.618489666666676 8.825683750000053 -0.415039250000007 8.544922000000042 -0.292969000000028 zM15.478516000000001 51.708984000000001 Q14.013672000000042 49.853516000000013 14.013672000000042 47.119141000000013 Q14.013672000000042 42.138671999999985 16.650391000000013 38.720703000000015 C16.650391000000013 38.736979000000019 16.650391000000013 38.757323999999983 16.650391000000013 38.769531000000029 Q19.335937999999942 35.498046999999985 22.851562000000058 35.498046999999985 Q25.292968999999971 35.498046999999985 26.757812000000058 37.255858999999987 Q28.222656000000029 39.013671999999985 28.222656000000029 41.943358999999987 Q28.222656000000029 46.533203000000015 25.439452999999958 50.146483999999987 Q22.802733999999987 53.515625000000000 19.287108999999987 53.515625000000000 Q16.943358999999987 53.515625000000000 15.478516000000013 51.708983999999987 z" />
<glyph unicode=":" horiz-adv-x="16.259765999999999" d="M1.171875000000000 28.125000000000000 Q1.171875000000000 29.541016000000013 1.708984500000042 30.786133000000007 Q2.246093999999971 32.031250000000000 3.173827999999958 32.958983999999987 Q4.101561999999944 33.886718999999971 5.346679500000050 34.423828500000013 Q6.591797000000042 34.960937999999999 8.007811999999944 34.960937999999999 Q9.423827999999958 34.960937999999999 10.668945000000008 34.423828500000013 Q11.914061999999944 33.886718999999971 12.841797000000042 32.958983999999987 Q13.769531000000029 32.031250000000000 14.306640499999958 30.786133000000007 Q14.843750000000000 29.541016000000013 14.843750000000000 28.125000000000000 Q14.843750000000000 26.708983999999987 14.306640499999958 25.463866999999993 Q13.769531000000029 24.218750000000000 12.841797000000042 23.291016000000013 Q11.914061999999944 22.363281000000029 10.668945000000008 21.826171499999987 Q9.423827999999958 21.289062000000001 8.007811999999944 21.289062000000001 Q6.591797000000042 21.289062000000001 5.346679500000050 21.826171499999987 Q4.101561999999944 22.363281000000029 3.173827999999958 23.291016000000013 Q2.246093999999971 24.218750000000000 1.708984500000042 25.463866999999993 Q1.171875000000000 26.708983999999987 1.171875000000000 28.125000000000000 zM1.171875000000000 6.640625000000000 Q1.171875000000000 8.056641000000013 1.708984500000042 9.301758000000007 Q2.246093999999971 10.546875000000000 3.173827999999958 11.474608999999987 Q4.101561999999944 12.402343999999971 5.346679500000050 12.939453000000015 Q6.591797000000042 13.476562000000001 8.007811999999944 13.476562000000001 Q9.423827999999958 13.476562000000001 10.668945000000008 12.939453000000015 Q11.914061999999944 12.402343999999971 12.841797000000042 11.474608999999987 Q13.769531000000029 10.546875000000000 14.306640499999958 9.301758000000007 Q14.843750000000000 8.056641000000013 14.843750000000000 6.640625000000000 Q14.843750000000000 5.224608999999987 14.306640499999958 3.979491999999993 Q13.769531000000029 2.734375000000000 12.841797000000042 1.806641000000013 Q11.914061999999944 0.878905999999972 10.668945000000008 0.341796999999985 Q9.423827999999958 -0.195312000000001 8.007811999999944 -0.195312000000001 Q6.591797000000042 -0.195312000000001 5.346679500000050 0.341796999999985 Q4.101562000000058 0.878905999999972 3.173827999999958 1.806641000000013 Q2.246093999999971 2.734375000000000 1.708984500000042 3.979491999999993 Q1.171875000000000 5.224608999999987 1.171875000000000 6.640625000000000 z" />
<glyph unicode=";" horiz-adv-x="21.191406000000001" d="M5.908203000000000 10.595703000000000 Q8.593750000000000 14.794921999999985 12.500000000000000 14.013671999999985 Q16.406250000000000 13.232421999999985 17.578125000000000 9.619141000000013 Q18.359375000000000 7.031250000000000 18.212891000000013 2.392578000000015 Q17.333983999999987 -1.611328000000015 15.576172000000042 -3.076171999999985 Q13.769531000000029 -5.273437999999999 10.888672000000042 -3.515625000000000 Q12.207031000000029 -2.832031000000029 12.402343999999971 -1.318358999999987 Q12.402343999999971 -1.220703000000015 12.695311999999944 0.097655999999972 Q8.300781000000029 0.878905999999972 6.884766000000013 4.785155999999972 Q6.201172000000042 6.689453000000015 5.908202999999958 10.595703000000015 zM2.978516000000000 33.105468999999999 Q5.761718999999971 37.304687999999999 9.667968999999971 36.523437999999999 Q13.574218999999971 35.742187999999999 14.599608999999987 32.275391000000013 Q16.162108999999987 27.343750000000000 14.404297000000042 22.705078000000015 Q4.150391000000013 21.337891000000013 3.320311999999944 29.785156000000029 C3.206379999999967 30.891927000000010 3.063965000000053 32.275390749999985 2.978516000000013 33.105468999999971 z" />
<glyph unicode="&#x3c;" horiz-adv-x="26.855468999999999" d="M5.322266000000000 23.095703000000000 Q9.082031000000029 17.431641000000013 24.121093999999971 8.593750000000000 Q23.730468999999971 2.197266000000013 18.164062000000058 4.882812000000001 Q12.939452999999958 7.128905999999972 7.958984500000042 13.964843500000029 Q2.978516000000013 20.800781000000029 3.222656000000029 25.097656000000029 Q7.958983999999987 25.292969000000028 12.158202999999958 27.197265500000015 Q16.357422000000042 29.101562000000001 16.162108999999987 31.005858999999987 Q20.751952999999958 25.683593999999971 19.824218999999971 22.216796999999985 Q18.603516000000013 19.335937999999999 14.062500000000000 19.287108999999987 Q9.277343999999971 19.482421999999985 5.322266000000013 23.095703000000015 z" />
<glyph unicode="=" horiz-adv-x="27.197265999999999" d="M18.652343999999999 18.603515999999999 Q22.167968999999971 18.603516000000013 24.853515499999958 17.480468999999971 Q27.539062000000058 16.357421999999985 25.732422000000042 13.623046999999985 Q19.042968999999971 12.841796999999985 14.941406000000029 13.085937999999999 Q10.742188000000056 13.085937999999999 8.837891000000013 14.404296999999985 Q7.812500000000000 14.746093999999971 7.617187500000000 15.820312500000000 Q7.421875000000000 16.894531000000029 8.740233999999987 18.310546999999985 C9.944661333333329 18.343098999999995 11.450195499999950 18.383788999999979 12.353516000000013 18.408203000000015 Q15.136718999999971 18.603516000000013 18.652343999999971 18.603516000000013 zM6.347656000000000 25.000000000000000 C8.349609249999958 25.097656250000000 12.353515750000042 25.292968750000000 14.355468999999971 25.390625000000000 Q19.775391000000013 25.390625000000000 22.167968999999971 24.511718999999971 Q25.146483999999987 22.998046999999985 23.339843999999971 20.312500000000000 Q10.107422000000042 18.750000000000000 6.542968999999971 21.093750000000000 Q4.101561999999944 22.363281000000029 6.347656000000029 25.000000000000000 z" />
<glyph unicode="&#x3e;" horiz-adv-x="26.953125" d="M2.978516000000000 26.318359000000001 Q3.564452999999958 32.519531000000029 9.082031000000029 30.078125000000000 Q14.453125000000000 27.441405999999972 19.238281000000029 20.751953000000015 Q24.072266000000013 14.013671999999985 24.023437999999942 9.716796999999985 Q19.628906000000029 9.716796999999985 15.234375000000000 7.666015500000015 Q10.839843999999971 5.615233999999987 11.083983999999987 3.906250000000000 Q6.103516000000013 9.326171999999985 7.519531000000029 12.597656000000029 Q8.593750000000000 15.673828000000015 13.085937500000000 15.576171999999985 Q17.578125000000000 15.478516000000013 21.777343999999971 11.816406000000029 Q18.847656000000029 16.406250000000000 6.738281000000029 23.925781000000029 Q3.857422000000042 25.732421999999985 2.978516000000013 26.318358999999987 z" />
<glyph unicode="?" horiz-adv-x="42.871093999999999" d="M16.748047000000000 4.882812000000000 C16.674804750000021 5.737304250000022 16.528320249999979 7.446288750000008 16.455077999999958 8.300781000000029 Q19.238281000000029 12.402344000000028 23.291016000000013 11.718750000000000 Q26.806641000000013 10.937500000000000 28.076172000000042 7.324219000000028 Q29.199218999999971 3.710937999999999 28.662108999999987 0.781250000000000 Q28.564452999999958 0.097655999999972 27.880858999999987 -2.099608999999987 Q23.681641000000013 -2.783203000000015 21.191406000000029 -1.708983999999987 Q17.285156000000029 0.097655999999972 16.748047000000042 4.882812000000001 zM20.947265999999999 18.408203000000000 Q20.751952999999958 23.291016000000013 24.072266000000013 33.984375000000000 Q27.685547000000042 44.238281000000029 27.783202999999958 47.363281000000029 Q27.880858999999987 50.488281000000029 26.367187999999942 52.099608999999987 Q24.804687999999942 53.710937999999999 20.800781499999971 54.003906499999971 Q16.796875000000000 54.296875000000000 15.917968999999971 49.755858999999987 Q14.648438000000056 42.968750000000000 18.359375000000000 36.621093999999971 Q19.335937999999942 35.107421999999985 20.263672000000042 35.009766000000013 Q15.234375000000000 30.224608999999987 10.644531000000029 32.470703000000015 Q6.054688000000056 34.667968999999971 4.687500000000000 40.527343999999971 Q3.320312000000058 46.386718999999971 6.884766000000013 50.683593999999971 Q11.376952999999958 55.859375000000000 20.214843500000029 55.859375000000000 Q29.052733999999987 55.859375000000000 35.791016000000013 51.416016000000013 Q42.578125000000000 46.679687999999999 40.966797000000042 40.527343999999971 Q39.355468999999971 34.375000000000000 31.884766000000013 28.320312000000001 Q31.640625000000000 28.222656000000029 30.664062500000000 27.246093500000029 Q29.687500000000000 26.269531000000029 29.199218999999971 25.927733999999987 Q28.710937999999942 25.537108999999987 27.148437999999942 23.779296499999987 Q25.585937999999942 22.021483999999987 24.707031000000029 20.410156000000029 Q23.828125000000000 18.798828000000015 23.535156000000029 17.236328000000015 Q23.291016000000013 15.673828000000015 22.851562000000058 15.576171999999985 Q21.972656000000029 14.892578000000015 21.289062000000058 16.796875000000000 Q20.849608999999987 17.529296999999985 20.947266000000013 18.408203000000015 z" />
<glyph unicode="@" horiz-adv-x="53.564453" d="M28.320312000000001 7.910156000000000 Q29.199218999999971 7.910155999999972 29.443359500000042 9.375000000000000 Q29.687500000000000 10.839843999999971 29.394531000000029 16.308593999999971 Q28.906250000000000 20.996093999999971 29.394531000000029 25.000000000000000 Q29.394531000000029 27.001953000000015 30.175781000000029 28.320312000000001 Q26.660156000000029 28.320312000000001 25.390625000000000 23.095703000000015 Q24.267577999999958 15.869141000000013 27.099608999999987 9.521483999999987 Q27.783202999999958 7.910155999999972 28.320312000000058 7.910155999999972 zM39.501953000000000 4.296875000000000 Q37.011718999999971 4.296875000000000 35.302733999999987 6.396483999999987 Q32.568358999999987 9.130858999999987 31.591797000000042 17.285156000000029 Q31.201172000000042 17.285156000000029 31.445312500000000 14.892578000000015 Q31.689452999999958 12.500000000000000 31.591797000000042 10.791016000000013 Q31.591797000000042 6.689453000000015 29.980468999999971 5.175780999999972 Q29.101562000000058 4.296875000000000 27.099608999999987 4.296875000000000 Q21.093750000000000 4.296875000000000 17.382812000000058 9.814453000000015 Q13.671875000000000 14.794921999999985 13.916016000000013 21.191406000000029 Q13.916016000000013 27.685546999999985 18.310547000000042 30.712890500000015 Q22.705077999999958 33.740233999999987 31.103516000000013 29.785156000000029 Q33.496093999999971 34.472656000000029 40.185547000000042 29.492187999999999 Q39.990233999999987 28.173828000000015 40.527343500000029 23.535156000000029 Q41.064452999999958 18.896483999999987 41.992187999999942 15.087891000000013 Q43.505858999999987 10.107421999999985 44.921875000000000 8.789062000000001 Q47.509766000000013 10.205078000000015 47.705078500000013 16.796875000000000 Q47.900391000000013 23.388671999999985 43.359375000000000 29.443358999999987 Q38.818358999999987 35.498046999999985 29.003906000000029 36.621093999999971 Q16.992188000000056 38.037108999999987 12.207031000000029 31.005858999999987 Q8.203125000000000 24.804687999999999 10.742187500000000 15.625000000000000 Q13.281250000000000 6.445312000000001 20.214843999999971 1.757812000000001 Q27.148437999999942 -2.978516000000013 34.179687999999942 2.001953000000015 Q34.765625000000000 0.585937999999999 34.326172000000042 -1.757812000000001 Q33.886718999999971 -4.101562000000001 32.519531000000029 -5.908203000000015 Q28.515625000000000 -10.498046999999985 21.484375000000000 -8.300781000000029 Q12.988281000000029 -5.712891000000013 8.007812500000000 2.148437500000000 Q3.027343999999971 10.009766000000013 2.978516000000013 18.798828000000015 Q3.173827999999958 27.978516000000013 9.130859500000042 33.837891000000013 Q15.087891000000013 39.697266000000013 26.806641000000013 39.111328000000015 Q37.011718999999971 38.720702999999958 43.603516000000013 33.105468999999971 Q49.169922000000042 28.076171999999985 50.341797000000042 21.337890500000015 Q51.513672000000042 14.599608999999987 48.583983999999987 9.521483999999987 Q45.361327999999958 4.345703000000015 39.599608999999987 4.296875000000000 C39.567056999999977 4.296875000000000 39.526367000000050 4.296875000000000 39.501952999999958 4.296875000000000 z" />
<glyph unicode="A" horiz-adv-x="54.492187999999999" d="M16.357422000000000 6.591797000000000 Q18.750000000000000 6.591796999999985 19.531250000000000 10.888671999999985 Q20.312500000000000 13.769531000000029 20.849608999999987 21.289062000000001 C20.345052000000010 21.565755000000024 19.714355749999982 21.911621249999996 19.335937999999942 22.119141000000013 Q15.332031000000029 23.437500000000000 13.720702999999958 19.482421999999985 Q12.207031000000029 15.380858999999987 13.134766000000013 11.279296999999985 Q13.427733999999987 9.277343999999971 14.306640499999958 7.910156499999971 Q15.185547000000042 6.542968999999971 16.357422000000042 6.591796999999985 zM22.558593999999999 22.412109000000001 Q27.050781000000029 20.507812000000001 29.541016000000013 18.408203000000015 Q26.660156000000029 29.296875000000000 25.439452999999958 42.822266000000013 Q23.291016000000013 42.822266000000013 22.851562000000058 29.882812000000001 Q22.851562000000058 26.318358999999987 22.558593999999971 22.412108999999987 zM13.232422000000000 -0.195312000000000 Q7.568358999999987 -0.195312000000001 4.345702999999958 4.492187999999999 Q1.123047000000042 9.179687999999999 1.660156000000029 14.404296999999985 Q1.953125000000000 20.410156000000029 6.347656000000029 22.900391000000013 Q11.230468999999971 25.878906000000029 19.628906000000029 23.388671999999985 C20.035806999999977 23.258463666666671 20.544433249999997 23.095703249999985 20.849608999999987 22.998046999999985 Q21.533202999999958 36.083983999999987 22.314452999999958 40.380858999999987 Q24.023437999999942 49.658203000000015 28.320312000000058 52.783203000000015 Q33.740233999999987 56.494141000000013 43.359375000000000 51.318358999999987 Q40.283202999999958 51.318358999999987 39.257812000000058 43.017578000000015 Q38.476561999999944 34.912108999999987 40.136718999999971 25.585937999999999 Q41.455077999999958 16.015625000000000 45.361327999999958 10.937500000000000 Q49.267577999999958 5.859375000000000 54.150391000000013 11.181641000000013 Q48.339843999999971 0.390625000000000 42.626952999999958 -0.097655999999972 Q37.646483999999987 -0.390625000000000 33.544922000000042 7.617187999999999 Q32.421875000000000 4.394531000000029 29.931641000000013 2.490233999999987 Q27.539062000000058 0.390625000000000 25.146483999999987 0.585937999999999 Q27.832031000000029 2.294921999999985 26.953125000000000 9.277343999999971 Q26.464843999999971 16.162108999999987 22.314452999999958 20.117187999999999 Q21.630858999999987 10.937500000000000 19.921875000000000 6.103516000000013 Q17.626952999999958 -0.195312000000001 13.232422000000042 -0.195312000000001 z" />
<glyph unicode="B" horiz-adv-x="54.785156000000001" d="M33.789062000000001 -2.880859000000000 Q20.800781000000029 -2.880858999999987 12.597656000000029 2.783203000000015 Q6.005858999999987 7.421875000000000 4.443358999999987 13.867187500000000 Q2.880858999999987 20.312500000000000 6.787108999999987 22.900391000000013 Q10.986327999999958 25.488281000000029 18.164062000000058 20.703125000000000 Q16.357422000000042 17.382812000000001 16.796875000000000 12.304687999999999 Q17.089843999999971 6.298828000000015 21.630859500000042 2.392578000000015 Q26.171875000000000 -1.513671999999985 35.595702999999958 -0.683594000000028 Q40.087891000000013 -0.097656000000029 41.064452999999958 6.103516000000013 Q41.748047000000042 12.109375000000000 38.964843999999971 18.359375000000000 Q36.181641000000013 24.609375000000000 31.494141000000013 25.878906000000029 Q33.691406000000029 15.478516000000013 33.984375000000000 11.083983999999987 Q34.472656000000029 4.003905999999972 31.787108999999987 2.001953000000015 Q30.273437999999942 0.683594000000028 26.855468999999971 1.269531500000028 Q23.437500000000000 1.855469000000028 20.751952999999958 4.492187999999999 Q21.972656000000029 4.980469000000028 21.826172000000042 7.958984499999985 Q21.679687999999942 10.937500000000000 19.482422000000042 22.314453000000015 Q17.285156000000029 32.617187999999999 17.285156000000029 40.234375000000000 Q17.285156000000029 47.851562000000001 22.851562000000058 48.486328000000015 Q25.781250000000000 48.974608999999987 30.859375000000000 46.386718999999971 Q28.369141000000013 45.996093999999971 28.857422000000042 40.185546999999985 Q29.150391000000013 36.767578000000015 31.152343999999971 27.099608999999987 Q35.742187999999942 28.222656000000029 36.279297000000042 33.789062000000001 Q37.060547000000042 39.160156000000029 34.033202999999958 44.531250000000000 Q31.005858999999987 49.902343999999971 25.781250000000000 50.488281000000029 Q17.968750000000000 51.269531000000029 14.550781000000029 46.679687999999999 Q11.767577999999958 42.968750000000000 12.890625000000000 37.109375000000000 Q14.013672000000042 31.250000000000000 16.796875000000000 28.515625000000000 Q12.402343999999971 24.023437999999999 7.910156499999971 26.562500000000000 Q3.417968999999971 29.101562000000001 2.246093999999971 35.351562000000001 Q1.171875000000000 41.601562000000001 5.371093999999971 46.093750000000000 Q10.546875000000000 51.806641000000013 22.998047000000042 52.587891000000013 Q35.449218999999971 53.369141000000013 43.359375000000000 47.509766000000013 Q50.048827999999958 42.529296999999985 49.560547000000042 35.498046999999985 Q48.779297000000042 28.613280999999972 40.771483999999987 26.513671999999985 Q49.755858999999987 24.316406000000029 53.564452999999958 16.894531000000029 Q57.080077999999958 9.472655999999972 52.197266000000013 3.710937999999999 Q46.777343999999971 -2.880858999999987 33.789062000000058 -2.880858999999987 z" />
<glyph unicode="C" horiz-adv-x="42.96875" d="M36.083984000000001 50.585937999999999 Q35.058593999999971 50.390625000000000 36.767577999999958 41.699218999999971 Q38.525391000000013 33.007812000000001 38.037109500000042 28.222656000000029 Q37.548827999999958 23.437500000000000 33.886718999999971 22.119141000000013 Q31.591797000000042 21.533203000000015 28.173827999999958 22.509766000000013 Q27.490233999999987 24.609375000000000 27.099608999999987 27.099608999999987 Q26.806641000000013 28.076171999999985 26.367187999999942 29.980468999999971 Q25.976562000000058 31.884766000000013 25.781250000000000 32.812500000000000 C25.390625000000000 34.781901000000005 24.902343750000000 37.243652249999968 24.609375000000000 38.720703000000015 Q23.291016000000013 44.921875000000000 21.875000000000000 47.900391000000013 Q21.093750000000000 49.316406000000029 20.263672000000042 49.316406000000029 Q19.433593999999971 49.316406000000029 18.798827999999958 47.509766000000013 Q17.675781000000029 43.603516000000013 18.017577999999958 35.986328000000015 Q18.408202999999958 28.417968999999971 20.361327999999958 20.117187500000000 Q22.314452999999958 11.816406000000029 25.585937999999942 6.884766000000013 Q28.906250000000000 2.197266000000013 33.789062000000058 2.392578000000015 Q37.597656000000029 2.490233999999987 40.185547000000042 5.322266000000013 Q42.675781000000029 7.812500000000000 43.408202999999958 10.693358999999987 Q43.603516000000013 12.500000000000000 43.408202999999958 13.085937999999999 Q44.775391000000013 11.669921999999985 44.482422000000042 9.326171999999985 Q44.189452999999958 6.982421999999985 42.480468999999971 4.687500000000000 Q38.281250000000000 -1.025391000000013 30.371093999999971 -0.976562000000001 Q21.044922000000042 -0.976562000000001 14.013672000000042 7.226562999999999 Q6.982422000000042 15.429687999999999 4.589843999999971 26.220703000000015 Q2.099608999999987 37.011718999999971 4.980468999999971 44.921875000000000 Q8.593750000000000 53.417968999999971 16.992187999999942 53.417968999999971 Q20.996093999999971 53.417968999999971 23.486327999999958 48.779296999999985 Q25.195312000000058 44.775391000000013 26.074218999999971 39.794921999999985 Q26.367187999999942 38.916016000000013 26.855468999999971 36.572266000000013 Q27.343750000000000 34.228516000000013 28.076172000000042 33.691406000000029 C27.685547000000042 36.490885333333324 27.197265750000042 39.990234499999985 26.904297000000042 42.089843999999971 Q25.488281000000029 50.585937999999999 29.199218999999971 51.806641000000013 Q31.103516000000013 52.490233999999987 36.083983999999987 50.585937999999999 z" />
<glyph unicode="D" horiz-adv-x="56.152343999999999" d="M17.382812000000001 39.697265999999999 Q17.382812000000058 47.802733999999987 22.949218999999971 48.486328000000015 Q25.781250000000000 48.876953000000015 30.859375000000000 46.386718999999971 Q27.880858999999987 45.898437999999999 29.589843999999971 35.595703000000015 Q31.298827999999958 27.197266000000013 31.591797000000042 25.781250000000000 Q34.277343999999971 14.062500000000000 33.984375000000000 7.080078000000015 Q33.984375000000000 3.662108999999987 31.982422000000042 2.001953000000015 Q30.175781000000029 0.781250000000000 26.855468500000029 1.269530999999972 Q23.535156000000029 1.757812000000001 20.751952999999958 4.492187999999999 Q21.875000000000000 4.980469000000028 21.826172000000042 8.203125000000000 Q21.777343999999971 11.425781000000029 19.580077999999958 22.216796999999985 Q17.382812000000058 33.007812000000001 17.382812000000058 39.697266000000013 zM33.496093999999999 -2.880859000000000 Q20.898437999999942 -2.880858999999987 12.695311999999944 2.783203000000015 Q6.103516000000013 7.421875000000000 4.541016000000013 13.867187500000000 Q2.978516000000013 20.312500000000000 6.884766000000013 22.900391000000013 Q11.181641000000013 25.585937999999999 18.359375000000000 20.703125000000000 Q16.455077999999958 17.822266000000013 16.357422000000042 12.548828500000013 Q16.259766000000013 7.275391000000013 19.970702999999958 3.613280999999972 Q24.462891000000013 -0.878905999999972 32.958983999999987 -0.878905999999972 Q38.574218999999971 -0.878905999999972 40.576172000000042 7.177733999999987 Q42.773437999999942 14.501953000000015 41.650391000000013 25.000000000000000 Q40.234375000000000 35.791016000000013 36.474608999999987 42.822266000000013 Q31.884766000000013 50.830077999999901 25.585937999999942 50.781250000000000 Q17.675781000000029 50.781250000000000 14.550781000000029 46.191406000000029 Q11.914061999999944 42.675781000000029 12.988281000000029 36.914062500000000 Q14.062500000000000 31.152343999999971 16.894531000000029 28.515625000000000 Q12.597656000000029 24.023437999999999 8.105468500000029 26.513671999999985 Q3.613281000000029 29.003906000000029 2.441406000000029 35.302733999999987 Q1.269531000000029 41.601562000000001 5.371093999999971 46.093750000000000 Q10.595702999999958 51.806640999999956 21.972656000000029 52.490233999999987 Q35.888672000000042 53.271483999999987 45.458983999999987 44.921875000000000 Q53.955077999999958 37.304687999999999 55.908202999999958 25.781250000000000 Q57.812500000000000 14.257812000000001 51.953125000000000 5.664062000000001 Q46.093750000000000 -2.929687999999999 33.496093999999971 -2.880858999999987 z" />
<glyph unicode="E" horiz-adv-x="58.886718999999999" d="M12.890625000000000 5.712891000000000 Q12.988281000000029 10.693358999999987 19.384766000000013 10.986328000000015 Q23.193358999999987 11.083983999999987 33.789062500000000 8.544921499999987 Q44.384766000000013 6.005858999999987 47.900391000000013 5.615233999999987 Q54.589843999999971 4.833983999999987 55.761718999999971 8.203125000000000 Q57.275391000000013 -3.320312000000001 51.464843999999971 -4.980469000000028 Q46.972656000000029 -6.591796999999985 37.060547000000042 -2.294921999999985 Q32.812500000000000 -0.585937999999999 25.878906000000029 2.832030999999972 Q18.945312000000058 6.250000000000000 15.576172000000042 6.884766000000013 Q13.183593999999971 7.226562000000001 12.890625000000000 5.712891000000013 zM33.007812000000001 46.386718999999999 Q30.712891000000013 46.093750000000000 30.859375000000000 39.794921999999985 Q31.250000000000000 37.597656000000029 31.494141000000013 34.960937999999999 Q31.787108999999987 32.275391000000013 32.031250000000000 29.980468999999971 Q32.275391000000013 27.685546999999985 32.373047000000042 26.416016000000013 Q34.765625000000000 32.714843999999971 43.164062000000058 29.785156000000029 Q46.386718999999971 29.003906000000029 46.972656000000029 29.589843999999971 Q46.875000000000000 21.875000000000000 43.896483999999987 20.410156000000029 Q41.699218999999971 19.189453000000015 37.695312000000058 21.093750000000000 Q34.912108999999987 22.656250000000000 33.886718500000029 23.242187500000000 Q32.861327999999958 23.828125000000000 32.470702999999958 23.876953000000015 Q32.275391000000013 16.552733999999987 30.468750000000000 14.013671999999985 Q27.783202999999958 10.107421999999985 21.289062000000058 11.523437999999999 Q22.412108999999987 11.621093999999971 22.705077999999958 13.720703000000015 Q22.802733999999987 16.210937999999999 20.898437999999942 26.416016000000013 Q18.994141000000013 34.619141000000013 19.189453500000013 41.503906499999971 Q19.384766000000013 48.388671999999985 25.000000000000000 48.779296999999985 Q28.222656000000029 48.779296999999985 33.007812000000058 46.386718999999971 zM26.269531000000001 50.781250000000000 Q19.482422000000042 50.781250000000000 16.162109500000042 46.240234499999985 Q12.841797000000042 41.699218999999971 13.818358999999987 36.230468999999971 Q14.794922000000042 30.761718999999971 19.287108999999987 28.515625000000000 Q12.792968999999971 25.195312000000001 7.617187500000000 28.613281000000029 Q2.441406000000029 32.031250000000000 1.757811999999944 38.281250000000000 Q1.074218999999971 44.531250000000000 7.128906000000029 49.121093999999971 Q13.183593999999971 53.662108999999987 26.269531000000029 52.783203000000015 Q29.980468999999971 52.636718999999971 40.136718999999971 51.562500000000000 Q50.292968999999971 50.488281000000029 54.003906000000029 50.732421999999985 Q57.714843999999971 50.976562000000001 58.593750000000000 52.197266000000013 Q56.396483999999987 42.285155999999972 50.097656000000029 41.796875000000000 Q45.800781000000029 41.699218999999971 37.744140499999958 46.240234499999985 Q29.687500000000000 50.781250000000000 26.269531000000029 50.781250000000000 z" />
<glyph unicode="F" horiz-adv-x="61.572265999999999" d="M33.007812000000001 46.386718999999999 Q30.517577999999958 45.996093999999971 31.103516000000013 40.478516000000013 Q31.298827999999958 36.572266000000013 33.203125000000000 27.783203000000015 Q35.498047000000042 29.638671999999985 41.308593999999971 28.564453000000015 Q42.675781000000029 28.320312000000001 45.019531000000029 27.832031000000029 Q49.853516000000013 26.855468999999971 50.781250000000000 28.417968999999971 Q50.097656000000029 20.410156000000029 46.875000000000000 18.798828000000015 Q44.335937999999942 17.675781000000029 41.113281499999971 19.531250000000000 Q37.890625000000000 21.386718999999971 36.816406000000029 22.167968999999971 Q35.742187999999942 22.998046999999985 34.082031000000029 23.779296999999985 Q36.279297000000042 13.281250000000000 36.669922000000042 8.789062000000001 Q37.353516000000013 1.464843999999971 34.667968999999971 -0.292969000000028 Q33.105468999999971 -1.611328000000015 29.687500000000000 -1.074218499999972 Q26.269531000000029 -0.537108999999987 23.583983999999987 2.294921999999985 Q24.902343999999971 2.587891000000013 24.707031499999971 6.005859499999985 Q24.511718999999971 9.423828000000015 21.972656000000029 20.703125000000000 Q19.677733999999987 31.982421999999985 19.677733999999987 38.916016000000013 Q19.482422000000042 47.607421999999985 25.000000000000000 48.486328000000015 Q27.832031000000029 48.876953000000015 33.007812000000058 46.386718999999971 zM26.171875000000000 50.781250000000000 Q19.482422000000042 50.781250000000000 15.966797000000042 46.093750000000000 Q12.890625000000000 41.503906000000029 13.867187500000000 36.132812500000000 Q14.843750000000000 30.761718999999971 19.287108999999987 28.515625000000000 Q12.792968999999971 25.195312000000001 7.519531499999971 28.613281000000029 Q2.246093999999971 32.031250000000000 1.611327999999958 38.281250000000000 Q1.025391000000013 44.531250000000000 6.494141000000013 48.779296999999985 Q13.183593999999971 53.759766000000013 26.171875000000000 52.783203000000015 Q29.394531000000029 52.636718999999971 40.527343500000029 51.562500000000000 Q51.660156000000029 50.488280999999972 56.005858999999987 50.732421999999985 Q60.302733999999987 50.976562000000001 61.181641000000013 52.197266000000013 Q61.279297000000042 43.603516000000013 57.177733999999987 41.210937999999999 Q53.955077999999958 39.501953000000015 47.509766000000013 41.894531000000029 Q45.898437999999942 42.480468999999971 41.601562000000058 44.482421999999985 Q33.398437999999942 48.632812000000001 30.761718999999971 49.707031000000029 Q28.125000000000000 50.781250000000000 26.171875000000000 50.781250000000000 z" />
<glyph unicode="G" horiz-adv-x="38.476562000000001" d="M22.509765999999999 16.406250000000000 Q14.208983999999987 16.406250000000000 8.447266000000013 22.412108999999987 Q2.734375000000000 28.417969000000028 2.343750000000000 35.400391000000013 Q1.220702999999958 42.919921999999985 5.712891000000013 47.900391000000013 Q10.595702999999958 53.515625000000000 20.507812000000058 52.587891000000013 Q30.615233999999987 51.904296999999985 36.035156000000029 45.996093999999971 Q38.134766000000013 43.505858999999987 38.476562500000000 40.966796499999987 Q38.818358999999987 38.427733999999987 37.304687999999942 36.718750000000000 Q33.593750000000000 32.714843999999971 24.121093999999971 35.888671999999985 Q25.634766000000013 36.718750000000000 26.123047000000042 40.527343999999971 Q26.611327999999958 44.335937999999999 25.537108999999987 47.460937999999999 Q24.462891000000013 50.585937999999999 21.777343999999971 50.585937999999999 Q19.140625000000000 50.585937999999999 17.138672000000042 46.093750000000000 Q15.429687999999942 41.894531000000029 15.332031499999971 36.035156000000029 Q15.234375000000000 30.175781000000029 17.089843999999971 25.097656000000029 Q19.433593999999971 18.749999999999943 24.804687999999942 18.798828000000015 Q24.609375000000000 25.488281000000029 26.708983999999987 28.076171999999985 Q29.199218999999971 31.396483999999987 36.816406000000029 29.687500000000000 Q35.693358999999987 28.564453000000015 36.914062000000058 22.412108999999987 Q37.207031000000029 19.287108999999987 37.841797000000042 16.406250000000000 Q39.257812000000058 8.984375000000000 38.037108999999987 2.392578000000015 Q36.816406000000029 -4.199219000000028 30.517577999999958 -6.982421999999985 Q27.099608999999987 -8.593750000000000 22.558593500000029 -8.837890500000015 Q18.017577999999958 -9.082031000000029 14.941406000000029 -7.714844000000028 Q8.837891000000013 -5.126953000000015 6.103516000000013 0.585937500000000 Q3.369141000000013 6.298828000000015 4.736327999999958 10.986328000000015 Q6.152343999999971 15.673828000000015 12.207031000000029 15.722656000000029 Q15.185547000000042 15.722656000000029 19.726562000000058 13.720703000000015 Q16.406250000000000 12.841796999999985 15.917968999999971 6.982421999999985 Q15.234375000000000 1.660156000000029 16.943358999999987 -2.685546999999985 Q18.847656000000029 -7.812500000000000 21.533202999999958 -7.421875000000000 Q26.611327999999958 -6.738281000000029 26.806641000000013 1.220703000000015 Q26.806641000000013 4.833983999999987 26.025391000000013 9.863281000000029 Q25.244141000000013 14.892578000000015 25.146483999999987 16.503906000000029 Q24.365233999999987 16.406250000000000 22.509766000000013 16.406250000000000 z" />
<glyph unicode="H" horiz-adv-x="51.953125" d="M16.650390999999999 7.519531000000000 Q19.531250000000000 7.519530999999972 19.335937999999942 12.890625000000000 Q19.531250000000000 17.773437999999999 16.845702999999958 25.781250000000000 Q13.037108999999987 26.904296999999985 12.158202999999958 22.119141000000013 Q11.376952999999958 18.603516000000013 12.744141000000013 12.792968999999971 Q14.355468999999971 7.519530999999972 16.650391000000013 7.519530999999972 zM40.820312000000001 19.824218999999999 Q43.896483999999987 8.300781000000029 48.193358999999987 8.300781000000029 Q49.755858999999987 8.300781000000029 51.220702999999958 10.302733999999987 Q48.828125000000000 4.394530999999972 44.921875000000000 1.513671999999985 Q43.115233999999987 -0.195312000000001 39.990233999999987 -0.195312000000001 Q36.865233999999987 -0.195312000000001 33.447266000000013 6.347655999999972 Q30.029297000000042 12.890625000000000 28.320312000000058 21.679687999999999 Q25.537108999999987 22.558593999999971 21.044922000000042 24.218750000000000 Q21.728516000000013 12.402343999999971 20.849608999999987 7.324219000000028 Q19.677733999999987 -0.195312000000001 14.404296499999987 -0.195312000000001 Q9.130858999999987 -0.195312000000001 5.322266000000013 5.078125000000000 Q1.513672000000042 10.058593999999971 1.269531499999971 16.503906499999971 Q1.025391000000013 22.949218999999971 4.345702999999958 25.976562000000001 Q8.544922000000042 29.882812000000001 16.259766000000013 27.392578000000015 C15.852864666666619 28.401692666666690 15.344238000000018 29.663086000000021 15.039061999999944 30.419921999999985 Q9.423827999999958 43.798828000000015 10.449218999999971 49.707031000000029 Q11.767577999999958 56.884766000000013 23.828125000000000 51.513671999999985 Q21.533202999999958 47.216796999999985 21.093750000000000 39.501953000000015 Q20.654297000000042 31.787108999999987 21.044922000000042 25.878906000000029 Q24.658202999999958 25.000000000000000 27.832031000000029 24.902343999999971 Q25.927733999999987 36.523437999999999 27.734375000000000 44.384766000000013 Q29.541016000000013 53.320312000000001 35.839843999999971 53.320312000000001 Q38.281250000000000 53.320312000000001 44.140625000000000 50.683593999999971 Q40.429687999999942 50.390625000000000 39.355468999999971 43.457031499999971 Q38.281250000000000 36.523437999999999 39.453125000000000 27.001953000000015 Q43.164062000000058 29.003906000000029 43.261718999999971 30.908203000000015 Q47.607422000000042 20.703125000000000 40.820312000000058 19.824218999999971 z" />
<glyph unicode="I" horiz-adv-x="31.591797" d="M19.140625000000000 23.193359000000001 Q16.943358999999987 33.984375000000000 16.943358999999987 40.380858999999987 Q16.748047000000042 48.974608999999987 20.605468999999971 51.416016000000013 Q14.990233999999987 50.097656000000029 13.134765499999958 43.603515500000015 Q11.279297000000042 37.109375000000000 12.939452999999958 30.517578000000015 Q15.039062000000058 23.779296999999985 19.140625000000000 23.193358999999987 zM17.626953000000000 1.513672000000000 Q21.337891000000013 1.513671999999985 21.044922000000042 7.714844000000028 Q21.044922000000042 12.597656000000029 19.335937999999942 21.777343999999971 Q10.351561999999944 20.996093999999971 5.419922000000042 26.513671999999985 Q1.220702999999958 31.396483999999987 2.441406000000029 38.916016000000013 Q4.052733999999987 46.630858999999987 10.205077999999958 50.292968999999971 Q17.285156000000029 54.785155999999972 28.027343999999971 52.001953000000015 Q27.246093999999971 51.611328000000015 27.539062000000058 48.779296999999985 Q27.539062000000058 46.679687999999999 28.515625000000000 42.480468999999971 Q31.103516000000013 27.783203000000015 31.396483999999987 24.511718999999971 Q32.519531000000029 12.988280999999972 30.126952999999958 7.324219000000028 Q26.904297000000042 -0.488281000000029 18.115233999999987 -0.488280999999972 Q10.595702999999958 -0.488280999999972 6.201172000000042 5.322266000000013 Q4.492187999999942 7.714843999999971 4.199218999999971 10.351562500000000 Q3.906250000000000 12.988281000000029 5.126952999999958 14.892578000000015 Q7.910156000000029 19.287108999999987 16.943358999999987 16.406250000000000 Q15.625000000000000 15.917968999999971 15.136718999999971 12.353515500000015 Q14.648438000000056 8.789062000000001 15.136718999999971 5.175780999999972 Q16.015625000000000 1.513671999999985 17.626952999999958 1.513671999999985 z" />
<glyph unicode="J" horiz-adv-x="31.591797" d="M30.419922000000000 44.482422000000000 Q28.808593999999971 43.603516000000013 30.517577999999958 35.107421999999985 Q31.005858999999987 31.689453000000015 32.226562000000058 26.904296999999985 Q34.521483999999987 16.113281000000029 34.228516000000013 8.593750000000000 Q34.033202999999958 -1.025391000000013 28.613281000000029 -4.980469000000028 Q25.683593999999971 -7.128905999999972 21.191406499999971 -7.324218499999972 Q16.699218999999971 -7.519530999999972 13.623047000000042 -5.175780999999972 Q7.617188000000056 -0.585937999999999 6.787108999999987 7.617187999999999 Q6.103516000000013 15.820312000000001 11.718750000000000 17.578125000000000 Q14.208983999999987 18.554687999999999 19.091797000000042 16.406250000000000 Q18.408202999999958 16.308593999999971 17.822266000000013 14.404296999999985 Q16.845702999999958 10.400391000000013 17.187500000000000 4.785155999999972 Q17.187500000000000 -0.927733999999987 18.701172000000042 -4.394530999999972 Q19.287108999999987 -6.005858999999987 20.214843999999971 -5.810546999999985 Q24.121093999999971 -5.419921999999985 23.632812000000058 2.490233999999987 Q23.535156000000029 5.273437999999999 22.070312500000000 13.769531499999971 Q20.605468999999971 22.265625000000000 20.214843999999971 28.515625000000000 Q19.726562000000058 38.037108999999987 23.828125000000000 42.089843999999971 Q26.220702999999958 44.482421999999985 30.419922000000042 44.482421999999985 zM33.496093999999999 54.785156000000001 Q35.986327999999958 48.486328000000015 29.394531000000029 46.093750000000000 Q26.904297000000042 45.214843999999971 22.607422000000042 44.482421999999985 Q12.695311999999944 43.164062000000001 9.326172000000042 41.210937999999999 Q6.835937999999942 39.990233999999987 6.787108999999987 37.304687999999999 Q2.783202999999958 47.607421999999985 6.494141000000013 51.708983999999987 Q9.082031000000029 54.687500000000000 16.699218999999971 54.199218999999971 Q21.191406000000029 53.808593999999971 22.998047000000042 53.515625000000000 Q30.419922000000042 52.099608999999987 32.519531000000029 52.783203000000015 Q33.789062000000058 53.173828000000015 33.496093999999971 54.785156000000029 z" />
<glyph unicode="K" horiz-adv-x="48.681640999999999" d="M17.382812000000001 14.355468999999999 Q17.382811999999944 0.292969000000028 19.921875000000000 0.292969000000028 Q11.914061999999944 -2.392578000000015 8.105468999999971 4.589844000000028 Q5.029297000000042 10.302733999999987 4.101561999999944 22.412108999999987 Q3.613281000000029 28.222656000000029 3.417968500000029 37.011718500000029 Q3.222656000000029 45.800781000000029 2.636718999999971 48.730468999999971 Q2.050781000000029 51.660156000000029 0.976561999999944 52.001953000000015 Q6.494141000000013 54.492187999999999 10.302733999999987 51.708983999999987 Q13.378906000000029 49.218750000000000 14.990233999999987 43.017578000000015 Q16.406250000000000 38.232421999999985 16.894531000000029 29.589843999999971 Q21.093750000000000 32.812500000000000 22.900390499999958 40.625000000000000 Q24.707031000000029 48.437500000000000 21.484375000000000 53.076171999999985 Q31.982422000000042 53.662108999999987 35.302733999999987 48.486328000000015 Q38.525391000000013 43.701171999999985 35.009766000000013 37.451171999999985 Q31.494141000000013 31.201171999999985 24.414062000000058 28.710937999999999 Q28.222656000000029 27.587891000000013 32.421875000000000 22.998046999999985 Q33.642577999999958 21.484375000000000 36.816406000000029 16.748046999999985 Q39.990233999999987 12.011718999999971 40.478516000000013 11.376953000000015 Q42.871093999999971 8.300781000000029 45.117187999999942 9.082031000000029 Q45.898437999999942 9.277343999999971 47.705077999999958 11.376953000000015 Q40.429687999999942 -4.589843999999971 34.423827999999958 0.976562000000001 Q31.542968999999971 3.271483999999987 27.392577999999958 11.621093999999971 Q24.072266000000013 19.042968999999971 20.800781000000029 23.876953000000015 Q19.091797000000042 26.269531000000029 17.089843999999971 27.392578000000015 Q17.382812000000058 21.386718999999971 17.382812000000058 14.355468999999971 z" />
<glyph unicode="L" horiz-adv-x="46.289062000000001" d="M0.976562000000000 5.712891000000000 Q1.074218999999971 10.693358999999987 7.714843999999971 10.986328000000015 Q11.523438000000056 11.083983999999987 22.656250000000000 8.496093500000029 Q33.789062000000058 5.908203000000015 37.011718999999971 5.615233999999987 Q43.994141000000013 4.833983999999987 44.921875000000000 8.203125000000000 Q46.728516000000013 -3.173828000000015 40.722656000000029 -4.980469000000028 Q35.839843999999971 -6.591796999999985 25.781250000000000 -2.294921999999985 Q21.875000000000000 -0.781250000000000 14.257812500000000 2.734375000000000 Q6.640625000000000 6.250000000000000 3.906250000000000 6.884766000000013 Q1.367188000000056 7.226562000000001 0.976561999999944 5.712891000000013 zM21.777343999999999 51.708984000000001 Q19.189452999999958 51.220703000000015 19.677733999999987 44.287108999999987 Q19.628906000000029 43.652343999999971 20.410156000000029 36.035156499999971 Q21.191406000000029 28.417968999999971 20.654297000000042 21.386718999999971 Q20.117187999999942 14.355468999999971 15.917968999999971 11.914062000000001 Q13.623047000000042 10.693358999999987 9.423827999999958 11.523437999999999 Q10.644531000000029 11.621093999999971 10.839843500000029 14.160156499999971 Q11.035156000000029 16.699218999999971 9.082031000000029 27.880858999999987 Q7.568358999999987 39.062500000000000 7.714843999999971 45.019531000000029 Q8.300781000000029 53.027343999999971 13.720702999999958 53.808593999999971 Q16.699218999999971 54.101562000000001 21.777343999999971 51.708983999999987 z" />
<glyph unicode="M" horiz-adv-x="53.759765999999999" d="M38.574218999999999 54.394531000000001 Q40.185547000000042 54.394531000000029 43.847656000000029 53.076171999999985 Q44.335937999999942 52.783203000000015 45.312500000000000 52.392578000000015 Q46.289062000000058 52.001953000000015 46.875000000000000 51.708983999999987 Q42.871093999999971 51.416016000000013 42.041016000000013 43.115233999999987 Q40.917968999999971 35.937500000000000 42.675781499999971 25.976562500000000 Q44.433593999999971 16.015625000000000 47.265625000000000 11.376953000000015 Q50.878906000000029 5.957030999999972 54.345702999999958 10.302733999999987 Q52.148437999999942 4.589843999999971 48.046875000000000 1.513671999999985 Q46.240233999999987 -0.195312000000001 43.554687500000000 -0.195312000000001 Q40.869141000000013 -0.195312000000001 38.476562000000058 3.076171999999985 Q33.886718999999971 9.667968999999971 31.347656000000029 22.607421999999985 Q29.931641000000013 29.785156000000029 29.980468999999971 34.619141000000013 Q25.878906000000029 18.798828000000015 29.443358999999987 6.298828000000015 Q30.566406000000029 3.515625000000000 31.347656000000029 1.904296999999985 Q32.128906000000029 0.292969000000028 33.154297000000042 0.292969000000028 Q25.732422000000042 -2.392578000000015 20.263672000000042 3.808594000000028 Q15.966797000000042 8.593750000000000 12.451172000000042 19.677733999999987 Q11.572266000000013 22.558593999999971 7.763672000000042 38.378906000000029 Q7.958983999999987 36.230468999999971 8.105468500000029 30.371093999999971 Q8.251952999999958 24.511718999999971 8.984375000000000 16.406250000000000 Q10.498047000000042 3.564453000000015 15.185547000000042 -0.390625000000000 Q7.275391000000013 -0.390625000000000 4.345703500000013 4.980468500000029 Q1.416016000000013 10.351562000000001 3.564452999999958 25.878906000000029 Q6.591797000000042 42.285156000000029 5.468750000000000 47.705078000000015 Q5.175781000000029 48.925781000000029 4.345702999999958 50.683593999999971 Q3.662108999999987 51.708983999999987 2.978516000000013 52.001953000000015 Q8.056641000000013 53.710937999999999 12.255858999999987 49.804687999999999 Q15.869141000000013 46.582031000000029 18.750000000000000 39.501953000000015 Q20.458983999999987 35.693358999999987 23.339843999999971 26.416016000000013 Q23.535156000000029 25.439453000000015 24.951172000000042 20.312500000000000 Q25.537108999999987 17.431641000000013 26.269531000000029 15.576171999999985 Q24.755858999999987 26.464843999999971 30.273437999999942 43.798828000000015 Q31.982422000000042 54.394531000000029 38.574218999999971 54.394531000000029 z" />
<glyph unicode="N" horiz-adv-x="36.572265999999999" d="M1.513672000000000 52.001953000000000 Q9.130858999999987 54.199218999999971 15.087891000000013 45.117187999999999 Q19.091797000000042 39.208983999999987 24.218750000000000 24.707031000000029 C25.374349000000052 21.142578000000015 26.818847750000032 16.687011750000011 27.685547000000042 14.013671999999985 Q29.296875000000000 9.228516000000013 31.005858999999987 5.419921999999985 Q29.882811999999944 9.521483999999987 29.003906000000029 21.582031000000029 Q27.685547000000042 34.960937999999999 26.611327999999958 40.478516000000013 Q24.414062000000058 50.390625000000000 20.507812000000058 53.808593999999971 Q29.687500000000000 53.808593999999971 33.007812000000058 46.679687999999999 Q35.400391000000013 41.601562000000001 34.912108999999987 30.712891000000013 C34.602864333333287 27.669270999999981 34.216308499999968 23.864746000000025 33.984375000000000 21.582031000000029 Q32.470702999999958 12.695312000000001 32.714843999999971 5.712891000000013 Q32.910156000000029 2.490233999999987 33.984375000000000 0.878905999999972 Q34.765625000000000 0.292969000000028 35.595702999999958 0.292969000000028 Q29.003906000000029 -1.806641000000013 23.583983999999987 4.003905999999972 Q19.384766000000013 8.203125000000000 14.794922000000042 18.994141000000013 Q12.792968999999971 23.681641000000013 8.300781000000029 37.109375000000000 Q8.447266000000013 35.546875000000000 10.253906000000029 25.390625000000000 Q12.011718999999971 15.283203000000015 12.255859500000042 8.642578000000015 Q12.500000000000000 2.001953000000015 11.376952999999958 -0.488280999999972 Q10.253906000000029 -2.978516000000013 7.910156000000029 -2.832031499999971 Q5.566406000000029 -2.685546999999985 0.976561999999944 1.513671999999985 Q1.953125000000000 1.806641000000013 3.076172000000042 4.101562000000001 Q5.175781000000029 9.277343999999971 6.445312500000000 18.701171999999985 Q7.714843999999971 28.125000000000000 6.591797000000042 37.890625000000000 Q6.054688000000056 45.019531000000029 3.320311999999944 50.000000000000000 Q2.441406000000029 51.660156000000029 1.513672000000042 52.001953000000015 z" />
<glyph unicode="O" horiz-adv-x="44.384765999999999" d="M19.189453000000000 17.822265999999999 Q22.998047000000042 1.611328000000015 27.001952999999958 1.123046999999985 Q28.662108999999987 0.878905999999972 29.736327999999958 2.734375000000000 Q30.810547000000042 4.589844000000028 31.396483999999987 9.863281000000029 Q31.982422000000042 15.136718999999971 30.908202999999958 24.707031000000029 Q29.199218999999971 39.355468999999971 24.707031000000029 48.291016000000013 Q23.291016000000013 50.585937999999999 21.630859500000042 50.830078500000013 Q19.970702999999958 51.074218999999971 18.896483999999987 49.218750000000000 Q16.894531000000029 44.921875000000000 17.138671499999987 36.035156499999971 Q17.382812000000058 27.148437999999999 19.189452999999958 17.822266000000013 zM20.410156000000001 52.783203000000000 Q29.101562000000058 52.783203000000015 36.181641000000013 44.482421999999985 Q42.382812000000058 36.767578000000015 44.628906000000029 25.683593500000029 Q46.875000000000000 14.599608999999987 42.919922000000042 7.324219000000028 Q38.623047000000042 -1.171875000000000 27.978516000000013 -1.220703000000015 Q18.994141000000013 -1.269531000000200 12.304687500000000 6.933593999999914 Q5.615233999999987 15.136718999999971 3.613281000000029 25.976562000000001 Q1.611327999999958 36.816406000000029 5.517577999999958 44.482421999999985 Q10.107422000000042 52.783203000000015 20.410156000000029 52.783203000000015 z" />
<glyph unicode="P" horiz-adv-x="50" d="M30.712890999999999 46.923828000000000 Q26.806641000000013 46.240233999999987 30.322266000000013 30.419921999999985 C30.924479333333352 27.376302000000010 31.677245999999968 23.571776999999997 32.128906000000029 21.289062000000001 Q37.109375000000000 21.875000000000000 37.402343999999971 29.199218999999971 Q37.890625000000000 36.181641000000013 34.619141000000013 42.919921999999985 Q30.810547000000042 50.097656000000029 25.732422000000042 50.781250000000000 Q17.529297000000042 51.757812000000001 14.501952999999958 45.996093999999971 Q12.109375000000000 41.503906000000029 13.427734500000042 33.984375000000000 Q14.746093999999971 26.464843999999971 17.724608999999987 23.193358999999987 Q13.720702999999958 17.675781000000029 9.130858999999987 20.898437999999999 Q4.541016000000013 23.779296999999985 3.222656000000029 31.103516000000013 Q1.513672000000042 39.013671999999985 5.517577999999958 44.677733999999987 Q10.107422000000042 51.562500000000000 21.728516000000013 52.587891000000013 Q33.642577999999958 53.271484000000044 41.503906000000029 47.900391000000013 Q48.486327999999958 42.919921999999985 50.244140499999958 35.302734499999985 Q52.001952999999958 27.685546999999985 47.314452999999958 23.193358999999987 Q42.529297000000042 18.212891000000013 32.324218999999971 20.214843999999971 Q33.837891000000013 12.597656000000029 33.886718999999971 7.421875000000000 Q34.179687999999942 1.513671999999985 32.128906000000029 0.097655999999972 Q30.126952999999958 -1.367187999999999 26.806640499999958 -0.878906500000028 Q23.486327999999958 -0.390625000000000 20.800781000000029 2.392578000000015 Q21.826172000000042 2.685546999999985 21.826172000000042 6.103516000000013 Q21.826172000000042 9.472656000000029 19.482422000000042 21.191406000000029 Q17.138672000000042 32.910156000000029 17.187500000000000 39.306641000000013 Q17.187500000000000 47.998046999999985 22.705077999999958 49.023437999999999 Q25.634766000000013 49.511718999999971 30.712891000000013 46.923828000000015 z" />
<glyph unicode="Q" horiz-adv-x="51.953125" d="M8.691406000000001 1.708984000000000 Q8.691406000000029 6.787108999999987 15.283202999999958 6.982421999999985 Q19.873047000000042 7.080078000000015 29.589843999999971 4.687500000000000 Q41.699218999999971 2.001953000000015 44.482422000000042 1.708983999999987 Q51.367187999999942 0.927733999999987 52.490233999999987 4.199219000000028 Q54.199218999999971 -7.177733999999987 48.095702999999958 -8.984375000000000 Q42.138672000000042 -10.937500000000000 24.902343999999971 -2.587891000000013 Q15.185547000000042 2.197266000000013 11.425781000000029 2.880858999999987 Q8.984375000000000 3.222656000000029 8.691406000000029 1.708983999999987 zM26.123047000000000 10.205078000000000 Q29.394531000000029 9.619141000000013 30.615233999999987 15.722656000000029 Q31.738281000000029 20.605468999999971 30.810547000000042 29.394531000000029 Q29.687500000000000 37.695312000000001 27.343750000000000 44.042968500000029 Q25.000000000000000 50.390625000000000 22.314452999999958 50.683593999999971 Q18.896483999999987 51.367187999999999 17.724608999999987 45.214843999999971 Q16.748047000000042 40.039062000000001 17.626952999999958 31.640625000000000 Q18.505858999999987 23.242187999999999 20.849608999999987 16.894531000000029 Q23.193358999999987 10.498046999999985 26.123047000000042 10.205078000000015 zM20.703125000000000 52.783203000000000 Q29.394531000000029 52.783203000000015 36.425781000000029 45.800781000000029 Q42.529297000000042 39.501953000000015 44.384765499999958 30.371093500000029 Q46.240233999999987 21.240233999999987 42.187500000000000 14.892578000000015 Q37.792968999999971 7.812500000000000 27.197266000000013 7.812500000000000 Q18.408202999999958 7.812500000000000 11.328125000000000 14.892578000000015 Q5.419922000000042 20.898437999999999 3.515625000000000 30.175781499999971 Q1.611327999999958 39.453125000000000 5.957031000000029 46.093750000000000 Q10.302733999999987 52.783203000000015 20.703125000000000 52.783203000000015 z" />
<glyph unicode="R" horiz-adv-x="60.791015999999999" d="M30.761718999999999 46.923828000000000 Q28.271483999999987 46.533203000000015 29.052733999999987 39.306641000000013 Q29.248047000000042 35.595703000000015 30.175781000000029 31.982421999999985 C30.680338333333339 29.182942666666690 31.311034999999947 25.683593500000029 31.689452999999958 23.583983999999987 Q34.179687999999942 23.779296999999985 35.791016000000013 25.781250000000000 Q37.402343999999971 27.783203000000015 37.792968999999971 30.810546999999985 Q38.574218999999971 36.914062000000001 35.449218999999971 43.310546999999985 Q31.640625000000000 50.097656000000029 25.976562000000058 50.488281000000029 Q18.261718999999971 51.269531000000029 14.746093999999971 46.679687999999999 Q11.962891000000013 42.871093999999971 13.183593999999971 36.914062000000001 Q14.062500000000000 31.396483999999987 17.089843999999971 28.613281000000029 Q12.695311999999944 24.218750000000000 7.958983999999987 26.708983999999987 Q3.808593999999971 29.101562000000001 2.539062500000000 35.302733999999987 Q1.269531000000029 41.503906000000029 5.664061999999944 46.191406000000029 Q10.644531000000029 51.904296999999985 22.167968999999971 52.587891000000013 Q36.474608999999987 53.271483999999987 44.580077999999958 46.191406000000029 Q48.046875000000000 43.115233999999987 49.511718500000029 39.208983999999987 Q50.976562000000058 35.302733999999987 50.292968999999971 31.689453000000015 Q49.609375000000000 28.076171999999985 46.679687500000000 25.585937500000000 Q43.750000000000000 23.095703000000015 38.867187999999942 22.607421999999985 Q44.580077999999958 21.484375000000000 49.267577999999958 16.308593999999971 Q50.585937999999942 14.892578000000015 52.587891000000013 12.109375000000000 Q55.273437999999942 7.812500000000000 57.763672000000042 8.398437999999999 Q59.179687999999942 8.886718999999971 61.083983999999987 11.523437999999999 Q55.957031000000029 0.292969000000028 51.855468999999971 -1.220703000000015 Q48.437500000000000 -2.197266000000013 44.970702999999958 3.417969000000028 Q43.457031000000029 5.566405999999972 40.722656000000029 11.035156000000029 Q35.791016000000013 20.996093999999971 31.982422000000042 22.216796999999985 Q33.691406000000029 13.720703000000015 34.130858999999987 7.714843499999972 Q34.570312000000058 1.708983999999987 31.982422000000042 -0.195312000000001 Q30.273437999999942 -1.367187999999999 26.855468999999971 -0.878906500000028 Q23.437500000000000 -0.390625000000000 20.849608999999987 2.392578000000015 Q22.070312000000058 2.685546999999985 21.875000000000000 5.517578000000015 Q21.875000000000000 9.912108999999987 19.482422000000042 20.996093999999971 Q17.187500000000000 33.300781000000029 17.285156000000029 39.306641000000013 Q17.285156000000029 47.998046999999985 22.851562000000058 49.023437999999999 Q25.683593999999971 49.414062000000001 30.761718999999971 46.923828000000015 z" />
<glyph unicode="S" horiz-adv-x="38.574218999999999" d="M21.337890999999999 -1.220703000000000 Q13.525391000000013 -1.269530999999972 7.226562500000000 5.761719000000028 Q0.927733999999987 12.792968999999971 2.246093999999971 18.212891000000013 Q3.857422000000042 24.023437999999999 14.453125000000000 20.800781000000029 Q13.671875000000000 20.800781000000029 13.720702999999958 19.287108999999987 Q13.330077999999958 15.625000000000000 15.234375000000000 10.253906000000029 Q17.138672000000042 4.882812000000001 20.556641000000013 2.685546999999985 Q22.363281000000029 1.367187999999999 24.707031000000029 1.757812999999999 Q27.050781000000029 2.148437999999999 27.832031000000029 4.199219000000028 Q29.345702999999958 8.886718999999971 23.046875000000000 15.820312000000001 Q20.068358999999987 19.335937999999999 14.208983999999987 22.412109499999985 Q8.349608999999987 25.488281000000029 5.029297000000042 29.931641000000013 Q1.806641000000013 34.375000000000000 1.562500000000000 39.062500000000000 Q1.318358999999987 43.750000000000000 4.150391000000013 47.412108999999987 Q6.982422000000042 51.025391000000013 12.939452999999958 52.294921999999985 Q23.730468999999971 54.687500000000000 30.126952999999958 48.486328000000015 Q32.812500000000000 45.996093999999971 33.886718999999971 42.773437500000000 Q34.960937999999942 39.550781000000029 34.033202999999958 36.914062000000001 Q33.251952999999958 34.082031000000029 30.419922000000042 32.812500000000000 Q27.587891000000013 31.542968999999971 23.046875000000000 32.519531000000029 Q23.437500000000000 32.617187999999999 23.681641000000013 35.009766000000013 Q23.974608999999987 37.402343999999971 22.705077999999958 42.382812500000000 Q21.435547000000042 47.363281000000029 18.457031000000029 49.902343999999971 Q16.748047000000042 51.220703000000015 14.990234500000042 51.074218500000029 Q13.232422000000042 50.927733999999987 11.914061999999944 49.804687999999999 Q9.521483999999987 47.705078000000015 10.498046499999987 43.164062500000000 Q11.474608999999987 38.623046999999985 15.917968999999971 34.716796999999985 Q18.017577999999958 32.617187999999999 21.826172000000042 30.712891000000013 Q31.933593999999971 25.683593999999971 36.132812500000000 17.968750000000000 Q40.332031000000029 10.253906000000029 36.425781000000029 4.687500000000000 Q32.519531000000029 -1.220703000000015 21.337891000000013 -1.220703000000015 z" />
<glyph unicode="T" horiz-adv-x="47.265625" d="M25.781250000000000 0.292969000000000 Q27.880858999999987 0.781250000000000 27.880858999999987 7.421875000000000 Q27.783202999999958 9.423828000000015 27.197266000000013 15.820312000000001 Q26.611327999999958 22.167968999999971 27.050781000000029 29.492187500000000 Q27.490233999999987 36.816406000000029 31.494141000000013 39.794921999999985 Q33.496093999999971 41.210937999999999 37.304687999999942 41.210937999999999 Q35.302733999999987 40.234375000000000 37.011718999999971 31.494141000000013 Q37.792968999999971 26.074218999999971 38.623047000000042 23.095703000000015 Q40.917968999999971 12.402343999999971 40.820312000000058 6.298828000000015 Q40.527343999999971 -6.494141000000013 25.781250000000000 0.292969000000028 zM19.824218999999999 41.894531000000001 Q12.695311999999944 41.894531000000029 8.886718999999971 39.794921999999985 Q6.884766000000013 38.818358999999987 6.591797000000042 36.376953000000015 Q2.587891000000013 48.291016000000013 8.398438000000056 52.099608999999987 Q12.597656000000029 54.687500000000000 23.828125000000000 53.076171999999985 Q29.003906000000029 52.148437999999999 36.767577999999958 50.390625000000000 Q44.531250000000000 48.632812000000001 47.265625000000000 48.730468999999971 Q50.000000000000000 48.828125000000000 50.195312000000058 50.683593999999971 Q50.878906000000029 45.166016000000013 44.580077999999958 43.310546999999985 Q40.283202999999958 41.992187999999999 29.687500000000000 41.992187999999999 Q26.953125000000000 41.894531000000029 19.824218999999971 41.894531000000029 z" />
<glyph unicode="U" horiz-adv-x="47.753906000000001" d="M19.824218999999999 4.589844000000000 Q20.410156000000029 4.589844000000028 20.800781000000029 6.396483999999987 Q22.265625000000000 9.912108999999987 23.339843500000029 20.312500000000000 Q24.414062000000058 30.712891000000013 24.511718999999971 33.789062000000001 Q24.511718999999971 49.121093999999971 22.119141000000013 51.904296999999985 Q29.541016000000013 54.394531000000029 33.496093999999971 49.707031000000029 Q36.572266000000013 45.996093999999971 37.792968999999971 37.207031000000029 Q38.281250000000000 32.910156000000029 38.281250000000000 29.394531000000029 Q38.964843999999971 17.285156000000029 39.257812500000000 14.550781000000029 Q39.550781000000029 11.816406000000029 40.478516000000013 10.400391000000013 Q41.162108999999987 8.886718999999971 42.773437500000000 8.691406499999971 Q44.384766000000013 8.496093999999971 46.777343999999971 10.595703000000015 Q45.898437999999942 7.812500000000000 44.140625000000000 5.078125000000000 Q40.283202999999958 -0.927733999999987 36.523437999999942 -0.878905999999972 Q32.128906000000029 -0.878905999999972 29.589843999999971 7.617187999999999 Q27.294922000000042 14.501953000000015 26.806641000000013 27.392578000000015 Q26.367187999999942 27.441406000000029 25.976562000000058 24.316406000000029 Q24.121093999999971 9.814453000000015 23.193358999999987 6.396483999999987 Q21.093750000000000 -0.927734000000044 17.089843999999971 -0.878905999999972 Q10.888672000000042 -0.878905999999972 7.714843999999971 7.421875000000000 Q5.126952999999958 14.013671999999985 4.003906000000029 25.683593999999971 C3.808593666666638 28.955078333333347 3.564453250000042 33.044433749999996 3.417968999999971 35.498046999999985 Q2.832031000000029 47.509766000000013 2.343750000000000 50.097656499999971 Q1.855468999999971 52.685546999999985 0.976561999999944 52.783203000000015 Q8.496093999999971 56.591796999999985 12.402343999999971 49.804687999999999 Q15.722656000000029 44.384766000000013 16.894531000000029 32.714843999999971 Q17.187500000000000 29.101562000000001 17.578125000000000 22.607421999999985 Q17.968750000000000 10.644531000000029 18.359375000000000 7.617187500000000 Q18.750000000000000 4.589844000000028 19.824218999999971 4.589844000000028 z" />
<glyph unicode="V" horiz-adv-x="40.478515999999999" d="M22.070312000000001 -1.123047000000000 Q16.308593999999971 -1.171874999999943 12.500000000000000 6.445312500000057 Q8.691406000000029 14.062500000000000 6.787108999999987 25.097656000000029 Q6.201172000000042 28.076171999999985 4.980468999999971 36.083984499999985 Q3.759766000000013 44.091796999999985 2.587891000000013 49.707031000000029 Q1.806641000000013 52.099608999999987 0.976561999999944 52.099608999999987 Q8.398438000000056 55.810546999999985 12.890625000000000 48.681641000000013 Q16.308593999999971 43.164062000000001 18.408202999999958 30.908203000000015 Q18.994141000000013 27.441406000000029 20.117187999999942 17.285156000000029 Q21.289061999999944 7.128906000000029 21.777343500000029 4.394531000000029 Q22.265625000000000 1.660155999999972 22.998047000000042 1.708983999999987 Q23.388672000000042 1.708983999999987 24.023437999999942 3.710937999999999 Q25.683593999999971 11.035156000000029 26.220702999999958 34.082031000000029 Q26.220702999999958 50.146483999999987 25.292968999999971 51.904296999999985 Q31.494141000000013 54.687500000000000 35.009766000000013 50.488281000000029 Q38.525391000000013 46.289062000000001 39.257812000000058 38.037108999999987 Q39.990233999999987 29.785156000000029 37.988281000000029 20.458983999999987 Q35.986327999999958 11.132812000000001 32.080077999999958 5.419921999999985 Q27.832031000000029 -1.123046999999985 22.070312000000058 -1.123046999999985 z" />
<glyph unicode="W" horiz-adv-x="49.365234000000001" d="M34.082031000000001 1.708984000000000 Q35.449218999999971 1.708983999999987 35.302733999999987 13.867187999999999 Q34.863281000000029 42.968750000000000 32.763672000000042 50.634766000000013 Q32.617187999999942 51.171875000000000 32.617187999999942 51.318358999999987 Q38.720702999999958 54.199218999999971 42.675781000000029 49.707031000000029 Q46.484375000000000 45.605468999999971 47.802734500000042 37.158203500000013 Q49.121093999999971 28.710937999999999 47.656250000000000 19.873046999999985 Q46.191406000000029 11.035155999999972 42.919922000000042 5.322266000000013 Q38.818358999999987 -1.074219000000028 33.398437999999942 -1.123046999999985 Q29.785156000000029 -1.123046999999985 27.099608999999987 2.978516000000013 Q25.000000000000000 5.957030999999972 22.900391000000013 12.988281000000029 Q23.193358999999987 6.787108999999987 22.412108999999987 3.417969000000028 Q21.191406000000029 -0.683594000000028 19.189452999999958 -1.123046999999985 Q13.769531000000029 -2.343750000000000 10.107422000000042 5.517578000000015 Q7.421875000000000 11.523437999999999 5.615233999999987 23.583983999999987 Q4.833983999999987 29.882812000000001 3.710937500000000 40.527343500000029 Q2.587891000000013 51.171875000000000 0.976561999999944 51.611328000000015 Q8.300781000000029 55.322266000000013 12.207031000000029 48.486328000000015 Q15.283202999999958 43.603516000000013 16.699218999999971 31.689453000000015 Q17.187500000000000 27.001953000000015 18.017577999999958 12.695312000000001 C18.147786333333329 10.563150666666672 18.310546749999958 7.897948999999983 18.408202999999958 6.298828000000015 Q18.798827999999958 3.710937999999999 19.580077999999958 3.710937999999999 Q21.435547000000042 3.710937999999999 20.166015499999958 22.070312999999999 Q18.896483999999987 40.429687999999999 17.675781000000029 46.679687999999999 C17.757161333333329 46.516927333333342 17.858886750000011 46.313476499999979 17.919922000000042 46.191406000000029 Q17.919922000000042 46.093750000000000 18.212891000000013 44.580078000000015 Q18.115233999999987 45.068358999999987 17.480468999999971 49.316406000000029 Q16.992187999999942 51.220703000000015 16.699218999999971 51.611328000000015 Q17.285156000000029 49.609375000000000 17.578125000000000 47.412108999999987 C17.285156333333362 48.811848666666663 16.918945499999950 50.561523249999993 16.699218999999971 51.611328000000015 Q23.876952999999958 55.224608999999987 27.783202999999958 48.291016000000013 Q30.664062000000058 42.773437999999999 31.787108999999987 30.615233999999987 Q32.324218999999971 21.777343999999971 32.421875000000000 14.843750000000000 Q32.519531000000029 7.910155999999972 32.861327999999958 4.785155999999972 Q33.203125000000000 1.660155999999972 34.082031000000029 1.708983999999987 zM17.578125000000000 47.412109000000001 C17.602538999999979 47.229003750000004 17.651367000000050 46.862793249999982 17.675781000000029 46.679687999999999 Q17.578125000000000 47.021483999999987 17.578125000000000 47.412108999999987 z" />
<glyph unicode="X" horiz-adv-x="42.871093999999999" d="M21.386718999999999 30.078125000000000 Q22.363281000000029 30.078125000000000 22.509766000000013 31.396483999999987 Q23.291016000000013 33.984375000000000 22.656250000000000 40.917968500000029 Q22.021483999999987 47.851562000000001 20.117187999999942 51.416016000000013 Q24.804687999999942 53.515625000000000 27.978516000000013 53.076171999999985 Q34.082031000000029 52.392578000000015 35.351562500000000 45.849609499999985 Q36.621093999999971 39.306641000000013 32.519531000000029 33.105468999999971 Q30.712891000000013 30.517578000000015 27.392577999999958 28.613281000000029 Q32.373047000000042 26.318358999999987 35.302733999999987 19.091796999999985 Q36.523437999999942 16.406250000000000 38.085937999999942 10.205078000000015 Q39.648437999999942 4.003905999999972 40.283202999999958 2.343750000000000 Q40.966797000000042 0.683594000000028 41.894531000000029 0.683594000000028 Q35.009766000000013 -3.027343999999971 30.468750000000000 0.537108999999987 Q25.927733999999987 4.101562000000001 24.218750000000000 16.015625000000000 Q22.802733999999987 24.218750000000000 22.314452999999958 25.683593999999971 Q21.875000000000000 27.148437999999999 21.093750000000000 27.197266000000013 Q20.312500000000000 27.246093999999971 19.921875000000000 24.609375000000000 Q19.531250000000000 21.972656000000029 20.361327999999958 15.087890500000015 Q21.191406000000029 8.203125000000000 22.509766000000013 3.710937999999999 Q22.900391000000013 1.416016000000013 23.583983999999987 0.195312000000001 Q15.283202999999958 -3.906250000000000 10.595702999999958 2.001953000000015 Q6.396483999999987 7.128906000000029 7.763671499999987 16.015625000000000 Q9.130858999999987 24.902343999999971 15.087891000000013 28.320312000000001 Q10.205077999999958 30.322266000000013 7.177733999999987 36.279296999999985 Q5.859375000000000 39.257812000000001 4.882811999999944 43.261718999999971 Q2.978516000000013 51.171875000000000 0.976561999999944 51.708983999999987 Q7.861327999999958 55.224608999999987 12.207031000000029 52.685546999999985 Q15.722656000000029 50.683593999999971 17.285156000000029 44.824218999999971 Q17.968750000000000 42.382812000000001 19.091797000000042 36.230468500000029 Q20.214843999999971 30.078125000000000 21.386718999999971 30.078125000000000 z" />
<glyph unicode="Y" horiz-adv-x="36.279297" d="M20.800781000000001 25.292968999999999 Q21.386718999999971 25.292968999999971 22.021483999999987 26.904296999999985 Q22.509766000000013 29.589843999999971 22.509766000000013 36.718750000000000 Q22.412108999999987 38.525391000000013 21.191406000000029 47.900391000000013 Q20.507812000000058 50.683593999999971 20.019531000000029 51.416016000000013 Q28.808593999999971 55.615233999999987 33.007812000000058 49.414062000000001 Q36.816406000000029 43.994141000000013 34.667968500000029 35.253906499999971 Q32.519531000000029 26.513671999999985 25.488281000000029 23.486328000000015 Q28.369141000000013 19.775391000000013 29.394531000000029 12.500000000000000 Q30.810547000000042 4.199218999999971 28.076172000000042 0.195312000000001 Q24.804687999999942 -4.785156000000029 16.113281000000029 -0.390625000000000 Q18.017577999999958 -0.390625000000000 17.822266000000013 4.101562000000001 Q17.236327999999958 8.398437999999999 16.406250000000000 13.525391000000013 Q15.576172000000042 18.652343999999971 16.699218999999971 22.998046999999985 Q10.791016000000013 24.511718999999971 7.519531000000029 31.787108999999987 Q5.908202999999958 35.498046999999985 4.003906000000029 44.580078000000015 Q3.808593999999971 45.263671999999985 3.515625000000000 46.337890500000015 Q3.222656000000029 47.412108999999987 2.978516000000013 48.144531000000029 Q2.783202999999958 48.876953000000015 2.490234500000042 50.097656000000029 Q2.197266000000013 51.318358999999987 0.976561999999944 51.708983999999987 Q13.232422000000042 58.056641000000013 16.992187999999942 42.480468999999971 Q17.773437999999942 38.574218999999971 18.505859500000042 33.593750000000000 Q19.238281000000029 28.613281000000029 19.628906000000029 26.953125000000000 Q20.019531000000029 25.292968999999971 20.800781000000029 25.292968999999971 z" />
<glyph unicode="Z" horiz-adv-x="39.0625" d="M12.402343999999999 9.277343999999999 Q12.548827999999958 10.107421999999985 20.556640499999958 10.009765500000015 Q28.564452999999958 9.912108999999987 32.617187999999942 10.791016000000013 Q39.599608999999987 12.402343999999971 39.599608999999987 16.894531000000029 Q41.015625000000000 7.617187999999999 37.207031000000029 3.076171999999985 Q33.984375000000000 -0.146483999999987 27.587891000000013 -0.292969000000028 Q24.609375000000000 -0.488280999999972 19.970702999999958 0.000000000000000 Q15.380858999999987 0.488281000000029 13.232421499999987 0.292968500000029 Q11.083983999999987 0.097655999999972 10.595702999999958 -0.976562000000001 Q6.787108999999987 2.832031000000029 8.544922000000042 9.277343999999971 Q11.474608999999987 19.970703000000015 23.681641000000013 35.498046999999985 Q25.683593999999971 38.183593999999971 27.099608999999987 39.794921999999985 Q28.710937999999942 42.382812000000001 28.808593999999971 42.480468999999971 Q27.001952999999958 40.576171999999985 20.507812000000058 40.576171999999985 C18.798827666666625 40.625000000000000 16.662597249999976 40.686035000000004 15.380858999999987 40.722656000000029 Q9.765625000000000 41.015625000000000 8.203125000000000 38.818358999999987 Q7.519531000000029 37.597656000000029 8.398438000000056 35.107421999999985 Q1.416016000000013 45.117187999999999 3.320311999999944 49.707031000000029 Q4.931641000000013 53.124999999999943 12.207031000000029 53.076171999999985 Q15.917968999999971 53.076171999999985 21.142577999999958 52.294921999999985 Q26.367187999999942 51.562500000000000 29.785156499999971 51.074218999999971 Q33.203125000000000 50.585937999999999 33.593750000000000 51.123046999999985 Q34.814452999999958 48.144531000000029 31.494141000000013 42.382812000000001 Q29.003906000000029 37.597656000000029 23.681641000000013 30.419921999999985 Q22.900391000000013 29.199218999999971 21.337891000000013 27.148437999999999 Q15.136718999999971 19.042969000000028 12.890625000000000 13.281250000000000 Q12.109375000000000 11.083983999999987 12.402343999999971 9.277343999999971 z" />
<glyph unicode="[" horiz-adv-x="25.78125" d="M20.410156000000001 47.509765999999999 Q14.794922000000042 47.607421999999985 14.208983999999987 43.212891000000013 Q13.671875000000000 40.136718999999971 15.917968500000029 31.396484499999985 Q18.164062000000058 22.656250000000000 18.652343999999971 17.480468999999971 Q19.140625000000000 12.304687999999999 17.968750000000000 4.199219000000028 Q17.187500000000000 -4.492187999999999 17.578125000000000 -6.396483999999987 Q18.359375000000000 -10.986328000000015 23.193358999999987 -11.816406000000029 Q13.085937999999942 -11.816405999999972 9.277343999999971 -7.519530999999972 Q6.298827999999958 -4.443358999999987 6.103516000000013 3.417969000000028 Q6.005858999999987 6.738280999999972 6.054687500000000 12.988281000000029 Q6.103516000000013 19.238281000000029 4.589843999999971 26.953125000000000 Q3.076172000000042 34.667968999999971 3.466797000000042 39.501953000000015 Q3.759766000000013 49.462891000000013 20.410156000000029 47.509766000000013 z" />
<glyph unicode="\" horiz-adv-x="49.755859000000001" d="M46.777343999999999 0.683594000000000 Q46.484375000000000 -3.515625000000000 40.283202999999958 2.392578000000015 Q36.083983999999987 6.250000000000000 28.076171499999987 15.917968999999971 Q20.068358999999987 25.585937999999999 18.115233999999987 28.222656000000029 Q3.857422000000042 45.898437999999999 2.978516000000013 45.507812000000001 Q4.882812000000058 48.193358999999987 11.523438000000056 41.406250000000000 Q15.332031000000029 37.597656000000029 20.458984500000042 31.054687500000000 Q25.585937999999942 24.511718999999971 32.812500000000000 15.234375000000000 Q40.039062000000058 5.957030999999972 42.871093999999971 3.125000000000000 Q45.800781000000029 0.390625000000000 46.777343999999971 0.683594000000028 z" />
<glyph unicode="]" horiz-adv-x="25.878906000000001" d="M5.908203000000000 -8.984375000000000 Q11.523438000000056 -8.984375000000000 12.109375000000000 -4.589844000000028 Q12.597656000000029 -1.367187999999999 10.449218500000029 6.738280999999972 Q8.300781000000029 14.843750000000000 7.714843999999971 20.019531000000029 Q7.128906000000029 25.292968999999971 8.154297000000042 33.886718999999971 Q9.179688000000056 42.480468999999971 8.691406000000029 45.117187999999999 Q7.910156000000029 49.609375000000000 2.978516000000013 50.390625000000000 Q13.085937999999942 50.390625000000000 17.089843999999971 46.093750000000000 Q19.970702999999958 42.871093999999971 20.312500000000000 35.107421999999985 C20.312500000000000 32.812500000000000 20.312500000000000 29.943847500000004 20.312500000000000 28.222656000000029 Q19.921875000000000 21.191406000000029 21.484375000000000 12.792968500000029 Q23.046875000000000 4.394530999999972 22.900391000000013 -0.976562000000001 Q22.119141000000013 -10.791016000000013 5.908202999999958 -8.984375000000000 z" />
<glyph unicode="^" horiz-adv-x="28.955078" d="M11.865233999999999 29.101562000000001 Q4.785156000000029 30.078125000000000 4.003906000000029 33.642578000000015 Q3.222656000000029 37.207031000000029 7.177733999999987 40.380858999999987 Q11.376952999999958 43.457031000000029 16.162108999999987 42.822266000000013 Q23.046875000000000 32.421875000000000 26.757812000000058 32.421875000000000 Q23.779297000000042 28.027343999999971 20.361327999999958 28.955078000000015 Q16.943358999999987 29.882812000000001 15.380858999999987 33.593750000000000 Q13.574218999999971 37.402343999999971 15.185547000000042 40.820312000000001 Q12.597656000000029 39.013671999999985 11.962891000000013 33.789062000000001 Q11.865233999999987 32.324218999999971 11.865233999999987 29.101562000000001 z" />
<glyph unicode="_" horiz-adv-x="35.351562000000001" d="M4.736328000000000 -1.220703000000000 Q12.451172000000042 -0.146483999999987 22.705077999999958 -0.878905999999972 Q29.638672000000042 -1.367187999999999 32.617187999999942 -4.980469000000028 Q34.228516000000013 -6.787108999999987 33.740233999999987 -9.912108999999987 Q24.853516000000013 -11.230469000000028 17.919922000000042 -10.839844000000028 Q10.986327999999958 -10.449218999999971 7.714843999999971 -8.496093999999971 Q3.320311999999944 -6.103516000000013 4.736327999999958 -1.220703000000015 z" />
<glyph unicode="a" horiz-adv-x="42.1875" d="M17.285156000000001 4.980469000000000 Q18.164062000000058 4.980469000000028 18.603516000000013 6.591796999999985 Q19.091797000000042 9.472656000000029 18.847656499999971 17.968750000000000 Q18.603516000000013 26.464843999999971 18.896483999999987 29.345703000000015 Q19.189452999999958 32.177733999999987 20.019531000000029 33.789062000000001 Q14.941406000000029 33.789062000000001 13.574218500000029 26.904296499999987 Q12.207031000000029 20.019531000000029 13.916016000000013 12.402343999999971 Q14.257811999999944 9.277343999999971 15.332031000000029 7.128905999999972 Q16.406250000000000 4.980469000000028 17.285156000000029 4.980469000000028 zM31.835937999999999 -0.097656000000000 Q28.906250000000000 -0.097655999999972 26.513672000000042 3.076171999999985 Q24.218750000000000 5.859375000000000 22.802734500000042 10.888671999999985 Q21.386718999999971 15.917968999999971 20.898437999999942 20.703125000000000 Q20.507812000000058 20.703125000000000 20.458983999999987 19.531250000000000 Q20.410156000000029 18.359375000000000 20.703125000000000 13.476562000000001 Q21.533202999999958 -0.097656000000029 15.332031000000029 -0.097655999999972 Q9.179688000000056 -0.097655999999972 4.882811999999944 7.617187999999999 Q0.976561999999944 14.208983999999987 0.976561999999944 22.998046499999987 Q0.976561999999944 31.787108999999987 5.615233999999987 35.791016000000013 Q8.300781000000029 37.695312000000001 11.962890499999958 37.695312000000001 Q15.625000000000000 37.695312000000001 20.898437999999942 34.814453000000015 Q22.607422000000042 37.792968999999971 25.292968999999971 37.792968999999971 Q28.613281000000029 38.037108999999987 33.203125000000000 34.521483999999987 Q32.080077999999958 33.984375000000000 31.542968500000029 29.394531499999971 Q31.005858999999987 24.804687999999999 31.835937999999942 18.945312000000001 Q32.666016000000013 13.085937999999999 35.058593999999971 10.595703500000013 Q37.451172000000042 8.105468999999971 41.210937999999942 11.376953000000015 Q39.697266000000013 5.273437999999999 36.523437999999942 1.708983999999987 Q34.765625000000000 -0.097655999999972 31.835937999999942 -0.097655999999972 z" />
<glyph unicode="b" horiz-adv-x="40.869140999999999" d="M30.078125000000000 29.882812000000001 Q29.199218999999971 31.005858999999987 27.685547000000042 32.080078000000015 Q25.683593999999971 33.496093999999971 26.220702999999958 31.884766000000013 Q26.708983999999987 29.785156000000029 29.248046499999987 27.490233999999987 Q31.787108999999987 25.195312000000001 33.300781000000029 24.316406000000029 Q32.714843999999971 26.123046999999985 31.787109500000042 27.441406499999971 Q30.859375000000000 28.759766000000013 30.078125000000000 29.882812000000001 zM25.390625000000000 -0.097656000000000 Q17.773437999999942 -0.097655999999972 12.792968999999971 5.908203000000015 Q9.082031000000029 10.595703000000015 6.689452999999958 20.019531000000029 Q4.296875000000000 30.566406000000029 3.662108999999987 48.535156000000029 Q3.369141000000013 57.519531000000029 0.976561999999944 57.714843999999971 Q8.154297000000042 59.619141000000013 12.109375000000000 54.492187999999999 Q15.332031000000029 50.683593999999971 16.894531000000029 41.015625000000000 Q17.480468999999971 36.035156000000029 18.408202999999958 23.486328000000015 Q18.603516000000013 14.404296999999985 19.824218999999971 8.105468999999971 Q21.044922000000042 1.806641000000013 24.414062000000058 1.806641000000013 Q27.294922000000042 1.806641000000013 26.806641000000013 14.501953000000015 Q26.220702999999958 18.798828000000015 25.781250000000000 20.117187999999999 Q23.486327999999958 22.412108999999987 21.728516000000013 25.976562000000001 Q19.921875000000000 29.541016000000013 19.824218500000029 32.031250000000000 Q19.726562000000058 34.521483999999987 20.654297000000042 35.400391000000013 Q21.582031000000029 36.279296999999985 23.388672000000042 35.986328000000015 Q26.611327999999958 35.498046999999985 31.005858999999987 30.810546999999985 Q33.789062000000058 27.392578000000015 35.302733999999987 23.095703000000015 Q38.378906000000029 21.875000000000000 39.697266000000013 23.681641000000013 Q40.185547000000042 18.603516000000013 39.306641000000013 16.406250000000000 Q38.183593999999971 14.013671999999985 36.523437999999942 13.720703000000015 Q36.230468999999971 7.812500000000000 33.593750000000000 4.003905999999972 Q30.517577999999958 -0.097655999999972 25.390625000000000 -0.097655999999972 z" />
<glyph unicode="c" horiz-adv-x="36.376953" d="M15.332031000000001 37.695312000000001 Q22.753906000000029 37.695312000000001 26.806641000000013 31.787108999999987 Q30.908202999999958 26.171875000000000 29.052734500000042 20.898437500000000 Q27.197266000000013 15.625000000000000 19.433593999999971 16.210937999999999 Q19.531250000000000 17.529296999999985 19.287109500000042 24.267578000000015 Q19.042968999999971 31.005858999999987 17.919922000000042 33.886718999999971 Q17.626952999999958 35.009766000000013 17.041015499999958 35.009766000000013 Q16.455077999999958 35.009766000000013 15.820311999999944 32.910156000000029 Q14.599608999999987 27.294921999999985 15.332031000000029 20.410156000000029 Q16.162108999999987 5.859375000000000 22.998047000000042 2.978516000000013 Q25.683593999999971 1.855469000000028 28.320312000000058 2.685546999999985 Q33.105468999999971 3.906250000000000 35.205077999999958 8.496093999999971 Q35.888672000000042 10.400391000000013 35.644531000000029 11.816406000000029 Q36.865233999999987 10.595703000000015 36.572265499999958 8.447265500000015 Q36.279297000000042 6.298828000000015 34.814452999999958 4.394530999999972 Q31.103516000000013 -0.585937999999999 22.998047000000042 -0.585937999999999 Q10.888672000000042 -0.585937999999999 5.419922000000042 9.277343999999971 Q3.027343999999971 13.476562000000001 2.441406000000029 18.554687999999999 Q1.220702999999958 29.248046999999985 7.666016000000013 34.960937999999999 Q10.839843999999971 37.695312000000001 15.332031000000029 37.695312000000001 z" />
<glyph unicode="d" horiz-adv-x="44.189453" d="M19.482422000000000 33.398437999999999 Q14.648438000000056 32.714843999999971 13.574218999999971 25.976562500000000 Q12.500000000000000 19.238281000000029 13.964843999999971 12.109375000000000 Q15.429688000000056 4.980469000000028 17.089843999999971 4.980469000000028 Q18.798827999999958 4.980469000000028 19.091797000000042 18.310546999999985 Q19.091797000000042 22.802733999999987 18.994141000000013 25.000000000000000 Q19.189452999999958 28.906250000000000 19.091797000000042 30.419921999999985 Q19.287108999999987 33.105468999999971 19.482422000000042 33.398437999999999 zM31.982422000000000 -0.390625000000000 Q23.681641000000013 -0.390625000000000 20.996093999999971 22.412108999999987 Q20.605468999999971 22.412108999999987 20.654297000000042 20.361328000000015 Q20.703125000000000 18.310546999999985 20.849608999999987 13.916016000000013 Q20.996093999999971 9.521483999999987 20.214843999999971 5.712891000000013 Q18.798827999999958 -0.097655999999972 15.185547000000042 -0.097655999999972 Q8.984375000000000 -0.097655999999972 5.175781499999971 6.787109499999985 Q1.367187999999942 13.671875000000000 1.171875000000000 22.363281000000029 Q0.976561999999944 31.054687999999999 5.859375000000000 35.449218999999971 Q10.742188000000056 39.794921999999985 19.677733999999987 35.595703000000015 Q19.677733999999987 36.230468999999971 19.189452999999958 43.457031499999971 Q18.701172000000042 50.683593999999971 17.675781000000029 55.517578000000015 Q17.187500000000000 57.226562000000001 16.406250000000000 57.714843999999971 Q23.730468999999971 59.716796999999985 27.783202999999958 53.808593999999971 Q30.664062000000058 49.414062000000001 31.884766000000013 39.111328000000015 Q32.275391000000013 36.230468999999971 32.714843999999971 30.175781000000029 Q33.203125000000000 13.037108999999987 35.595702999999958 9.716796999999985 Q36.718750000000000 8.105469000000028 38.574218999999971 8.300781000000029 Q40.380858999999987 8.789062000000001 43.408202999999958 11.621093999999971 Q40.185547000000042 5.810546999999985 37.109375000000000 2.294921999999985 Q34.130858999999987 -0.390625000000000 31.982422000000042 -0.390625000000000 z" />
<glyph unicode="e" horiz-adv-x="37.695312000000001" d="M17.138672000000000 35.791015999999999 Q15.820311999999944 35.791016000000013 15.527343999999971 33.593750000000000 Q14.306641000000013 28.076171999999985 15.820311999999944 20.214843999999971 Q16.308593999999971 16.699218999999971 17.724608999999987 12.402343999999971 Q20.605468999999971 14.648437999999999 20.996093999999971 20.117187999999999 Q21.386718999999971 25.585937999999999 20.312500000000000 29.394531000000029 Q19.335937999999942 33.203125000000000 18.652343999999971 34.521483999999987 Q17.724608999999987 35.791016000000013 17.138672000000042 35.791016000000013 zM15.722656000000001 37.695312000000001 Q24.218750000000000 37.695312000000001 29.199218999999971 31.201171499999987 Q34.179687999999942 24.707031000000029 31.738281000000029 17.871093999999971 Q29.345702999999958 11.035156000000029 18.847656000000029 10.107421999999985 Q21.337891000000013 4.394530999999972 24.853516000000013 3.076171999999985 Q30.371093999999971 1.171875000000000 35.058593999999971 4.980469000000028 Q39.062500000000000 8.886718999999971 38.037108999999987 12.109375000000000 Q39.257812000000058 10.791016000000013 39.111327999999958 8.593750000000000 Q38.964843999999971 6.396483999999987 37.353516000000013 4.394530999999972 Q33.056641000000013 -0.585937999999999 25.244141000000013 -0.585937999999999 Q13.134766000000013 -0.585937999999999 7.128906000000029 9.277343999999971 Q1.611327999999958 17.968750000000000 4.052733999999987 27.783203000000015 Q5.273438000000056 32.226562000000001 8.251953500000013 34.960937000000001 Q11.230468999999971 37.695312000000001 15.722656000000029 37.695312000000001 z" />
<glyph unicode="f" horiz-adv-x="30.664062000000001" d="M18.212890999999999 60.302734000000001 Q25.830077999999958 60.302733999999987 29.443359500000042 55.664062500000000 Q33.056641000000013 51.025391000000013 30.419922000000042 47.802733999999987 Q27.539062000000058 43.798828000000015 19.189452999999958 46.386718999999971 Q20.507811999999944 46.582031000000029 20.996093999999971 49.804687999999999 Q21.582031000000029 52.392578000000015 21.093750000000000 55.419921999999985 Q20.410156000000029 58.300781000000029 18.603516000000013 58.300781000000029 Q16.308593999999971 58.300781000000029 16.503906000000029 54.296875000000000 Q16.406250000000000 51.074218999999971 17.822266000000013 43.798828000000015 Q21.533202999999958 43.408203000000015 23.974609500000042 42.968750000000000 Q26.416016000000013 42.529296999999985 27.099608999999987 42.919921999999985 Q27.099608999999987 36.523437999999999 19.287108999999987 36.914062000000001 Q22.607422000000042 22.119141000000013 23.925781000000029 14.306641000000013 Q25.830077999999958 1.416016000000013 24.023437999999942 -4.589844000000028 Q21.630858999999987 -12.207031000000029 12.988281000000029 -10.693358999999987 Q15.576172000000042 -9.570312000000001 14.599608999999987 -1.318358999999987 Q14.111327999999958 2.392578000000015 10.693358999999987 17.382812000000001 Q7.470702999999958 30.566406000000029 6.689452999999958 38.623046999999985 Q4.199218999999971 38.818358999999987 3.125000000000000 38.281250000000000 Q1.416016000000013 43.066406000000029 6.396483999999987 43.994141000000013 Q5.957031000000029 60.302733999999987 18.212891000000013 60.302733999999987 z" />
<glyph unicode="g" horiz-adv-x="34.960937999999999" d="M19.091797000000000 21.240234000000001 Q19.091797000000042 30.468750000000000 20.996093999999971 33.789062000000001 Q15.917968999999971 33.789062000000001 14.013672000000042 27.197266000000013 Q11.914062000000058 19.580078000000015 15.185547000000042 10.302733999999987 Q16.015625000000000 8.398437999999999 16.894531000000029 8.398437999999999 Q18.017577999999958 8.398437999999999 18.310547000000042 9.814453000000015 Q19.091797000000042 12.011718999999971 19.091797000000042 21.240233999999987 zM21.191406000000001 14.501953000000000 Q21.191406000000029 3.515625000000000 15.087891000000013 3.515625000000000 Q8.691406000000029 3.515625000000000 4.785156000000029 10.498046999999985 Q0.976562000000058 16.796875000000000 1.269531000000029 25.000000000000000 Q1.562500000000000 33.203125000000000 6.396483999999987 36.376953000000015 Q12.060547000000042 39.990233999999987 21.777343999999971 34.814453000000015 Q23.046875000000000 37.011718999999971 26.171875000000000 36.914062500000000 Q29.296875000000000 36.816406000000029 32.470702999999958 34.082031000000029 Q31.250000000000000 34.082031000000029 30.908202999999958 32.714843999999971 Q29.931641000000013 29.931641000000013 31.494141000000013 19.921875000000000 Q33.496093999999971 8.544921999999985 33.691406000000029 7.617187999999999 Q35.888672000000042 -4.394530999999972 30.371093999999971 -9.423828000000015 Q25.585937999999942 -13.818358999999987 17.773437999999942 -12.207031000000029 Q9.863281000000029 -10.791016000000013 6.787108999999987 -6.298828000000015 Q2.978516000000013 -1.220703000000015 8.691406000000029 3.222655999999972 Q8.496093999999971 2.001953000000015 10.644531000000029 0.488280999999972 Q12.792968999999971 -0.976562000000001 17.187500000000000 -0.976562000000001 Q21.582031000000029 -0.976562000000001 22.900391000000013 2.880858999999987 Q23.779297000000042 5.664062000000001 22.900391000000013 11.621093999999971 Q22.802733999999987 13.330078000000015 22.314452999999958 16.357421999999985 Q21.826172000000042 19.384766000000013 21.777343999999971 20.703125000000000 Q21.386718999999971 20.703125000000000 21.386718999999971 19.287108999999987 Q21.191406000000029 18.310546999999985 21.191406000000029 14.501953000000015 z" />
<glyph unicode="h" horiz-adv-x="44.677734000000001" d="M17.089843999999999 25.146484000000001 Q17.089843999999971 16.992187999999999 16.992187999999942 15.576171999999985 Q17.187500000000000 13.085937999999999 17.578125000000000 13.183593999999971 Q17.968750000000000 13.281250000000000 17.968750000000000 16.503906000000029 Q17.968750000000000 19.726562000000001 18.359375000000000 26.025391000000013 Q18.798827999999958 32.373046999999985 22.216797000000042 35.791016000000013 Q23.828125000000000 37.695312000000001 27.099608999999987 37.695312000000001 Q31.103516000000013 37.695312000000001 32.812500000000000 31.982421999999985 Q33.691406000000029 29.394531000000029 34.667968500000029 21.093750000000000 Q35.644531000000029 12.792968999999971 37.011718999999971 10.888671999999985 Q38.867187999999942 7.666016000000013 43.701172000000042 11.376953000000015 Q43.017577999999958 8.056641000000013 39.208983999999987 4.003905999999972 Q35.595702999999958 -0.097655999999972 32.617187999999942 -0.097655999999972 Q28.515625000000000 -0.097655999999972 26.416016000000013 4.492187999999999 Q24.072266000000013 10.253906000000029 23.876952999999958 19.921875000000000 Q23.779297000000042 24.707031000000029 23.193358999999987 27.880858999999987 Q22.802733999999987 29.101562000000001 22.314452999999958 29.101562000000001 Q21.093750000000000 29.101562000000001 20.507812000000058 27.001953000000015 Q19.384766000000013 22.314453000000015 19.580078500000013 14.746093500000029 Q19.775391000000013 7.177733999999987 20.898437999999942 2.099608999999987 Q21.191406000000029 -0.097655999999972 21.679687999999942 -0.097655999999972 Q14.794922000000042 -2.392578000000015 10.888672000000042 2.685546999999985 Q7.666016000000013 6.689453000000015 5.810547000000042 16.406250000000000 Q4.492188000000056 24.316406000000029 4.199218999999971 34.521483999999987 C4.101562666666723 37.386067333333358 3.979492250000021 40.966796499999987 3.906250000000000 43.115233999999987 Q3.417968999999971 57.373046999999985 0.976561999999944 57.617187999999999 Q8.496093999999971 59.912108999999987 12.500000000000000 53.808593999999971 Q17.089843999999971 46.289062000000001 17.089843999999971 25.146483999999987 z" />
<glyph unicode="i" horiz-adv-x="27.099609000000001" d="M9.912108999999999 35.302734000000001 Q15.722656000000029 35.302733999999987 17.382812000000058 29.199218999999971 Q18.701172000000042 25.292968999999971 18.701172000000042 17.187500000000000 Q18.701172000000042 9.082031000000029 19.433593999999971 7.812500000000000 Q20.166016000000013 6.542968999999971 21.630858999999987 7.031250000000000 Q23.095702999999958 7.470703000000015 26.123047000000042 10.693358999999987 Q25.097656000000029 8.105468999999971 23.339843999999971 5.468750000000000 Q19.189452999999958 -0.585937999999999 14.843750000000000 -0.585937999999999 Q10.498047000000042 -0.585937999999999 8.691406000000029 4.589844000000028 Q7.080077999999958 8.593750000000000 6.689452999999958 15.820312000000001 Q6.396483999999987 18.750000000000000 6.396483999999987 20.605468999999971 Q6.396483999999987 22.460937999999999 6.103516000000013 25.341796999999985 Q5.810547000000042 28.222656000000029 5.273437500000000 28.857421999999985 Q4.736327999999958 29.492187999999999 3.613281000000029 28.808593999999971 Q4.589843999999971 32.714843999999971 6.884766000000013 34.423828000000015 Q7.763672000000042 35.302733999999987 9.912108999999987 35.302733999999987 zM0.976562000000000 50.585937999999999 Q4.980468999999971 55.566406000000029 9.423827999999958 54.492187999999999 Q11.230468999999971 54.101562000000001 12.695311999999944 52.636718999999971 Q16.015625000000000 49.267578000000015 14.501952999999958 41.699218999999971 Q14.111327999999958 40.185546999999985 13.378906000000029 38.183593999999971 Q9.667968999999971 37.597656000000029 7.910156000000029 38.281250000000000 Q4.492187999999942 39.501953000000015 3.710938000000056 43.603516000000013 Q3.613281000000029 44.824218999999971 3.222656000000029 47.021483999999987 Q2.880858999999987 50.585937999999999 0.976561999999944 50.585937999999999 z" />
<glyph unicode="j" horiz-adv-x="27.880859000000001" d="M13.916016000000001 -18.115234000000001 Q6.298827999999958 -18.115233999999987 2.587891000000013 -13.085937999999999 Q1.171875000000000 -11.181641000000013 1.074218500000029 -8.984375000000000 Q0.976561999999944 -6.787108999999987 2.294922000000042 -5.175780999999972 Q5.615233999999987 -1.562500000000000 13.720702999999958 -4.394530999999972 Q12.597656000000029 -4.492187999999999 11.718750000000000 -7.714844000000028 Q10.839843999999971 -10.205078000000015 11.181641000000013 -13.085937999999999 Q11.865233999999987 -16.064453000000015 13.378906000000029 -16.113281000000029 Q17.675781000000029 -16.113281000000029 16.503906000000029 -7.421875000000000 Q16.503906000000029 -6.738281000000029 15.185547000000042 1.513671999999985 Q12.500000000000000 13.427733999999987 11.718750000000000 21.093750000000000 Q10.937500000000000 31.103516000000013 15.185547000000042 33.984375000000000 Q17.431641000000013 35.644531000000029 22.314452999999958 34.521483999999987 Q21.630858999999987 33.642578000000015 22.021483999999987 31.201171999999985 Q22.216797000000042 27.978516000000013 24.609375000000000 16.943358999999987 Q27.001952999999958 5.957030999999972 26.904297000000042 -2.929687500000000 Q26.806641000000013 -11.816406000000029 21.484375000000000 -16.015625000000000 Q18.798827999999958 -18.115233999999987 13.916016000000013 -18.115233999999987 zM8.984375000000000 50.585937999999999 Q12.988281000000029 55.566406000000029 17.382812000000058 54.492187999999999 Q19.287108999999987 54.101562000000001 20.703125000000000 52.685546499999987 Q22.119141000000013 51.269531000000029 22.607422000000042 49.414062000000001 Q23.388672000000042 45.507812000000001 22.656250000000000 42.382812000000001 Q21.923827999999958 39.257812000000001 21.386718999999971 38.183593999999971 Q12.988281000000029 36.767578000000015 11.816406000000029 43.603516000000013 Q11.181641000000013 45.849608999999987 11.181641000000013 47.021483999999987 Q10.888672000000042 50.585937999999999 8.984375000000000 50.585937999999999 z" />
<glyph unicode="k" horiz-adv-x="45.996093999999999" d="M23.681640999999999 29.101562000000001 Q20.605468999999971 29.101562000000001 20.605468999999971 15.722656000000029 Q25.000000000000000 16.699218999999971 25.781250000000000 22.900391000000013 Q25.781250000000000 29.101562000000001 23.681641000000013 29.101562000000001 zM19.384765999999999 17.578125000000000 Q18.505858999999987 37.695312000000001 28.613281000000029 37.695312000000001 Q34.033202999999958 37.695312000000001 36.914062000000058 31.982421999999985 Q39.306641000000013 26.269531000000029 36.718750000000000 21.093750000000000 Q33.740233999999987 14.794921999999985 25.976562000000058 14.013671999999985 Q42.480468999999971 3.515625000000000 45.019531000000029 10.302733999999987 Q42.919922000000042 1.318358999999987 39.013672000000042 -0.488280999999972 Q35.791016000000013 -2.050780999999972 31.884766000000013 0.781250000000000 Q26.074218999999971 5.029296999999985 20.605468999999971 13.916016000000013 Q20.898437999999942 3.710937999999999 22.216797000000042 1.123046999999985 Q22.509766000000013 -0.097655999999972 23.095702999999958 -0.097655999999972 Q16.503906000000029 -2.392578000000015 12.597656000000029 2.490233999999987 Q8.886718999999971 6.689453000000015 7.324218999999971 16.113281000000029 Q6.054687999999942 21.630858999999987 5.371093999999971 28.662108999999987 Q4.687500000000000 35.742187999999999 4.394531000000029 38.671875000000000 Q4.101561999999944 41.601562000000001 3.808593999999971 46.582031000000029 Q3.515625000000000 51.562500000000000 2.636718999999971 54.394531000000029 Q1.757811999999944 57.324218999999971 0.976561999999944 57.617187999999999 Q8.056641000000013 61.132812000000001 12.207031000000029 55.712891000000013 Q17.333983999999987 48.339843999999971 17.919922000000042 24.414062000000001 Q18.115233999999987 20.214843999999971 18.408202999999958 18.408203000000015 Q18.408202999999958 15.820312000000001 18.994141000000013 16.113281000000029 Q19.384766000000013 16.406250000000000 19.384766000000013 17.578125000000000 z" />
<glyph unicode="l" horiz-adv-x="29.052734000000001" d="M28.076172000000000 11.621093999999999 Q21.582031000000029 -0.390625000000000 16.699218999999971 -0.390625000000000 Q10.595702999999958 -0.390625000000000 7.666015499999958 7.958984499999985 Q4.736327999999958 16.308593999999971 4.101561999999944 37.988281000000029 Q3.515625000000000 50.976562000000001 2.832031499999971 54.052733999999987 Q2.148438000000056 57.128906000000029 0.976561999999944 57.714843999999971 Q8.398438000000056 59.814453000000015 12.402343999999971 53.808593999999971 Q15.283202999999958 49.121093999999971 16.699218999999971 39.111328000000015 Q17.285156000000029 30.419921999999985 17.529297000000042 25.195312000000001 Q18.115233999999987 12.451171999999985 20.263672000000042 9.667968999999971 Q21.435547000000042 8.105469000000028 23.291016000000013 8.300781000000029 Q25.097656000000029 8.789062000000001 28.076172000000042 11.621093999999971 z" />
<glyph unicode="m" horiz-adv-x="57.568359000000001" d="M31.787109000000001 13.183593999999999 Q32.177733999999987 13.183593999999971 32.128906000000029 15.917968999999971 Q32.080077999999958 18.652343999999971 32.031250000000000 23.339843999999971 Q31.982422000000042 28.076171999999985 33.105468999999971 31.298828000000015 Q34.765625000000000 37.695312000000001 40.087891000000013 37.695312000000001 Q44.189452999999958 37.695312000000001 45.898437999999942 31.982421999999985 Q46.191406000000029 31.005858999999987 47.802733999999987 20.410156000000029 Q48.779297000000042 12.597656000000029 49.902343999999971 10.986328000000015 Q51.074218999999971 9.375000000000000 52.539062500000000 9.375000000000000 Q54.003906000000029 9.375000000000000 56.591797000000042 11.376953000000015 Q55.908202999999958 8.105468999999971 52.197265499999958 4.003906499999971 Q48.486327999999958 -0.097655999999972 45.605468999999971 -0.097655999999972 Q41.308593999999971 -0.097655999999972 39.501952999999958 4.492187999999999 Q36.816406000000029 9.960937999999999 36.816406000000029 21.582031000000029 Q36.816406000000029 24.902343999999971 36.328125000000000 27.001953000000015 Q35.839843999999971 29.101562000000001 35.205077999999958 29.101562000000001 Q34.228516000000013 29.101562000000001 33.886718999999971 27.001953000000015 Q33.105468999999971 22.509766000000013 33.886718999999971 14.501953000000015 Q34.375000000000000 6.542968999999971 35.253906000000029 3.027344000000028 Q36.132812000000058 -0.488280999999972 36.621093999999971 -0.585937999999999 Q29.199218999999971 -2.099608999999987 25.390625000000000 2.001953000000015 Q22.509766000000013 5.224608999999987 21.484375000000000 12.402343999999971 Q21.386718999999971 13.378905999999972 20.703125000000000 23.779296999999985 C20.670572999999990 25.081380333333357 20.629882999999950 26.708984499999985 20.605468999999971 27.685546999999985 Q20.312500000000000 29.101562000000001 19.531250000000000 29.101562000000001 Q18.750000000000000 29.101562000000001 18.115233999999987 25.585937999999999 Q17.431641000000013 22.070312000000001 17.822266000000013 14.697266000000013 Q18.017577999999958 6.835937999999999 18.750000000000000 3.417969000000028 Q19.482422000000042 0.000000000000000 20.117187999999942 -0.097655999999972 Q12.792968999999971 -2.001953000000015 8.984375000000000 3.222656500000028 Q5.175781000000029 8.447266000000013 4.199218999999971 22.119141000000013 Q3.515625000000000 29.931641000000013 2.685547000000042 31.103516000000013 Q2.197266000000013 32.324218999999971 0.976561999999944 31.396483999999987 Q2.587891000000013 34.619141000000013 6.005858999999987 36.718750000000000 Q7.617188000000056 37.695312000000001 9.912108999999987 37.695312000000001 Q13.427733999999987 37.695312000000001 14.599608999999987 31.396483999999987 Q14.794922000000042 30.175781000000029 15.087891000000013 19.824218999999971 C15.087891000000013 18.245443000000023 15.087891000000013 16.271973000000003 15.087891000000013 15.087891000000013 Q15.087891000000013 13.134766000000013 15.722656000000029 13.281250000000000 Q16.015625000000000 13.378906000000029 16.015625000000000 15.527343500000029 Q16.015625000000000 17.675781000000029 16.210937999999942 19.482421999999985 Q15.722656000000029 37.695312000000001 24.609375000000000 37.695312000000001 Q28.027343999999971 37.695312000000001 29.687500000000000 31.298828000000015 Q30.664062000000058 27.001953000000015 30.908202999999958 19.580078000000015 C31.005859333333319 18.050130000000024 31.127929750000021 16.137695000000008 31.201172000000042 14.990233999999987 Q31.396483999999987 13.183593999999971 31.787108999999987 13.183593999999971 z" />
<glyph unicode="n" horiz-adv-x="43.994140999999999" d="M10.009766000000001 37.695312000000001 Q16.357422000000042 37.695312000000001 16.015625000000000 19.824218999999971 Q16.015625000000000 13.134766000000013 16.455077999999958 13.232421999999985 Q16.894531000000029 13.378906000000029 16.992187999999942 14.990233999999987 Q17.285156000000029 23.193358999999987 17.578125000000000 25.390625000000000 Q18.554687999999942 32.812500000000000 21.679687999999942 35.791016000000013 Q23.291016000000013 37.695312000000001 26.416016000000013 37.695312000000001 Q30.322266000000013 37.695312000000001 32.177733999999987 31.982421999999985 Q33.056641000000013 29.394531000000029 34.179687999999942 20.410156000000029 Q34.863281000000029 13.281250000000000 36.035156000000029 11.328125000000000 Q37.207031000000029 9.375000000000000 38.916016000000013 9.423828000000015 Q40.527343999999971 9.228516000000013 43.017577999999958 11.376953000000015 Q42.333983999999987 8.154296999999985 38.623047000000042 4.003905999999972 Q34.716797000000042 -0.097655999999972 31.884766000000013 -0.097655999999972 Q26.806641000000013 -0.097655999999972 24.707031000000029 7.519530999999972 Q23.925781000000029 10.498046999999985 23.437500000000000 16.650390500000015 Q22.949218999999971 22.802733999999987 22.851562000000058 24.707031000000029 Q22.705077999999958 26.611328000000015 22.705077999999958 27.001953000000015 Q22.412108999999987 29.101562000000001 21.386718999999971 29.101562000000001 Q19.287108999999987 29.101562000000001 18.896483999999987 14.501953000000015 Q18.701172000000042 6.738280999999972 19.140625000000000 3.320312500000000 Q19.580077999999958 -0.097655999999972 20.117187999999942 -0.097655999999972 Q12.695311999999944 -2.001953000000015 9.082031000000029 3.222655999999972 Q4.687500000000000 8.935546999999985 4.296875000000000 22.119141000000013 Q3.613281000000029 29.541016000000013 2.832031000000029 30.859375000000000 Q2.050781000000029 32.177733999999987 0.976561999999944 31.396483999999987 Q2.685547000000042 34.716796999999985 6.005858999999987 36.718750000000000 Q7.617188000000056 37.695312000000001 10.009766000000013 37.695312000000001 z" />
<glyph unicode="o" horiz-adv-x="37.060547" d="M24.902343999999999 32.714843999999999 Q24.267577999999958 32.714843999999971 24.365234500000042 32.226562500000000 Q24.462891000000013 31.738281000000029 26.220702999999958 29.199218999999971 Q27.978516000000013 26.708983999999987 31.591797000000042 24.316406000000029 Q31.298827999999958 25.781250000000000 29.931640499999958 27.734375000000000 Q28.564452999999958 29.687500000000000 28.076172000000042 30.371093999999971 Q27.587891000000013 31.054687999999999 26.513672000000042 31.835937999999999 Q25.439452999999958 32.666016000000013 24.902343999999971 32.714843999999971 zM24.072265999999999 1.708984000000000 Q25.341797000000042 1.708983999999987 25.683593999999971 3.076171999999985 Q26.269531000000029 5.761719000000028 25.976562000000058 12.792968999999971 Q25.781250000000000 13.916016000000013 25.537109500000042 15.966796999999985 Q25.292968999999971 18.017578000000015 25.097656000000029 19.091796999999985 Q18.310547000000042 26.269531000000029 18.310547000000042 32.421875000000000 Q18.115233999999987 36.621093999999971 21.777343999999971 35.986328000000015 Q25.195312000000058 35.498046999999985 29.394531000000029 30.810546999999985 Q31.982422000000042 27.929687999999999 33.984375000000000 23.095703000000015 Q36.767577999999958 21.972656000000029 38.085937999999942 23.681641000000013 Q39.062500000000000 16.064453000000015 36.181641000000013 14.111328000000015 Q36.474608999999987 7.910155999999972 34.082031000000029 4.003905999999972 Q31.103516000000013 -0.292969000000028 25.097656000000029 -0.292969000000028 Q14.892577999999958 -0.292968999999971 7.812500000000000 10.107421999999985 Q1.513672000000042 19.726562000000001 3.710938000000056 28.710937999999999 Q4.687500000000000 33.105468999999971 8.447265499999958 35.351562500000000 Q12.207031000000029 37.597656000000029 18.408202999999958 36.718750000000000 Q16.113281000000029 35.205078000000015 16.796875000000000 26.416016000000013 Q16.992187999999942 17.431641000000013 19.189452999999958 10.107421999999985 Q20.068358999999987 6.494141000000013 21.435547000000042 4.101562000000001 Q22.802733999999987 1.708983999999987 24.072266000000013 1.708983999999987 z" />
<glyph unicode="p" horiz-adv-x="38.085937999999999" d="M21.533203000000000 29.101562000000001 Q20.800781000000029 29.101562000000001 20.507812000000058 27.197266000000013 Q19.287108999999987 22.802733999999987 19.189452999999958 14.990233999999987 C19.091796666666710 12.223306999999977 18.969726250000008 8.764648249999993 18.896483999999987 6.689453000000015 Q22.802733999999987 3.808594000000028 24.023437999999942 9.619141000000013 Q25.830077999999958 18.164062000000001 23.095702999999958 27.099608999999987 Q22.265625000000000 29.101562000000001 21.533202999999958 29.101562000000001 zM10.107422000000000 37.695312000000001 Q16.455077999999958 37.695312000000001 16.113281000000029 19.824218999999971 C16.080729000000019 18.245443000000023 16.040038999999979 16.271973000000003 16.015625000000000 15.087891000000013 Q16.015625000000000 13.867187999999999 16.259765499999958 13.427734499999985 Q16.503906000000029 12.988281000000029 16.748047000000042 13.427733999999987 Q17.285156000000029 14.404296999999985 17.285156000000029 19.482421999999985 Q17.724608999999987 37.695312000000001 26.513672000000042 37.695312000000001 Q31.835937999999942 37.695312000000001 35.107422000000042 29.199218999999971 Q37.695312000000058 21.484375000000000 36.865233999999987 12.011718500000029 Q36.035156000000029 2.539062000000001 31.689452999999958 0.097655999999972 Q26.611327999999958 -2.978516000000013 18.896483999999987 5.419921999999985 Q18.896483999999987 -8.886718999999971 19.677733999999987 -13.281250000000000 Q19.775391000000013 -14.990233999999987 20.117187999999942 -14.990233999999987 Q14.111327999999958 -16.699218999999971 10.595702999999958 -11.718750000000000 Q5.664062000000058 -5.664062000000001 4.492188000000056 14.550781000000029 Q3.906250000000000 24.023437999999999 3.515625000000000 27.783203000000015 Q3.125000000000000 29.589843999999971 2.490233999999987 31.103516000000013 Q1.953125000000000 32.080078000000015 0.976561999999944 31.396483999999987 Q2.392577999999958 34.472656000000029 6.103516000000013 36.718750000000000 Q7.714843999999971 37.695312000000001 10.107422000000042 37.695312000000001 z" />
<glyph unicode="q" horiz-adv-x="41.259765999999999" d="M16.992187999999999 8.398438000000001 Q17.871093999999971 8.398437999999999 18.408202999999958 9.814453000000015 Q18.896483999999987 11.816406000000029 19.091796499999987 19.433593500000029 Q19.287108999999987 27.050781000000029 19.775391000000013 29.687500000000000 Q19.873047000000042 31.591796999999985 20.898437999999942 33.789062000000001 Q15.722656000000029 33.789062000000001 14.111327999999958 27.197266000000013 Q12.500000000000000 21.679687999999999 13.916016000000013 14.990233999999987 Q14.355468999999971 12.402343999999971 15.234375000000000 10.400391000000013 Q16.113281000000029 8.398437999999999 16.992187999999942 8.398437999999999 zM32.373047000000000 34.082031000000001 Q31.396483999999987 34.082031000000029 32.031250000000000 25.292968999999971 Q32.617187999999942 16.503906000000029 33.203125000000000 12.255858999999987 Q33.789062000000058 8.007812000000001 34.570312000000058 1.318358999999987 Q39.257812000000058 0.537108999999987 40.576172000000042 0.878905999999972 Q40.576172000000042 -4.003905999999972 35.595702999999958 -4.882812000000001 Q37.109375000000000 -12.890625000000000 38.476562000000058 -15.576171999999985 Q32.714843999999971 -16.357421999999985 29.101562500000000 -13.037109499999985 Q25.488281000000029 -9.716796999999985 23.876952999999958 -3.710937999999999 Q18.457031000000029 -2.832030999999972 16.699218999999971 -3.613280999999972 Q15.576172000000042 -0.292968999999971 17.236327999999958 0.976562500000000 Q18.896483999999987 2.246094000000028 22.607422000000042 2.392578000000015 Q22.021483999999987 5.908203000000015 21.777343999999971 13.085937999999999 C21.777343999999971 15.625000333333332 21.777343999999971 18.798828249999985 21.777343999999971 20.703125000000000 Q21.093750000000000 20.703125000000000 20.996093999999971 19.726562500000000 Q20.898437999999942 18.750000000000000 20.703125000000000 16.308593999999971 Q20.703125000000000 10.107421999999985 20.117187999999942 7.910155999999972 Q18.994141000000013 3.515625000000000 15.087891000000013 3.515625000000000 Q8.691406000000029 3.515625000000000 4.785156000000029 10.498046999999985 Q0.976561999999944 16.796875000000000 1.269531000000029 24.902343999999971 Q1.464843999999971 33.007812000000001 6.298827999999958 36.376953000000015 Q12.158202999999958 39.990233999999987 21.875000000000000 34.814453000000015 Q22.851562000000058 37.011718999999971 26.123046499999987 36.914062500000000 Q29.394531000000029 36.816406000000029 32.373047000000042 34.082031000000029 z" />
<glyph unicode="r" horiz-adv-x="40.478515999999999" d="M19.189453000000000 12.060547000000000 Q19.189452999999958 -0.097656000000029 20.117187999999942 -0.097655999999972 Q12.792968999999971 -2.001953000000015 9.082031000000029 3.222655999999972 Q5.859375000000000 7.617187999999999 4.980468999999971 15.380858999999987 Q4.492188000000056 18.457031000000029 4.052734500000042 24.121093500000029 Q3.613281000000029 29.785156000000029 2.685547000000042 31.103516000000013 Q2.197266000000013 32.177733999999987 0.976561999999944 31.396483999999987 Q2.587891000000013 34.619141000000013 6.103516000000013 36.718750000000000 Q7.714843999999971 37.695312000000001 10.009766000000013 37.695312000000001 Q14.013672000000042 37.695312000000001 15.380858999999987 31.396483999999987 Q16.503906000000029 26.513671999999985 16.113281000000029 19.824218999999971 C16.113281000000029 18.245443000000023 16.113281000000029 16.271973000000003 16.113281000000029 15.087891000000013 Q16.015625000000000 13.281250000000000 16.503906499999971 13.183593999999971 Q16.992187999999942 13.085937999999999 17.089843999999971 14.990233999999987 Q16.894531000000029 20.312500000000000 17.675781000000029 26.123046999999985 Q18.164062000000058 33.203125000000000 21.582031000000029 37.207031000000029 Q23.486327999999958 39.111328000000015 26.416016000000013 39.111328000000015 Q30.322266000000013 39.111328000000015 31.494141000000013 35.009766000000013 Q31.884766000000013 33.886718999999971 32.421875000000000 26.708983999999987 Q32.226562000000058 21.923828000000015 33.496093999999971 20.507812000000001 Q34.619141000000013 18.505858999999987 39.501952999999958 22.509766000000013 Q38.916016000000013 19.189453000000015 35.205077999999958 15.087891000000013 Q31.396483999999987 11.083983999999987 28.515625000000000 11.083983999999987 Q23.437500000000000 11.083983999999987 22.216797000000042 16.113281000000029 Q21.435547000000042 19.628906000000029 22.216797000000042 25.488281000000029 Q22.314452999999958 27.001953000000015 22.314452999999958 28.808593500000029 Q22.314452999999958 30.615233999999987 21.386718999999971 30.615233999999987 Q20.800781000000029 30.615233999999987 20.312500000000000 28.320312000000001 Q19.189452999999958 24.218750000000000 19.189452999999958 12.060546999999985 z" />
<glyph unicode="s" horiz-adv-x="29.785156000000001" d="M6.787109000000000 14.404297000000000 Q7.470702999999958 10.400391000000013 12.988281000000029 11.523437999999999 Q17.480468999999971 12.304687999999999 22.167968999999971 15.478516000000013 Q24.365233999999987 16.894531000000029 25.195312000000058 18.115233999999987 Q26.904297000000042 20.214843999999971 24.072266000000013 20.800781000000029 Q19.824218999999971 21.582030999999972 15.380858999999987 20.703125000000000 Q12.060547000000042 20.312500000000000 7.080077999999958 19.287108999999987 Q2.099608999999987 25.976562000000001 5.175781000000029 31.494141000000013 Q8.056641000000013 36.376953000000015 14.697266000000013 37.890625000000000 Q21.337891000000013 39.404296999999985 25.878906000000029 35.791016000000013 Q30.468750000000000 32.177733999999987 28.955077999999958 23.681641000000013 Q27.685547000000042 27.783203000000015 23.779297000000042 27.880859499999985 Q19.873047000000042 27.978516000000013 15.087891000000013 25.781250000000000 Q11.083983999999987 23.583983999999987 10.400391000000013 21.679687999999999 Q20.117187999999942 23.583983999999987 25.488281000000029 22.021483999999987 Q29.101562000000058 20.703125000000000 30.371093999999971 18.310546999999985 Q33.691406000000029 12.500000000000000 29.882812000000058 6.982421999999985 Q26.464843999999971 2.490233999999987 19.775391000000013 0.390625000000000 Q13.281250000000000 -1.416016000000013 9.179688000000056 1.806641000000013 Q4.443358999999987 5.419921999999985 6.787108999999987 14.404296999999985 z" />
<glyph unicode="t" horiz-adv-x="31.787109000000001" d="M15.576172000000000 -0.781250000000000 Q10.595702999999958 -0.781250000000000 8.105468999999971 4.394530999999972 Q6.005858999999987 8.496093999999971 5.322266000000013 16.503906000000029 Q4.638672000000042 22.021483999999987 4.589843999999971 31.201171999999985 C3.792318000000023 31.363932333333310 2.795410500000003 31.567382749999979 2.197266000000013 31.689453000000015 Q1.171875000000000 31.689453000000015 1.025391000000013 31.347656000000029 Q2.539061999999944 35.302733999999987 7.324218999999971 39.697266000000013 Q11.914061999999944 43.701171999999985 12.792968999999971 46.386718999999971 Q14.746093999999971 43.701171999999985 15.917968999999971 38.183593999999971 Q23.095702999999958 37.988281000000029 23.876952999999958 39.404296999999985 Q23.876952999999958 30.908203000000015 16.796875000000000 29.785156000000029 Q16.992187999999942 28.466796999999985 17.236328500000013 21.337890500000015 Q17.480468999999971 14.208983999999987 18.798827999999958 10.595703000000015 Q20.410156000000029 5.908203000000015 24.804687999999942 7.617187999999999 Q26.904297000000042 8.203125000000000 30.810547000000042 11.376953000000015 Q27.587891000000013 5.468750000000000 22.412108999999987 2.099608999999987 Q18.310547000000042 -0.781250000000000 15.576172000000042 -0.781250000000000 zM0.976562000000000 31.298828000000000 C0.988769250000018 31.298828000000015 1.013183750000053 31.298828000000015 1.025391000000013 31.298828000000015 C1.013183750000053 31.298828000000015 0.988769250000018 31.298828000000015 0.976561999999944 31.298828000000015 z" />
<glyph unicode="u" horiz-adv-x="40.966797" d="M15.722656000000001 -0.097656000000000 Q9.521483999999987 -0.097655999999972 6.396483999999987 5.615233999999987 Q3.759766000000013 10.253906000000029 2.978516000000013 21.630858999999987 Q2.880858999999987 23.925781000000029 2.832031000000029 28.320312000000001 Q2.734375000000000 37.109375000000000 0.976561999999944 37.109375000000000 Q11.474608999999987 42.333983999999987 14.697266000000013 31.494141000000013 Q16.503906000000029 25.390625000000000 16.601562500000000 17.480468500000029 Q16.699218999999971 9.570312000000001 17.089843999999971 7.031250000000000 Q17.480468999999971 4.492187999999999 18.310547000000042 4.492187999999999 Q20.019531000000029 4.492187999999999 20.312500000000000 15.820312999999999 Q20.605468999999971 27.148437999999999 19.824218999999971 33.105468999999971 Q19.726562000000058 35.595703000000015 19.091797000000042 36.914062000000001 Q23.974608999999987 38.525391000000013 26.708983999999987 37.792968999999971 Q32.128906000000029 36.474608999999987 32.958983999999987 29.931641000000013 Q33.789062000000058 23.339843999999971 33.691406000000029 18.359375000000000 Q33.593750000000000 13.378906000000029 33.984375000000000 11.718750000000000 Q34.667968999999971 9.765625000000000 35.986328500000013 9.472656500000028 Q37.304687999999942 9.179687999999999 39.990233999999987 11.376953000000015 Q38.427733999999987 4.736328000000015 35.205077999999958 1.708983999999987 Q33.593750000000000 -0.097655999999972 31.201172000000042 -0.097655999999972 Q26.904297000000042 -0.097655999999972 25.195312500000000 4.980468999999971 Q23.486327999999958 10.058593999999971 23.291016000000013 21.777343999999971 Q22.412108999999987 21.777343999999971 22.412108999999987 16.210937999999999 Q21.923827999999958 7.812500000000000 21.191406000000029 5.615233999999987 Q19.580077999999958 -0.097655999999972 15.722656000000029 -0.097655999999972 z" />
<glyph unicode="v" horiz-adv-x="35.986328" d="M21.582031000000001 18.505859000000001 Q21.875000000000000 32.568358999999987 20.117187999999942 37.695312000000001 Q27.734375000000000 41.113281000000029 31.884766000000013 35.888671999999985 Q35.400391000000013 31.494141000000013 34.912108999999987 22.607421999999985 Q34.472656000000029 13.769530999999972 30.078125000000000 6.835937500000000 Q25.683593999999971 -0.097655999999972 19.287108999999987 -0.097655999999972 Q12.890625000000000 -0.097655999999972 9.277343999999971 5.712891000000013 Q6.396483999999987 10.302733999999987 4.980468999999971 18.505858999999987 Q4.687500000000000 20.019531000000029 3.906250000000000 26.904296499999987 Q3.125000000000000 33.789062000000001 2.539061999999944 35.791016000000013 Q1.953125000000000 37.792968999999971 0.976561999999944 37.792968999999971 Q8.398438000000056 41.601562000000001 12.402343999999971 36.914062000000001 Q15.478516000000013 33.203125000000000 16.699218999999971 24.316406000000029 Q17.089843999999971 21.630858999999987 17.578125000000000 14.160156000000029 Q18.066406000000029 6.689453000000015 18.408202999999958 4.687500000000000 Q18.994141000000013 2.685546999999985 19.580077999999958 2.685546999999985 Q21.582031000000029 2.685546999999985 21.582031000000029 18.505858999999987 z" />
<glyph unicode="w" horiz-adv-x="49.267578" d="M33.496093999999999 -0.097656000000000 Q26.904297000000042 -0.097655999999972 23.095702999999958 8.886718999999971 Q23.095702999999958 0.683593999999971 18.994141000000013 -0.097655999999972 Q13.281250000000000 -1.416016000000013 10.009766000000013 4.296875000000000 Q6.884766000000013 8.935546999999985 4.882811999999944 21.435546999999985 Q4.492188000000056 24.169921999999985 4.394531000000029 24.511718999999971 Q3.125000000000000 37.792968999999971 0.976561999999944 37.792968999999971 Q8.300781000000029 41.503906000000029 12.402343999999971 36.914062000000001 Q16.601562000000058 31.982421999999985 17.285156000000029 17.187500000000000 Q17.871093999999971 7.519531000000029 18.261718999999971 5.566406000000029 Q18.652343999999971 3.613280999999972 19.384766000000013 3.613280999999972 Q21.240233999999987 3.613280999999972 19.921875000000000 19.091796999999985 Q18.017577999999958 35.205078000000015 16.796875000000000 37.792968999999971 Q24.121093999999971 41.601562000000001 27.880858999999987 36.914062000000001 Q30.761718999999971 33.007812000000001 31.689452999999958 24.316406000000029 Q32.080077999999958 19.140625000000000 32.177733999999987 13.281250000000000 Q32.226562000000058 7.421875000000000 32.714843500000029 5.078125000000000 Q33.203125000000000 2.734375000000000 33.886718999999971 2.685546999999985 Q34.570312000000058 2.685546999999985 34.960937000000058 5.322265500000015 Q35.351562000000058 7.958983999999987 35.107422000000042 18.505858999999987 Q34.667968999999971 26.074218999999971 33.789062500000000 31.542968999999971 Q32.910156000000029 37.011718999999971 32.519531000000029 37.695312000000001 Q40.234375000000000 41.113281000000029 44.482422000000042 35.888671999999985 Q48.486327999999958 31.298828000000015 48.291016000000013 22.656250000000000 Q48.095702999999958 13.964843999999971 44.091797000000042 6.933594000000028 Q40.087891000000013 -0.097655999999972 33.496093999999971 -0.097655999999972 z" />
<glyph unicode="x" horiz-adv-x="39.794922" d="M20.605468999999999 20.996093999999999 Q22.021483999999987 20.996093999999971 22.314452999999958 23.828125000000000 Q22.607422000000042 26.660156000000029 22.021483999999987 30.078125000000000 Q21.435547000000042 33.496093999999971 20.214843999999971 36.083983999999987 Q24.804687999999942 38.281250000000000 27.587891000000013 38.281250000000000 Q33.691406000000029 38.183593999999971 34.960937500000000 33.154296999999985 Q36.230468999999971 28.125000000000000 32.421875000000000 23.388671999999985 Q30.419922000000042 20.898437999999999 27.490233999999987 19.677733999999987 Q33.300781000000029 17.236328000000015 35.302733999999987 9.619141000000013 Q36.523437999999942 4.980469000000028 37.060547000000042 3.613281500000028 Q37.597656000000029 2.246094000000028 38.818358999999987 2.001953000000015 Q34.423827999999958 -0.195312000000001 32.324218999999971 -0.292969000000028 Q27.343750000000000 -1.074219000000028 25.292968999999971 2.197265500000015 Q23.242187999999942 5.468750000000000 22.705077999999958 10.205078000000015 Q21.582031000000029 16.406250000000000 21.386718999999971 16.992187999999999 Q21.093750000000000 18.115233999999987 20.214843999999971 18.115233999999987 Q18.115233999999987 18.115233999999987 18.505858999999987 11.523437999999999 Q18.505858999999987 5.517578000000015 20.605468999999971 1.513671999999985 Q16.015625000000000 -0.585937999999999 13.085938000000056 -0.488280999999972 Q6.787108999999987 -0.292968999999971 5.810546499999987 5.078125000000000 Q4.833983999999987 10.449219000000028 8.398438000000056 15.283203000000015 Q10.498047000000042 17.871093999999971 13.281250000000000 19.287108999999987 Q9.082031000000029 20.800781000000029 6.494141000000013 25.195312000000001 Q5.175781000000029 27.392578000000015 4.833983999999987 28.808593999999971 Q3.125000000000000 35.791016000000013 0.976561999999944 36.279296999999985 Q4.980468999999971 38.281250000000000 7.519531000000029 38.720703000000015 Q12.597656000000029 39.404296999999985 14.990233999999987 36.083983999999987 Q16.748047000000042 33.837891000000013 18.066406000000029 28.125000000000000 Q19.335937999999942 22.363281000000029 19.531250000000000 21.679687500000000 Q19.726562000000058 20.996093999999971 20.605468999999971 20.996093999999971 z" />
<glyph unicode="y" horiz-adv-x="34.570312000000001" d="M14.404297000000000 3.710938000000000 Q8.007812000000058 3.710937999999999 5.419922000000042 8.789062000000001 Q3.222656000000029 12.402343999999971 2.587891000000013 20.019531000000029 Q2.490233999999987 22.021483999999987 2.587891000000013 27.392578000000015 Q2.783202999999958 36.914062000000001 0.976561999999944 36.914062000000001 Q4.687500000000000 38.818358999999987 7.812500000000000 38.818358999999987 Q12.695312000000058 38.232421999999985 14.404297000000042 32.617187999999999 Q15.820311999999944 27.539062000000001 15.576172000000042 20.214843999999971 Q15.527343999999971 12.304687999999999 15.820312500000000 10.302734499999985 Q16.113281000000029 8.300781000000029 16.894531000000029 8.300781000000029 Q18.847656000000029 8.300781000000029 19.189452999999958 21.093750000000000 Q19.189452999999958 34.521483999999987 17.822266000000013 36.914062000000001 Q24.218750000000000 39.794921999999985 27.783202999999958 36.523437999999999 Q30.468750000000000 33.935546999999985 31.884766000000013 27.392578000000015 Q32.568358999999987 22.998046999999985 33.203125000000000 15.478516000000013 Q36.132812000000058 -12.597655999999972 21.191406000000029 -12.597656000000029 Q13.671875000000000 -12.597655999999972 8.886718999999971 -8.984375000000000 Q5.078125000000000 -6.298828000000015 4.785156499999971 -2.246093499999972 Q4.492188000000056 1.806641000000013 8.105468999999971 3.222655999999972 Q7.910156000000029 2.343750000000000 8.984375000000000 1.220703000000015 Q10.058593999999971 0.097655999999972 11.621093999999971 -0.585937999999999 Q15.722656000000029 -2.490233999999987 18.798827999999958 -0.390625000000000 Q22.607422000000042 1.904296999999985 22.509766000000013 9.619141000000013 Q22.119141000000013 19.335937999999999 21.777343999999971 21.777343999999971 Q21.191406000000029 21.582031000000029 21.191406000000029 20.410156000000029 C21.158854000000019 19.270833333333314 21.118163999999979 17.846679999999992 21.093750000000000 16.992187999999999 Q20.898437999999942 11.816406000000029 19.921875000000000 8.300781000000029 Q18.310547000000042 3.710937999999999 14.404297000000042 3.710937999999999 z" />
<glyph unicode="z" horiz-adv-x="34.570312000000001" d="M27.880859000000001 25.097656000000001 Q26.367187999999942 25.097656000000029 23.779297000000042 25.292968999999971 Q19.482422000000042 25.585937999999999 18.750000000000000 23.291016000000013 Q18.359375000000000 22.167968999999971 19.140625000000000 19.677733999999987 Q6.591797000000042 37.792968999999971 20.751952999999958 37.792968999999971 Q24.072266000000013 37.792968999999971 31.494141000000013 36.376953500000013 Q38.916016000000013 34.960937999999999 39.746093999999971 35.498046999999985 Q41.845702999999958 31.005858999999987 37.255858999999987 25.781250000000000 Q35.449218999999971 23.486328000000015 32.763672000000042 21.191406000000029 Q26.464843999999971 16.113281000000029 24.560547000000042 13.574218500000029 Q22.656250000000000 11.035156000000029 22.851562000000058 9.423828000000015 Q22.998047000000042 10.205078000000015 29.589843999999971 10.107421999999985 Q36.181641000000013 10.009766000000013 39.550781000000029 10.888671999999985 Q45.458983999999987 12.304687999999999 45.361327999999958 16.894531000000029 Q47.167968999999971 4.394531000000029 41.455077999999958 1.220703000000015 Q38.378906000000029 -0.781250000000000 29.443358999999987 0.097655999999972 Q21.972656000000029 1.318358999999987 21.044922000000042 -0.878905999999972 Q15.527343999999971 4.833983999999987 18.847656000000029 10.888671999999985 Q21.533202999999958 15.771483999999987 30.126952999999958 22.509766000000013 Q34.570312000000058 25.976562000000001 34.960937999999942 27.099608999999987 Q32.958983999999987 25.097656000000029 27.880858999999987 25.097656000000029 z" />
<glyph unicode="{" horiz-adv-x="28.271484000000001" d="M2.978516000000000 20.410156000000001 Q9.472656000000029 20.800781000000029 11.621093999999971 28.222656000000029 Q12.402343999999971 30.517578000000015 13.281250000000000 34.814453000000015 Q14.697266000000013 42.626953000000015 18.701172000000042 45.410156000000029 Q20.898437999999942 46.923828000000015 25.292968999999971 46.093750000000000 Q20.605468999999971 46.093750000000000 21.093750000000000 40.087891000000013 Q21.191406000000029 37.500000000000000 21.679687999999942 34.277343999999971 Q22.900391000000013 26.855468999999971 20.410156000000029 23.095703000000015 Q18.505858999999987 20.898437999999999 14.599608999999987 20.312500000000000 Q20.312500000000000 19.189453000000015 21.582031000000029 14.208983999999987 Q22.753906000000029 10.253906000000029 21.875000000000000 5.175781000000029 Q20.996093999999971 0.097655999999972 20.214843999999971 -3.906250000000000 Q19.433593999999971 -7.910155999999972 19.677733999999987 -10.205078000000015 Q20.263672000000042 -11.718750000000000 21.289062000000058 -11.816406000000029 Q17.089843999999971 -11.523437999999999 15.380858999999987 -6.298828000000015 Q14.160156000000029 -3.417968999999971 12.988281000000029 4.394531000000029 Q11.816406000000029 12.207031000000029 10.302733999999987 15.576171999999985 Q7.861327999999958 20.410156000000029 2.978516000000013 20.410156000000029 z" />
<glyph unicode="|" horiz-adv-x="18.261718999999999" d="M12.011718999999999 -6.982422000000000 Q13.134766000000013 -6.787108999999987 13.134766000000013 -4.003905999999972 Q12.841797000000042 1.904296999999985 10.205077999999958 13.085937999999999 Q7.617188000000056 25.195312000000001 5.664063000000056 35.839843500000029 Q3.710937999999942 46.484375000000000 5.322266000000013 51.123046999999985 Q6.103516000000013 53.320312000000001 8.300781000000029 52.685546999999985 Q7.714843999999971 52.636718999999971 8.056641000000013 50.781250000000000 Q8.398438000000056 48.925781000000029 11.816406000000029 31.005858999999987 Q14.404297000000042 18.750000000000000 16.113281499999971 7.421875000000000 Q17.822266000000013 -3.906250000000000 15.625000000000000 -6.982421999999985 Q14.501952999999958 -8.691406000000029 12.011718999999971 -6.982421999999985 z" />
<glyph unicode="}" horiz-adv-x="28.173828" d="M25.195312000000001 16.992187999999999 Q18.994141000000013 16.796875000000000 16.699218999999971 9.277343999999971 Q15.820311999999944 6.494141000000013 15.087891000000013 2.685546999999985 Q13.378906000000029 -5.517578000000015 9.619141000000013 -7.910155999999972 Q7.519531000000029 -9.521483999999987 2.978516000000013 -8.691406000000029 Q5.664061999999944 -8.789062000000001 6.542968999999971 -7.177733999999987 Q7.373047000000042 -5.566405999999972 7.177734500000042 -2.441405999999972 Q6.982422000000042 0.683594000000028 6.396483999999987 3.076171999999985 Q5.517577999999958 10.595703000000015 8.007811999999944 14.208983999999987 Q9.619141000000013 16.406250000000000 13.720702999999958 16.992187999999999 Q8.007811999999944 18.212891000000013 6.689452999999958 23.193358999999987 Q5.566406000000029 27.099608999999987 6.689452999999958 33.789062000000001 Q7.177733999999987 37.304687999999999 8.056641000000013 41.357421999999985 Q9.667968999999971 48.876953000000015 6.982422000000042 49.316406000000029 Q10.986327999999958 48.925781000000029 12.988281000000029 43.798828000000015 Q13.867188000000056 41.210937999999999 15.136718999999971 33.154296999999985 Q16.406250000000000 25.097656000000029 17.919922000000042 21.923828000000015 Q20.312500000000000 16.992187999999999 25.195312000000058 16.992187999999999 z" />
<glyph unicode="~" horiz-adv-x="31.591797" d="M10.693358999999999 12.597656000000001 Q7.763672000000042 12.597656000000029 5.712891000000013 15.722656000000029 Q3.222656000000029 18.505858999999987 4.150391000000013 22.119141000000013 Q4.736327999999958 23.681641000000013 6.542968999999971 24.804687999999999 Q8.544922000000042 21.923828000000015 11.816406000000029 22.607421999999985 Q14.599608999999987 23.437500000000000 16.943358999999987 24.414062500000000 Q19.287108999999987 25.390625000000000 21.435547000000042 25.244141000000013 Q23.632812000000058 25.097656000000029 25.781250000000000 23.681641000000013 Q27.978516000000013 22.265625000000000 29.248047000000042 18.945312500000000 Q30.517577999999958 15.625000000000000 27.636718999999971 13.623046999999985 Q25.048827999999958 16.015625000000000 21.240233999999987 15.283203000000015 Q18.750000000000000 14.599608999999987 17.919922000000042 14.306641000000013 Q13.623047000000042 12.597656000000029 10.693358999999987 12.597656000000029 z" />
<glyph unicode="" horiz-adv-x="24.365234000000001" d="" />
<glyph unicode="" horiz-adv-x="23.876953" d="M8.837891000000001 -2.099609000000000 Q11.035156000000029 -2.001953000000015 10.009766000000013 3.710937999999999 Q9.814452999999958 5.761719000000028 8.544922000000042 11.132812500000000 Q7.275391000000013 16.503906000000029 6.835938000000056 22.119141000000013 Q6.640625000000000 28.710937999999999 10.302733999999987 30.908203000000015 Q11.914061999999944 32.031250000000000 15.722656000000029 31.689453000000015 Q13.818358999999987 31.103516000000013 15.771483999999987 25.146483999999987 Q17.724608999999987 19.238281000000029 19.824218500000029 13.378906000000029 Q21.923827999999958 7.519530999999972 22.314452999999958 2.197266000000013 Q22.900391000000013 -4.492187999999999 17.431641000000013 -4.492187999999999 Q14.746093999999971 -4.589844000000028 8.837891000000013 -2.099608999999987 zM16.699218999999999 43.652343999999999 Q16.699218999999971 42.480468999999971 16.796875000000000 41.894531000000029 Q13.916016000000013 37.890625000000000 10.156250000000000 38.574218500000029 Q6.396483999999987 39.257812000000001 5.224608999999987 43.017578000000015 Q3.710937999999942 47.314453000000015 5.322266000000013 52.392578000000015 Q16.699218999999971 53.955078000000015 16.699218999999971 43.652343999999971 z" />
<glyph unicode="" horiz-adv-x="40.283203" d="M19.433593999999999 32.812500000000000 Q18.115233999999987 28.515625000000000 18.847656000000029 19.921875000000000 Q19.335937999999942 11.132812000000001 22.607422000000042 6.201171999999985 Q22.363281000000029 9.082031000000029 20.898437999999942 19.189453000000015 Q19.433593999999971 29.345703000000015 19.433593999999971 32.812500000000000 zM18.945312000000001 37.695312000000001 C18.994140249999987 37.695312000000001 19.091796749999958 37.695312000000001 19.140625000000000 37.695312000000001 Q19.335937999999942 41.601562000000001 19.726562999999942 43.310546499999987 Q20.117187999999942 45.019531000000029 21.435547000000042 44.580078000000015 Q21.142577999999958 44.287108999999987 21.435547000000042 42.480468999999971 Q21.533202999999958 40.576171999999985 22.021483999999987 37.402343999999971 Q28.515625000000000 36.083983999999987 32.226562000000058 31.689453000000015 Q35.839843999999971 27.099608999999987 34.228516000000013 23.583983999999987 Q32.812500000000000 19.482421999999985 25.341797000000042 19.921875000000000 Q25.488281000000029 22.021483999999987 24.707031000000029 25.878906000000029 Q23.925781000000029 29.736328000000015 22.607422000000042 32.812500000000000 C23.242187666666723 27.815755333333357 24.035644749999960 21.569824499999982 24.511718999999971 17.822266000000013 Q24.902343999999971 14.501953000000015 25.732422000000042 3.320312000000001 Q31.787108999999987 1.171875000000000 36.230468999999971 4.980469000000028 Q37.939452999999958 6.494141000000013 38.769531000000029 8.447266000000013 Q39.599608999999987 10.400391000000013 39.208983999999987 11.816406000000029 Q40.429687999999942 10.595703000000015 40.185547000000042 8.447265500000015 Q39.941406000000029 6.298828000000015 38.427733999999987 4.394530999999972 Q34.716797000000042 -0.585937999999999 26.611327999999958 -0.585937999999999 Q26.416016000000013 -0.585937999999999 26.123047000000042 -0.488280999999972 C25.960286666666661 -0.488280999999972 25.756836249999992 -0.488280999999972 25.634766000000013 -0.488280999999972 Q25.732422000000042 -2.929687999999999 25.000000000000000 -4.785156500000028 Q24.267577999999958 -6.640625000000000 22.851562000000058 -5.517578000000015 Q23.339843999999971 -5.517578000000015 23.437500000000000 -4.003905999999972 C23.437500000000000 -2.766927000000010 23.437500000000000 -1.220703249999985 23.437500000000000 -0.292969000000028 Q12.841797000000042 1.025391000000013 8.105468999999971 10.888671999999985 Q4.101561999999944 19.775391000000013 7.031250000000000 28.417968999999971 Q8.447266000000013 32.617187999999999 11.523437500000000 35.156250000000000 Q14.599608999999987 37.695312000000001 18.945312000000058 37.695312000000001 z" />
<glyph unicode="" horiz-adv-x="45.166015999999999" d="M2.978516000000000 7.519531000000000 Q3.466797000000042 12.402344000000028 12.988281000000029 11.376953000000015 Q17.578125000000000 10.937500000000000 25.292968999999971 9.082031000000029 Q40.332031000000029 5.517578000000015 41.992187999999942 9.423828000000015 Q42.968750000000000 0.537108999999987 37.597656000000029 -0.878905999999972 Q33.300781000000029 -2.001953000000015 24.707031000000029 1.220703000000015 Q20.996093999999971 2.636719000000028 14.843750000000000 5.224609499999985 Q8.691406000000029 7.812500000000000 6.152343999999971 8.300781000000029 Q3.613281000000029 8.789062000000001 2.978516000000013 7.519530999999972 zM23.681640999999999 19.091797000000000 Q22.998047000000042 14.599608999999987 20.410156000000029 12.988281000000029 Q17.333983999999987 10.888671999999985 10.986327999999958 12.402343999999971 Q14.062500000000000 13.183593999999971 13.281250000000000 19.482421999999985 Q7.763672000000042 20.361328000000015 10.302733999999987 22.705078000000015 C10.660806999999977 22.705078000000015 11.108398250000050 22.705078000000015 11.376952999999958 22.705078000000015 Q12.255858999999987 22.705078000000015 12.695311999999944 22.802733999999987 C12.630208000000039 23.307291333333353 12.548827999999958 23.937988000000018 12.500000000000000 24.316406000000029 Q7.421875000000000 25.195312000000001 9.912108999999987 27.392578000000015 C10.579426666666677 27.392578000000015 11.413573749999955 27.392578000000015 11.914061999999944 27.392578000000015 Q10.498047000000042 37.011718999999971 12.011718999999971 40.722656000000029 Q14.306641000000013 46.533203000000015 24.121093999999971 45.996093999999971 Q30.908202999999958 45.410156000000029 33.789062000000058 41.699218999999971 Q35.009766000000013 40.087891000000013 34.912109500000042 38.378906499999971 Q34.814452999999958 36.669921999999985 33.496093999999971 35.693358999999987 Q30.273437999999942 33.007812000000001 23.291016000000013 35.400391000000013 Q25.097656000000029 35.498046999999985 25.781250000000000 39.843750000000000 Q26.464843999999971 44.189453000000015 24.121093999999971 44.482421999999985 Q20.068358999999987 44.482421999999985 22.412108999999987 33.789062000000001 Q23.291016000000013 27.685546999999985 23.291016000000013 27.392578000000015 Q28.173827999999958 27.001953000000015 29.492187999999942 26.416016000000013 Q31.689452999999958 25.732421999999985 30.419922000000042 24.121093999999971 Q25.488281000000029 23.681641000000013 23.681641000000013 23.681641000000013 C23.681641000000013 23.388671999999985 23.681641000000013 23.022460749999993 23.681641000000013 22.802733999999987 Q27.880858999999987 22.607421999999985 29.785156000000029 21.923828000000015 Q31.787108999999987 21.044921999999985 30.712891000000013 19.482421999999985 Q27.099608999999987 19.189453000000015 25.634766000000013 19.189453000000015 Q24.121093999999971 19.189453000000015 23.681641000000013 19.091796999999985 z" />
<glyph unicode="" horiz-adv-x="47.998047" d="M28.173828000000000 8.886718999999999 Q29.687500000000000 8.593750000000000 29.931640499999958 13.671875000000000 Q30.175781000000029 18.750000000000000 28.369141000000013 22.900391000000013 Q27.880858999999987 24.121093999999971 27.099608999999987 24.365234499999985 Q26.318358999999987 24.609375000000000 25.781250000000000 23.583983999999987 Q25.097656000000029 21.191406000000029 25.537108999999987 17.382812500000000 Q25.976562000000058 13.574218999999971 26.757812000000058 11.279296999999985 Q27.539062000000058 8.984375000000000 28.173827999999958 8.886718999999971 zM29.541015999999999 7.421875000000000 Q23.291016000000013 7.421875000000000 19.238281000000029 9.814453000000015 Q14.794922000000042 3.564453000000015 16.064452999999958 2.099608999999987 Q11.962891000000013 5.175780999999972 10.742188000000056 6.787108999999987 Q7.128906000000029 10.498046999999985 10.839843999999971 11.718750000000000 Q12.841797000000042 12.500000000000000 15.771483999999987 12.792968999999971 Q13.574218999999971 15.527343999999971 13.818359500000042 18.457031499999971 Q14.062500000000000 21.386718999999971 16.748047000000042 23.291016000000013 Q11.669922000000042 24.414062000000001 9.375000000000000 25.878906000000029 Q4.492187999999942 28.857421999999985 8.154297000000042 32.324218999999971 Q10.058593999999971 33.935546999999985 13.476561999999944 34.619141000000013 Q12.744141000000013 33.593750000000000 14.892578500000013 29.980468999999971 Q17.041016000000013 26.367187999999999 19.042968999999971 24.414062000000001 Q21.826172000000042 25.585937999999999 25.927734500000042 25.585937999999999 Q30.029297000000042 25.585937999999999 33.740233999999987 24.121093999999971 Q35.058593999999971 25.927733999999987 36.767577999999958 29.980468999999971 Q37.744141000000013 33.593750000000000 37.646483999999987 35.400391000000013 Q46.044922000000042 28.417968999999971 42.675781000000029 24.755858999999987 Q41.064452999999958 22.998046999999985 36.865233999999987 22.314453000000015 Q41.748047000000042 18.505858999999987 41.162108999999987 13.818358999999987 Q45.068358999999987 12.695312000000001 46.875000000000000 11.181641000000013 Q50.683593999999971 8.105468999999971 46.875000000000000 5.322266000000013 Q44.970702999999958 4.003906000000029 41.748047000000042 3.076171999999985 Q42.431641000000013 5.078125000000000 38.867187999999942 10.009766000000013 Q35.791016000000013 7.421875000000000 29.541016000000013 7.421875000000000 z" />
<glyph unicode="" horiz-adv-x="38.28125" d="M29.101562000000001 6.689453000000000 Q29.101562000000058 1.171875000000000 26.123047000000042 -0.878905999999972 Q24.707031000000029 -2.001953000000015 22.265625000000000 -2.001953000000015 Q19.824218999999971 -2.001953000000015 15.917968999999971 -0.292969000000028 Q18.212891000000013 -0.292969000000028 17.285156000000029 6.884766000000013 Q10.400391000000013 7.763671999999985 13.183593999999971 11.181641000000013 C14.388020999999981 11.181641000000013 15.893554750000021 11.181641000000013 16.796875000000000 11.181641000000013 C16.748046749999958 11.560058749999996 16.650390249999987 12.316894250000018 16.601562000000058 12.695312000000001 Q9.619141000000013 13.574218999999971 12.597656000000029 16.992187999999999 Q13.720702999999958 16.992187999999999 14.404297000000042 17.089843999999971 C15.136718666666638 17.089843999999971 16.052245749999997 17.089843999999971 16.601562000000058 17.089843999999971 Q16.503906000000029 18.408203000000015 17.089843999999971 20.214843999999971 Q11.474608999999987 21.533203000000015 8.691406000000029 27.880858999999987 Q7.080077999999958 31.591796999999985 5.712891000000013 39.111328000000015 Q5.126952999999958 41.015625000000000 4.687500000000000 43.212891000000013 Q4.003906000000029 45.019531000000029 2.978516000000013 45.117187999999999 Q6.787108999999987 46.923828000000015 9.179688000000056 46.777343999999971 Q14.062500000000000 46.679687999999999 16.210937999999942 41.894531000000029 Q18.212891000000013 37.890625000000000 18.701172000000042 32.177733999999987 Q19.580077999999958 22.021483999999987 21.191406000000029 22.119141000000013 Q22.656250000000000 22.119141000000013 22.998047000000042 32.080078000000015 Q22.705077999999958 41.699218999999971 21.093750000000000 45.019531000000029 Q27.490233999999987 47.705078000000015 31.103515499999958 45.312500000000000 Q34.716797000000042 42.919921999999985 35.205077999999958 37.597656000000029 Q35.693358999999987 32.275391000000013 33.105468999999971 27.587891000000013 Q30.419922000000042 22.265625000000000 25.585937999999942 20.507812000000001 Q26.269531000000029 19.531250000000000 27.392577999999958 16.992187999999999 Q30.468750000000000 16.894530999999972 32.421875000000000 15.820312000000001 Q34.228516000000013 14.599608999999987 32.812500000000000 12.890625000000000 Q32.031250000000000 12.890625000000000 31.005859500000042 12.744140500000015 Q29.980468999999971 12.597656000000029 28.613281000000029 12.597656000000029 C28.710937333333277 12.093098666666663 28.833007749999979 11.462401999999997 28.906250000000000 11.083983999999987 Q32.128906000000029 10.595703000000015 33.398437500000000 9.667968500000029 Q34.667968999999971 8.740233999999987 33.496093999999971 6.982421999999985 Q32.714843999999971 6.982421999999985 32.324218999999971 6.884766000000013 C31.852213666666671 6.884766000000013 31.262206999999989 6.884766000000013 30.908202999999958 6.884766000000013 Q30.322266000000013 6.689453000000015 29.101562000000058 6.689453000000015 z" />
<glyph unicode="" horiz-adv-x="19.873047" d="M12.451172000000000 -6.982422000000000 Q13.964843999999971 -6.933594000000028 13.769531499999971 -3.808594000000028 Q13.574218999999971 -0.683594000000028 11.132811999999944 8.154296999999985 Q8.691406000000029 16.992187999999999 10.058593999999971 20.214843999999971 Q11.181641000000013 21.923828000000015 13.964843999999971 21.191406000000029 Q13.476561999999944 20.996093999999971 13.671875000000000 19.628906499999971 Q13.867188000000056 18.261718999999971 15.722656000000029 10.546875000000000 Q17.578125000000000 2.734375000000000 18.115234500000042 -2.587890500000015 Q18.652343999999971 -7.910155999999972 16.259766000000013 -8.300781000000029 Q15.039061999999944 -8.789062000000001 12.451172000000042 -6.982421999999985 zM8.886718999999999 54.101562000000001 Q7.568358999999987 53.906250000000000 10.791016000000013 42.285156000000029 Q12.402343999999971 35.742187999999999 12.939452999999958 30.371093999999971 Q13.818358999999987 21.533203000000015 7.275391000000013 25.878906000000029 Q8.691406000000029 25.976562000000001 8.691406000000029 28.417968999999971 Q8.398438000000056 31.152343999999971 5.957031499999971 40.429687500000000 Q3.515625000000000 49.707031000000029 4.882811999999944 53.076171999999985 Q5.761718999999971 54.687500000000000 8.886718999999971 54.101562000000001 z" />
<glyph unicode="" horiz-adv-x="32.275390999999999" d="M9.570311999999999 23.388672000000000 Q12.548827999999958 20.410156000000029 18.994140499999958 21.093750000000000 Q25.439452999999958 21.777343999999971 27.587891000000013 24.707031000000029 Q23.876952999999958 28.027343999999971 17.382812500000000 27.636718999999971 Q10.888672000000042 27.246093999999971 9.570311999999944 23.388671999999985 zM11.572266000000001 30.175781000000001 C11.254882999999950 30.151366999999993 10.620117000000050 30.102538999999979 10.302733999999987 30.078125000000000 C9.875488000000018 30.004882749999979 9.020995999999968 29.858398249999993 8.593750000000000 29.785156000000029 Q4.101561999999944 35.791016000000013 6.982422000000042 40.820312000000001 Q9.179688000000056 45.117187999999999 15.283202999999958 46.484375000000000 Q20.996093999999971 47.998046999999985 25.195312000000058 45.019531000000029 Q29.882812000000058 41.406250000000000 28.173827999999958 33.789062000000001 Q27.392577999999958 37.500000000000000 23.535156000000029 37.597656000000029 Q19.677733999999987 37.695312000000001 15.966797000000042 35.595703000000015 Q11.865233999999987 33.593750000000000 11.572266000000013 31.884766000000013 Q15.185547000000042 32.763671999999985 19.091797000000042 33.007812000000001 Q27.099608999999987 33.007812000000001 29.492187999999942 29.003906000000029 Q32.910156000000029 23.095703000000015 28.076172000000042 17.919921999999985 Q30.273437999999942 17.187500000000000 31.445312999999942 14.843750000000000 Q32.617187999999942 12.500000000000000 32.080077999999958 9.814453000000015 Q31.201172000000042 4.931641000000013 26.171875000000000 1.416016000000013 Q20.849608999999987 -2.001953000000015 16.064452999999958 -1.220703000000015 Q10.742188000000056 -0.927733999999987 9.570311999999944 4.589844000000028 Q8.886718999999971 7.714844000000028 9.863281000000029 11.718750000000000 Q10.644531000000029 8.496094000000028 15.380858999999987 8.984375000000000 Q18.701172000000042 9.472655999999972 23.486327999999958 12.402343999999971 Q24.902343999999971 13.281250000000000 26.074218999999971 14.550781000000029 Q27.246093999999971 15.820312000000001 27.001952999999958 16.601562000000001 Q23.486327999999958 13.378906000000029 18.652343500000029 12.597656000000029 Q13.818358999999987 11.816406000000029 10.595702999999958 14.013671999999985 Q7.373047000000042 16.210937999999999 7.666016000000013 21.777343999999971 Q7.080077999999958 26.855468999999971 11.572266000000013 30.175781000000029 z" />
<glyph unicode="" horiz-adv-x="53.369140999999999" d="M33.447265999999999 2.490234000000000 Q26.318358999999987 2.539061999999944 21.826171499999987 7.226562000000001 Q17.333983999999987 11.914062000000001 16.601562000000058 18.408203000000015 Q15.869141000000013 24.902343999999971 18.750000000000000 29.687500000000000 Q21.630858999999987 34.472656000000029 27.539062000000058 34.521483999999987 Q33.447266000000013 34.570311999999944 37.011718999999971 29.882812000000001 Q40.576172000000042 25.195312000000001 39.013672000000042 20.703125000000000 Q37.451172000000042 16.210937999999999 30.859375000000000 16.503906000000029 Q31.250000000000000 22.363281000000029 30.029297000000042 30.419921999999985 Q29.541016000000013 32.421875000000000 28.759766000000013 32.421875000000000 Q28.466797000000042 32.421875000000000 27.636718999999971 29.687500000000000 Q26.806641000000013 26.953125000000000 27.392577999999958 19.970703000000015 Q27.978516000000013 13.037108999999987 30.371093999999971 8.593750000000000 Q31.591797000000042 6.396483999999987 33.837890499999958 5.566405999999972 Q36.083983999999987 4.736328000000015 38.330077999999958 5.322266000000013 Q42.724608999999987 6.542969000000028 44.042968999999971 10.205078000000015 Q44.628906000000029 11.523437999999999 44.335937999999942 12.988281000000029 Q45.458983999999987 11.816406000000029 45.312500000000000 10.058593500000029 Q45.166016000000013 8.300781000000029 43.847656000000029 6.591796999999985 Q40.576172000000042 2.490233999999987 33.447266000000013 2.490233999999987 zM28.564453000000000 36.621093999999999 Q16.357422000000042 38.427733999999987 12.255858999999987 31.982421999999985 Q8.642577999999958 26.269531000000029 12.548827999999958 17.382812500000000 Q16.455077999999958 8.496094000000028 23.828125000000000 3.613280999999972 Q32.421875000000000 -2.294921999999985 40.771483999999987 0.488280999999972 Q46.679687999999942 4.394530999999972 47.607422000000042 12.646484499999985 Q48.535156000000029 20.898437999999999 44.238281000000029 27.392578000000015 Q39.062500000000000 35.107421999999985 28.564452999999958 36.621093999999971 zM26.367187999999999 39.111328000000000 Q39.550781000000029 37.792968999999971 45.605468500000029 29.541015500000015 Q51.660156000000029 21.289062000000001 50.146483999999987 11.523437999999999 Q48.632812000000058 1.757812000000001 41.162108999999987 -3.076171999999985 Q33.154297000000042 -8.691405999999972 21.728516000000013 -4.589844000000028 Q16.064452999999958 -2.587891000000013 11.865233999999987 1.513671999999985 Q3.271483999999987 9.863281000000029 3.076172000000042 21.044921999999985 Q3.027343999999971 26.074218999999971 5.371093999999971 30.419921999999985 Q11.279297000000042 40.087891000000013 26.367187999999942 39.111328000000015 z" />
<glyph unicode="" horiz-adv-x="39.990234000000001" d="M37.353515999999999 7.812500000000000 Q36.865233999999987 2.539062000000001 32.763671499999987 3.515625000000000 Q28.662108999999987 4.492187999999999 24.023437999999942 9.716796999999985 Q19.042968999999971 15.039062000000001 17.236327999999958 19.824218999999971 Q14.648438000000056 18.847656000000029 11.621093999999971 19.824218999999971 Q7.910156000000029 20.507812000000001 5.517577999999958 23.095703000000015 Q6.787108999999987 21.093750000000000 9.912108999999987 18.359375000000000 Q13.037108999999987 15.625000000000000 16.308593999999971 13.525391000000013 Q19.580077999999958 11.425781000000029 24.218750000000000 8.593750000000000 Q23.828125000000000 2.197266000000013 18.261718999999971 4.882812000000001 Q13.476561999999944 6.982421999999985 8.154297000000042 13.818358999999987 Q3.076172000000042 20.898437999999999 3.417968999999971 25.097656000000029 Q8.056641000000013 25.292968999999971 12.255859500000042 27.197265500000015 Q16.455077999999958 29.101562000000001 16.259766000000013 31.005858999999987 Q19.238281000000029 27.783203000000015 19.921875000000000 24.707031000000029 Q23.583983999999987 25.488281000000029 26.416015499999958 26.953125000000000 Q29.248047000000042 28.417968999999971 29.248047000000042 30.175781000000029 Q33.935547000000042 24.853516000000013 32.958983999999987 21.582031000000029 Q31.835937999999942 18.505858999999987 27.587891000000013 18.408203000000015 Q23.339843999999971 18.310546999999985 19.433593999999971 21.484375000000000 C19.368489666666619 21.386718666666638 19.287109249999958 21.264648249999993 19.238281000000029 21.191406000000029 Q22.216797000000042 17.480468999999971 30.029297000000042 12.304687999999999 Q33.056641000000013 10.107421999999985 37.353516000000013 7.812500000000000 z" />
</font>
</svg>
